<?xml version="1.0" standalone="no"?>
<!DOCTYPE svg PUBLIC "-//W3C//DTD SVG 20010904//EN"
 "http://www.w3.org/TR/2001/REC-SVG-20010904/DTD/svg10.dtd">
<svg version="1.0" xmlns="http://www.w3.org/2000/svg"
 width="325.000000pt" height="325.000000pt" viewBox="0 0 325.000000 325.000000"
 preserveAspectRatio="xMidYMid meet">

<g transform="translate(0.000000,325.000000) scale(0.100000,-0.100000)"
fill="#000000" stroke="none">
<path d="M1416 3190 c-197 -13 -300 -34 -302 -61 0 -8 -2 -27 -2 -42 -1 -18
-6 -26 -13 -21 -7 4 -10 1 -7 -7 3 -8 -4 -25 -16 -38 -11 -13 -16 -21 -9 -17
6 3 14 2 18 -4 3 -5 2 -10 -2 -10 -5 0 -7 -19 -5 -41 3 -27 0 -44 -9 -49 -9
-6 -10 -12 -2 -22 13 -16 23 -69 12 -63 -4 3 -10 1 -14 -5 -3 -5 -1 -10 4 -10
15 0 14 -83 -1 -98 -9 -9 -8 -12 4 -12 20 0 18 -31 -2 -47 -9 -7 -10 -12 -4
-13 18 0 26 -32 12 -42 -10 -6 -10 -10 -1 -16 14 -9 12 -84 -2 -94 -7 -5 -7
-8 0 -8 7 0 11 -58 12 -155 2 -108 -1 -154 -8 -152 -7 1 -14 -4 -16 -10 -3 -7
2 -13 11 -13 12 0 15 -14 15 -70 0 -41 -4 -68 -10 -65 -5 4 -9 1 -9 -4 0 -6 5
-11 10 -11 6 0 10 -14 10 -31 0 -17 -4 -28 -10 -24 -13 8 -13 -8 -1 -20 11
-11 15 -207 5 -247 -4 -18 -2 -28 5 -28 7 0 9 -9 5 -25 l-6 -25 111 -1 c141
-2 135 -1 139 -21 4 -19 -19 -48 -37 -48 -14 0 -23 -18 -12 -24 5 -3 20 5 32
19 13 13 30 25 37 25 7 0 17 10 22 23 5 12 9 16 9 10 1 -7 10 -13 21 -13 16 0
19 5 14 24 -4 18 -1 25 15 29 12 3 21 10 21 17 0 6 -4 9 -9 6 -5 -4 -11 -2
-13 3 -1 5 -25 -2 -51 -15 -30 -14 -44 -17 -37 -8 7 7 16 14 21 14 4 0 24 10
44 21 26 15 33 25 26 33 -7 9 -7 16 1 24 8 8 8 15 -1 26 -13 15 -11 37 4 49 7
4 6 10 -1 15 -6 4 -11 28 -11 55 1 38 4 47 19 47 10 0 18 5 18 10 0 9 -14 14
-33 11 -14 -2 14 40 30 46 13 5 12 8 -5 14 -18 7 -20 12 -13 33 6 13 8 26 5
28 -2 3 6 13 18 24 18 15 20 16 9 2 -10 -14 -11 -21 -1 -32 12 -16 18 -315 6
-334 -3 -6 -2 -12 2 -14 12 -4 23 -68 12 -68 -5 0 -5 -13 1 -30 6 -16 15 -30
19 -30 4 0 6 -9 3 -21 -5 -18 -2 -20 28 -17 37 3 53 16 40 33 -5 5 -11 23 -15
39 -4 16 -21 42 -38 58 -25 24 -28 31 -17 44 20 24 50 38 99 44 39 4 45 9 48
30 4 26 22 53 22 32 0 -8 23 -12 75 -12 67 0 79 3 100 25 31 30 34 86 6 114
-12 12 -16 23 -10 32 14 23 10 65 -9 89 -12 15 -33 24 -65 27 -26 3 -47 7 -47
9 0 2 20 97 44 211 24 115 65 314 90 443 26 129 49 246 52 259 5 23 7 24 77
18 40 -4 87 -9 105 -13 40 -8 44 12 6 27 -15 5 -24 12 -21 16 4 3 0 15 -8 27
-21 29 -19 39 6 31 19 -6 21 -4 15 19 -6 25 -5 26 14 16 11 -6 20 -7 20 -2 0
39 -437 71 -724 52z m485 -79 c4 -1 9 -10 12 -21 6 -24 -24 -28 -43 -5 -16 19
-39 19 -46 0 -5 -11 -17 -14 -53 -10 -72 9 -84 14 -70 31 9 11 33 13 103 10
50 -2 94 -5 97 -5z m169 -31 c14 -34 9 -46 -15 -36 -11 4 -14 13 -9 32 5 19 4
25 -5 20 -12 -8 -16 6 -5 17 10 10 20 0 34 -33z m-675 20 c4 -6 11 -8 16 -5 5
4 9 2 9 -4 0 -18 -51 -26 -61 -10 -5 8 -9 9 -9 3 0 -7 -11 -14 -25 -16 -18 -4
-25 -1 -25 10 0 12 -3 12 -15 2 -13 -11 -14 -10 -9 4 7 19 30 21 37 4 3 -9 7
-7 12 5 8 19 59 24 70 7z m-34 -228 c16 2 25 -2 27 -14 4 -19 -22 -25 -33 -8
-3 5 -12 7 -20 3 -11 -3 -15 2 -15 18 0 17 3 20 9 11 4 -8 19 -12 32 -10z
m-206 -16 c25 1 45 -2 45 -6 0 -5 -18 -6 -40 -4 -22 2 -40 -1 -40 -6 0 -21
-16 -9 -17 13 0 12 1 17 3 12 2 -6 24 -10 49 -9z m79 -1 c-4 -8 -8 -15 -10
-15 -2 0 -4 7 -4 15 0 8 4 15 10 15 5 0 7 -7 4 -15z m54 -16 c-3 -8 -7 -3 -11
10 -4 17 -3 21 5 13 5 -5 8 -16 6 -23z m28 -49 c17 0 19 -16 2 -26 -7 -5 -8
-2 -3 7 6 11 5 12 -6 2 -7 -7 -17 -13 -22 -13 -4 0 -5 6 -1 13 5 8 2 7 -10 -2
-13 -11 -20 -11 -28 -3 -16 16 -31 15 -22 0 6 -10 5 -10 -8 -1 -8 7 -19 9 -23
5 -5 -4 -6 -2 -2 4 3 5 25 11 49 13 24 1 45 7 47 14 3 9 5 9 9 0 2 -7 10 -13
18 -13z m-145 -17 c12 -16 12 -17 -2 -5 -13 10 -19 9 -29 -3 -7 -8 -20 -15
-29 -14 -12 0 -11 2 4 9 11 5 16 9 10 10 -5 1 -1 5 10 10 11 5 21 9 21 9 1 1
8 -7 15 -16z m316 -637 c2 -24 -3 -38 -20 -52 -22 -19 -22 -19 -4 2 9 11 17
24 17 29 0 4 -8 1 -17 -6 -16 -12 -16 -11 0 8 13 15 15 23 7 28 -9 6 -9 10 1
16 8 5 14 9 14 9 0 0 1 -15 2 -34z m307 -112 c24 -9 21 -54 -4 -54 -16 0 -20
-7 -20 -30 0 -25 4 -30 25 -30 29 0 47 -28 34 -53 -7 -11 -22 -17 -44 -17
l-35 0 0 95 c0 99 3 105 44 89z m-471 -379 c-9 -15 -11 -15 -24 1 -12 16 -12
17 4 11 10 -4 17 -2 17 5 0 6 3 9 6 5 3 -3 2 -13 -3 -22z m247 -65 c0 -5 -2
-10 -4 -10 -3 0 -8 5 -11 10 -3 6 -1 10 4 10 6 0 11 -4 11 -10z"/>
<path d="M1050 2562 c0 -5 7 -15 15 -22 8 -7 15 -8 15 -2 0 5 -7 15 -15 22 -8
7 -15 8 -15 2z"/>
<path d="M1050 2415 c0 -8 5 -15 10 -15 6 0 10 7 10 15 0 8 -4 15 -10 15 -5 0
-10 -7 -10 -15z"/>
<path d="M1062 2250 c0 -14 2 -19 5 -12 2 6 2 18 0 25 -3 6 -5 1 -5 -13z"/>
<path d="M2070 1935 c0 -143 2 -156 17 -153 16 3 17 18 16 153 -2 125 -5 151
-18 153 -13 3 -15 -18 -15 -153z"/>
<path d="M2134 1930 c0 -85 2 -120 3 -77 2 42 2 112 0 155 -1 42 -3 7 -3 -78z"/>
<path d="M1910 1895 c0 -57 3 -69 25 -90 29 -30 68 -32 95 -5 16 16 20 33 20
90 0 63 -2 70 -20 70 -16 0 -19 -8 -22 -62 -3 -55 -5 -63 -23 -63 -18 0 -20 8
-23 63 -3 58 -4 62 -27 62 -24 0 -25 -3 -25 -65z"/>
<path d="M1463 1853 c-15 -5 -17 -23 -4 -23 5 0 11 7 15 15 3 8 4 15 3 14 -1
0 -8 -3 -14 -6z"/>
<path d="M1061 1784 c0 -11 3 -14 6 -6 3 7 2 16 -1 19 -3 4 -6 -2 -5 -13z"/>
<path d="M1061 1684 c0 -11 3 -14 6 -6 3 7 2 16 -1 19 -3 4 -6 -2 -5 -13z"/>
<path d="M1713 1652 c-21 -17 -38 -45 -48 -77 -8 -27 -15 -50 -15 -50 0 0 18
0 41 0 37 0 40 1 34 22 -4 17 -2 21 9 17 11 -4 13 0 9 18 -5 22 -4 22 9 -2 8
-14 12 -27 8 -30 -8 -7 -6 -22 4 -39 7 -11 5 -13 -8 -8 -12 5 -28 -2 -48 -18
-20 -17 -42 -25 -68 -25 -40 0 -45 -6 -56 -75 -3 -16 -14 -66 -24 -110 -10
-44 -39 -179 -64 -300 -25 -121 -59 -285 -75 -365 -17 -80 -31 -150 -31 -157
0 -22 677 -11 750 12 11 4 20 15 20 26 0 11 7 22 15 25 8 4 15 14 14 23 0 10
-2 11 -6 4 -11 -29 -22 -10 -21 37 1 49 12 66 21 33 3 -10 5 20 5 67 1 60 -2
78 -8 63 -13 -33 -20 -28 -20 12 0 24 5 35 15 35 9 0 15 9 15 25 0 16 -6 25
-15 25 -11 0 -15 12 -15 45 0 31 5 47 15 51 8 4 15 16 15 28 -1 21 -1 21 -20
-3 -17 -20 -20 -21 -17 -5 1 11 6 24 9 30 4 6 3 25 -1 42 -6 20 -5 34 2 41 6
6 7 11 1 11 -13 0 -16 38 -3 45 5 4 9 13 9 21 0 8 -4 12 -10 9 -5 -3 -10 -1
-10 4 0 6 5 11 11 11 8 0 7 6 -2 17 -11 13 -11 17 -1 20 13 5 17 43 4 43 -14
0 -13 123 1 132 9 6 9 10 -2 17 -10 7 -13 26 -9 78 8 111 6 113 -105 113 -106
0 -144 -14 -115 -44 9 -9 21 -16 26 -16 16 0 24 -33 10 -41 -6 -4 -24 -1 -39
7 -16 8 -35 14 -44 14 -9 0 -18 7 -21 15 -6 16 -64 22 -64 7 0 -5 -7 -9 -15
-9 -8 0 -15 4 -15 8 0 14 24 23 53 20 18 -2 29 3 33 14 6 14 8 12 18 -7 6 -13
22 -24 34 -26 21 -3 22 -2 10 18 -11 19 -10 24 10 37 12 9 22 21 22 27 0 6 -5
4 -10 -4 -8 -13 -22 -9 -93 28 -46 23 -88 42 -93 42 -5 0 -24 -13 -41 -28z
m47 -6 c0 -3 -4 -8 -10 -11 -5 -3 -10 -1 -10 4 0 6 5 11 10 11 6 0 10 -2 10
-4z m-50 -60 c0 -2 -7 -7 -16 -10 -8 -3 -12 -2 -9 4 6 10 25 14 25 6z m100
-76 c-13 -24 -30 -26 -30 -4 0 8 4 13 9 9 5 -3 12 -1 16 5 11 19 16 10 5 -10z
m370 -841 c0 -30 -17 -22 -22 11 -4 24 -2 27 9 19 7 -7 13 -20 13 -30z"/>
<path d="M1930 1665 c-8 -9 -8 -15 -2 -15 12 0 26 19 19 26 -2 2 -10 -2 -17
-11z"/>
<path d="M2175 1570 c3 -5 8 -10 11 -10 2 0 4 5 4 10 0 6 -5 10 -11 10 -5 0
-7 -4 -4 -10z"/>
<path d="M1930 1510 c8 -5 20 -10 25 -10 6 0 3 5 -5 10 -8 5 -19 10 -25 10 -5
0 -3 -5 5 -10z"/>
<path d="M2183 1485 c0 -22 2 -30 4 -17 2 12 2 30 0 40 -3 9 -5 -1 -4 -23z"/>
<path d="M1135 1400 c-3 -5 1 -10 9 -10 9 0 16 5 16 10 0 6 -4 10 -9 10 -6 0
-13 -4 -16 -10z"/>
<path d="M1240 1379 c0 -27 -2 -30 -15 -19 -21 18 -18 0 5 -30 l20 -25 0 53
c0 28 -2 52 -5 52 -3 0 -5 -14 -5 -31z"/>
<path d="M1290 1360 c0 -46 2 -50 23 -49 16 1 18 2 5 6 -10 2 -18 13 -18 23 0
10 8 21 18 23 16 4 16 5 0 6 -19 1 -26 21 -8 21 6 0 10 5 10 10 0 6 -7 10 -15
10 -11 0 -15 -12 -15 -50z"/>
<path d="M1514 1395 c11 -8 22 -12 25 -9 6 6 -19 24 -34 24 -5 -1 -1 -7 9 -15z"/>
<path d="M2183 1370 c0 -25 2 -35 4 -22 2 12 2 32 0 45 -2 12 -4 2 -4 -23z"/>
<path d="M1191 1355 l1 -50 8 40 c5 22 4 44 -1 50 -5 5 -9 -11 -8 -40z"/>
<path d="M1371 1378 c-1 -21 4 -28 17 -28 11 0 13 3 6 8 -7 4 -14 16 -17 27
-4 15 -5 14 -6 -7z"/>
<path d="M1406 1387 c3 -10 9 -15 12 -12 3 3 0 11 -7 18 -10 9 -11 8 -5 -6z"/>
<path d="M1138 1363 c7 -3 16 -2 19 1 4 3 -2 6 -13 5 -11 0 -14 -3 -6 -6z"/>
<path d="M1518 1353 c19 -7 14 -23 -10 -33 -18 -8 -18 -9 -4 -7 10 1 25 12 34
25 14 21 13 22 -9 21 -13 0 -18 -3 -11 -6z"/>
<path d="M1371 1324 c0 -11 3 -14 6 -6 3 7 2 16 -1 19 -3 4 -6 -2 -5 -13z"/>
<path d="M1130 1320 c0 -6 7 -10 15 -10 8 0 15 2 15 4 0 2 -7 6 -15 10 -8 3
-15 1 -15 -4z"/>
<path d="M2175 1299 c-4 -12 -2 -26 4 -32 8 -8 11 -2 11 21 0 37 -6 41 -15 11z"/>
<path d="M2183 1210 c0 -25 2 -35 4 -22 2 12 2 32 0 45 -2 12 -4 2 -4 -23z"/>
<path d="M2184 1075 c0 -49 1 -71 3 -48 2 23 2 64 0 90 -2 26 -3 8 -3 -42z"/>
<path d="M2183 890 c0 -25 2 -35 4 -22 2 12 2 32 0 45 -2 12 -4 2 -4 -23z"/>
<path d="M2181 574 c0 -11 3 -14 6 -6 3 7 2 16 -1 19 -3 4 -6 -2 -5 -13z"/>
<path d="M2181 494 c0 -11 3 -14 6 -6 3 7 2 16 -1 19 -3 4 -6 -2 -5 -13z"/>
<path d="M1090 435 c0 -14 6 -28 14 -31 16 -6 11 -30 -11 -52 -7 -7 -13 -17
-13 -22 0 -15 70 -30 174 -37 l98 -6 -6 -36 c-4 -20 -9 -55 -13 -78 l-6 -43
129 -2 c317 -5 628 9 687 31 20 8 22 15 22 85 0 62 -3 75 -15 72 -14 -4 -60
-10 -160 -21 -78 -8 -616 -15 -626 -8 -9 6 -9 26 1 78 8 38 13 70 12 71 -3 2
-253 24 -272 24 -9 0 -15 -10 -15 -25z m90 -45 c0 -5 -2 -10 -4 -10 -3 0 -8 5
-11 10 -3 6 -1 10 4 10 6 0 11 -4 11 -10z m147 -17 c3 -8 0 -20 -6 -26 -10 -9
-16 -7 -30 9 -9 11 -23 23 -31 26 -8 3 2 6 23 6 25 0 40 -5 44 -15z m-147 -13
c0 -5 -5 -10 -11 -10 -5 0 -7 5 -4 10 3 6 8 10 11 10 2 0 4 -4 4 -10z"/>
<path d="M1300 370 c0 -5 5 -10 11 -10 5 0 7 5 4 10 -3 6 -8 10 -11 10 -2 0
-4 -4 -4 -10z"/>
<path d="M1060 440 c0 -5 5 -10 10 -10 6 0 10 5 10 10 0 6 -4 10 -10 10 -5 0
-10 -4 -10 -10z"/>
<path d="M2096 383 c-6 -14 -5 -15 5 -6 7 7 10 15 7 18 -3 3 -9 -2 -12 -12z"/>
<path d="M1573 365 c-3 -9 -3 -18 -1 -21 3 -3 8 4 11 16 6 23 -1 27 -10 5z"/>
<path d="M1675 370 c4 -6 11 -8 16 -5 14 9 11 15 -7 15 -8 0 -12 -5 -9 -10z"/>
<path d="M1717 373 c-14 -13 -6 -33 13 -33 13 0 20 7 20 20 0 19 -20 27 -33
13z m23 -13 c0 -5 -4 -10 -10 -10 -5 0 -10 5 -10 10 0 6 5 10 10 10 6 0 10 -4
10 -10z"/>
<path d="M1780 360 c0 -12 7 -20 18 -20 14 0 15 2 2 10 -13 9 -13 11 0 20 13
8 12 10 -2 10 -11 0 -18 -8 -18 -20z"/>
<path d="M1821 368 c-1 -21 15 -32 25 -17 4 7 3 9 -4 5 -6 -3 -13 2 -15 11 -4
16 -5 16 -6 1z"/>
<path d="M1621 354 c0 -11 3 -14 6 -6 3 7 2 16 -1 19 -3 4 -6 -2 -5 -13z"/>
<path d="M2185 250 c3 -5 8 -10 11 -10 2 0 4 5 4 10 0 6 -5 10 -11 10 -5 0 -7
-4 -4 -10z"/>
<path d="M2186 205 c-3 -9 -6 -22 -5 -28 0 -7 5 -1 10 12 5 13 8 26 5 28 -2 2
-6 -3 -10 -12z"/>
</g>
</svg>
