<?xml version="1.0" standalone="no"?>
<!DOCTYPE svg PUBLIC "-//W3C//DTD SVG 20010904//EN"
 "http://www.w3.org/TR/2001/REC-SVG-20010904/DTD/svg10.dtd">
<svg version="1.0" xmlns="http://www.w3.org/2000/svg"
 width="1024.000000pt" height="1024.000000pt" viewBox="0 0 1024.000000 1024.000000"
 preserveAspectRatio="xMidYMid meet">

<g transform="translate(0.000000,1024.000000) scale(0.100000,-0.100000)"
fill="#000000" stroke="none">
<path d="M6427 8800 c-74 -13 -196 -53 -191 -62 3 -4 -2 -5 -10 -2 -41 16
-389 -217 -370 -248 3 -5 0 -7 -7 -6 -11 3 -127 -125 -152 -168 -7 -12 -25
-40 -40 -63 -15 -23 -25 -47 -21 -53 4 -6 3 -8 -3 -5 -13 8 -101 -168 -137
-275 -44 -133 -90 -369 -118 -613 -16 -143 -16 -654 0 -805 27 -245 64 -488
99 -643 19 -89 38 -177 40 -195 4 -26 8 -30 19 -21 14 12 41 -8 62 -46 11 -19
11 -18 12 8 0 17 -9 35 -25 49 -27 23 -34 68 -11 68 8 0 17 -6 20 -12 3 -7 4
28 1 77 -2 50 -8 191 -12 315 -6 180 -9 208 -14 140 l-5 -85 -2 81 c-2 62 2
85 13 94 12 10 15 36 15 119 0 203 35 509 87 756 14 66 26 127 27 135 0 8 3
17 6 20 13 12 69 230 64 247 -4 13 -3 15 4 4 7 -10 14 -1 27 35 9 27 26 66 37
86 10 21 16 44 12 50 -4 7 -3 10 1 5 5 -4 24 22 42 58 36 72 39 80 21 69 -7
-4 -8 -3 -4 5 4 6 11 9 15 7 4 -3 18 14 31 37 45 80 110 164 195 255 48 51 79
89 69 86 -15 -5 -16 -4 -4 4 8 6 17 9 21 6 4 -2 25 7 46 22 76 52 156 85 276
115 67 17 129 33 137 36 8 3 29 7 46 9 43 4 269 61 324 81 57 21 104 53 93 63
-13 13 -123 70 -123 65 0 -3 -11 2 -25 11 -14 9 -32 14 -40 10 -9 -3 -14 -2
-11 3 8 12 -129 55 -149 47 -9 -3 -14 -2 -11 3 3 5 -7 12 -22 15 -47 11 -305
15 -355 6z m-102 -50 c-3 -5 -1 -10 6 -10 7 0 10 -2 8 -5 -3 -2 -16 -1 -29 2
-22 6 -23 7 -4 14 26 10 26 10 19 -1z m68 -7 c-7 -2 -19 -2 -25 0 -7 3 -2 5
12 5 14 0 19 -2 13 -5z m464 -9 c-3 -3 -12 -4 -19 -1 -8 3 -5 6 6 6 11 1 17
-2 13 -5z m218 -58 l30 -13 -32 1 c-17 1 -29 4 -27 8 2 4 -6 9 -18 11 -19 4
-20 4 -3 5 11 1 34 -5 50 -12z m-940 -26 c3 -6 -1 -7 -9 -4 -18 7 -21 14 -7
14 6 0 13 -4 16 -10z m1015 -15 c0 -2 -7 -2 -15 2 -10 3 -15 1 -13 -7 2 -7
-16 -21 -39 -31 -24 -10 -43 -15 -43 -10 0 4 18 13 39 20 32 9 39 16 36 31 -3
17 -1 19 16 10 10 -6 19 -13 19 -15z m-1153 -50 c0 -8 -4 -12 -9 -9 -5 3 -6
10 -3 15 9 13 12 11 12 -6z m-87 -58 c0 -2 -10 -12 -22 -23 l-23 -19 19 23
c18 21 26 27 26 19z m218 -301 c-7 -8 -15 -12 -17 -11 -5 6 10 25 20 25 5 0 4
-6 -3 -14z m-461 -28 c-3 -8 -6 -5 -6 6 -1 11 2 17 5 13 3 -3 4 -12 1 -19z
m-83 -188 c-5 -5 -10 3 -11 18 -1 22 0 24 9 8 6 -10 6 -22 2 -26z m110 -136
c9 -3 16 -12 16 -20 0 -8 7 -14 15 -14 11 0 15 -11 15 -40 l0 -40 -81 0 -80 0
3 47 c2 39 7 50 28 60 27 14 59 16 84 7z m161 -34 c3 -5 1 -10 -4 -10 -6 0
-11 5 -11 10 0 6 2 10 4 10 3 0 8 -4 11 -10z m-358 -72 c-3 -8 -6 -5 -6 6 -1
11 2 17 5 13 3 -3 4 -12 1 -19z m-19 -23 c-3 -3 -9 2 -12 12 -6 14 -5 15 5 6
7 -7 10 -15 7 -18z m-21 -57 c-3 -8 -6 -5 -6 6 -1 11 2 17 5 13 3 -3 4 -12 1
-19z m240 -300 c-3 -8 -6 -5 -6 6 -1 11 2 17 5 13 3 -3 4 -12 1 -19z m-50
-230 c-3 -8 -6 -5 -6 6 -1 11 2 17 5 13 3 -3 4 -12 1 -19z m-20 -140 c-3 -8
-6 -5 -6 6 -1 11 2 17 5 13 3 -3 4 -12 1 -19z m-207 -553 c0 -5 -5 -3 -10 5
-8 12 -10 12 -10 1 0 -8 -2 -12 -5 -9 -3 3 -2 13 1 22 5 14 9 15 15 4 5 -7 9
-17 9 -23z m7 -237 c-3 -8 -6 -5 -6 6 -1 11 2 17 5 13 3 -3 4 -12 1 -19z m50
-295 c-3 -10 -5 -4 -5 12 0 17 2 24 5 18 2 -7 2 -21 0 -30z m20 -85 c-3 -7 -5
-2 -5 12 0 14 2 19 5 13 2 -7 2 -19 0 -25z"/>
<path d="M5652 7859 c-27 -10 -58 -39 -43 -39 6 0 11 -11 11 -25 0 -22 4 -25
33 -25 55 0 76 41 40 79 -14 14 -24 17 -41 10z m-2 -69 c0 -5 -5 -10 -11 -10
-5 0 -7 5 -4 10 3 6 8 10 11 10 2 0 4 -4 4 -10z"/>
<path d="M7735 7300 c33 -5 71 -12 85 -15 19 -4 21 -3 9 4 -8 6 -47 12 -85 15
l-69 5 60 -9z"/>
<path d="M7466 7261 c-4 -5 3 -7 14 -4 23 6 26 13 6 13 -8 0 -17 -4 -20 -9z"/>
<path d="M7934 7256 c11 -9 24 -16 30 -16 12 0 7 5 -24 19 -24 11 -24 11 -6
-3z"/>
<path d="M7628 7253 c7 -3 16 -2 19 1 4 3 -2 6 -13 5 -11 0 -14 -3 -6 -6z"/>
<path d="M7385 7226 c-66 -32 -53 -33 16 -2 30 14 50 25 44 25 -5 1 -32 -10
-60 -23z"/>
<path d="M7485 7230 c27 -12 43 -12 25 0 -8 5 -22 9 -30 9 -10 0 -8 -3 5 -9z"/>
<path d="M7608 7223 c6 -2 18 -2 25 0 6 3 1 5 -13 5 -14 0 -19 -2 -12 -5z"/>
<path d="M7958 7223 c7 -3 16 -2 19 1 4 3 -2 6 -13 5 -11 0 -14 -3 -6 -6z"/>
<path d="M7997 7216 c-4 -10 -1 -13 8 -10 8 3 22 -4 32 -15 9 -12 21 -21 26
-21 8 0 -16 27 -44 48 -14 10 -18 10 -22 -2z"/>
<path d="M7468 7213 c6 -2 9 -10 5 -16 -4 -7 0 -8 11 -4 10 4 23 7 29 8 17 1
-25 18 -43 18 -10 -1 -11 -2 -2 -6z"/>
<path d="M7430 7155 c-7 -9 -8 -15 -2 -15 5 0 12 7 16 15 3 8 4 15 2 15 -2 0
-9 -7 -16 -15z"/>
<path d="M8015 7160 c3 -5 8 -10 11 -10 2 0 4 5 4 10 0 6 -5 10 -11 10 -5 0
-7 -4 -4 -10z"/>
<path d="M7245 7150 c-3 -6 1 -7 9 -4 18 7 21 14 7 14 -6 0 -13 -4 -16 -10z"/>
<path d="M7300 7151 c0 -5 7 -12 16 -15 24 -9 28 -7 14 9 -14 17 -30 20 -30 6z"/>
<path d="M8095 7140 c10 -11 20 -18 23 -15 7 6 -18 35 -31 35 -5 0 -2 -9 8
-20z"/>
<path d="M7156 7081 c-13 -14 -14 -21 -5 -27 7 -4 10 -3 5 4 -4 6 5 18 21 26
17 9 22 15 12 16 -9 0 -24 -9 -33 -19z"/>
<path d="M8130 7090 c0 -5 5 -10 11 -10 5 0 7 5 4 10 -3 6 -8 10 -11 10 -2 0
-4 -4 -4 -10z"/>
<path d="M7340 7070 c0 -5 5 -10 10 -10 6 0 10 5 10 10 0 6 -4 10 -10 10 -5 0
-10 -4 -10 -10z"/>
<path d="M8160 7068 c0 -4 9 -23 21 -42 23 -40 22 -41 -43 -36 -16 1 -28 -2
-28 -7 0 -7 22 -8 83 -4 23 1 22 15 -8 59 -14 20 -25 34 -25 30z"/>
<path d="M7091 7025 c-17 -20 -31 -39 -31 -43 0 -4 11 5 24 20 13 15 27 24 31
20 4 -4 5 0 3 8 -2 8 3 14 10 12 8 -1 11 2 7 8 -9 14 -10 14 -44 -25z"/>
<path d="M7225 6970 c-3 -5 1 -10 9 -10 9 0 16 5 16 10 0 6 -4 10 -9 10 -6 0
-13 -4 -16 -10z"/>
<path d="M7788 6953 c7 -3 16 -2 19 1 4 3 -2 6 -13 5 -11 0 -14 -3 -6 -6z"/>
<path d="M7670 6940 c0 -5 7 -7 15 -4 8 4 15 8 15 10 0 2 -7 4 -15 4 -8 0 -15
-4 -15 -10z"/>
<path d="M7748 6943 c7 -3 16 -2 19 1 4 3 -2 6 -13 5 -11 0 -14 -3 -6 -6z"/>
<path d="M6990 6908 c-19 -27 -20 -30 -3 -15 11 9 23 14 27 10 4 -4 4 1 0 11
-6 15 -4 17 6 11 9 -5 11 -4 6 3 -10 16 -9 16 -36 -20z"/>
<path d="M7629 6895 c-20 -13 -40 -21 -44 -17 -5 4 -5 1 -1 -5 5 -9 16 -7 44
11 20 12 44 25 52 29 13 5 13 6 0 6 -9 1 -32 -10 -51 -24z"/>
<path d="M7026 6893 c-6 -14 -5 -15 5 -6 7 7 10 15 7 18 -3 3 -9 -2 -12 -12z"/>
<path d="M7155 6890 c-3 -5 -1 -10 4 -10 6 0 11 5 11 10 0 6 -2 10 -4 10 -3 0
-8 -4 -11 -10z"/>
<path d="M7483 6805 c-6 -14 -7 -23 -2 -19 13 8 31 44 22 44 -4 0 -13 -11 -20
-25z"/>
<path d="M6968 6803 c6 -2 18 -2 25 0 6 3 1 5 -13 5 -14 0 -19 -2 -12 -5z"/>
<path d="M6910 6775 c0 -5 5 -17 10 -25 5 -8 10 -10 10 -5 0 6 -5 17 -10 25
-5 8 -10 11 -10 5z"/>
<path d="M7418 6750 c-20 -17 -42 -29 -49 -28 -6 2 -13 -5 -14 -15 -3 -16 -1
-15 23 2 42 31 88 70 82 71 -3 0 -22 -14 -42 -30z"/>
<path d="M7370 6750 c0 -5 5 -10 10 -10 6 0 10 5 10 10 0 6 -4 10 -10 10 -5 0
-10 -4 -10 -10z"/>
<path d="M6857 6665 c3 -8 9 -12 14 -9 12 7 11 11 -5 17 -10 4 -13 1 -9 -8z"/>
<path d="M7309 6659 c-23 -19 -23 -20 -2 -10 12 6 25 16 28 21 10 16 -1 12
-26 -11z"/>
<path d="M7225 6583 c-16 -15 -36 -28 -45 -28 -10 0 -14 -8 -13 -22 2 -13 -2
-23 -7 -23 -6 0 -10 4 -10 8 0 5 -6 16 -13 26 -12 16 -13 16 -13 -3 0 -11 2
-18 5 -16 2 3 9 -3 16 -12 15 -21 38 -7 30 18 -6 18 9 28 17 11 2 -4 18 9 37
30 39 45 38 49 -4 11z"/>
<path d="M6856 6584 c-8 -21 -8 -21 8 -21 8 0 11 8 8 19 -5 22 -8 23 -16 2z"/>
<path d="M7135 6480 c-4 -6 -11 -7 -17 -4 -7 4 -8 2 -4 -5 6 -9 11 -9 22 0 14
11 18 19 10 19 -3 0 -8 -5 -11 -10z"/>
<path d="M6776 6445 c8 -37 14 -45 14 -19 0 10 -5 26 -10 34 -8 11 -9 7 -4
-15z"/>
<path d="M6720 6403 c-13 -26 -27 -56 -33 -67 -6 -13 -6 -16 2 -12 6 4 11 2
11 -4 0 -6 5 -8 11 -4 8 5 8 9 -1 14 -9 5 -5 21 14 61 14 29 24 55 22 57 -2 2
-14 -19 -26 -45z"/>
<path d="M7090 6435 c-7 -9 -8 -15 -2 -15 5 0 12 7 16 15 3 8 4 15 2 15 -2 0
-9 -7 -16 -15z"/>
<path d="M7050 6419 c0 -5 5 -7 10 -4 6 3 10 8 10 11 0 2 -4 4 -10 4 -5 0 -10
-5 -10 -11z"/>
<path d="M7045 6391 c4 -7 -1 -22 -12 -34 -11 -12 -23 -29 -28 -37 -4 -8 7 1
24 20 34 39 37 45 19 56 -7 5 -8 3 -3 -5z"/>
<path d="M6987 6350 c3 -11 7 -20 9 -20 2 0 4 9 4 20 0 11 -4 20 -9 20 -5 0
-7 -9 -4 -20z"/>
<path d="M6670 6285 c-7 -9 -10 -18 -7 -21 3 -3 10 4 17 15 13 25 8 27 -10 6z"/>
<path d="M6950 6235 c-9 -11 -16 -12 -26 -4 -9 8 -15 5 -24 -11 -6 -12 -9 -24
-7 -27 3 -2 8 6 12 18 7 20 9 21 19 7 10 -13 13 -12 29 8 20 26 17 33 -3 9z"/>
<path d="M6627 6181 c-4 -17 -3 -21 5 -13 5 5 8 16 6 23 -3 8 -7 3 -11 -10z"/>
<path d="M6864 6108 c-21 -29 -46 -80 -41 -84 2 -2 16 18 30 46 25 48 30 64
11 38z"/>
<path d="M6588 6065 c-4 -16 -9 -39 -12 -50 -4 -11 1 -5 9 14 9 18 14 41 13
50 -2 9 -7 3 -10 -14z"/>
<path d="M6816 6074 c-9 -24 -2 -26 12 -4 7 11 8 20 3 20 -5 0 -12 -7 -15 -16z"/>
<path d="M6784 5970 c-15 -22 -25 -42 -23 -45 3 -2 17 16 32 40 33 56 27 59
-9 5z"/>
<path d="M6745 5899 c-4 -6 -5 -12 -2 -15 2 -3 7 2 10 11 7 17 1 20 -8 4z"/>
<path d="M6536 5875 c4 -8 8 -15 10 -15 2 0 4 7 4 15 0 8 -4 15 -10 15 -5 0
-7 -7 -4 -15z"/>
<path d="M6520 5851 c0 -6 4 -13 10 -16 6 -3 7 1 4 9 -7 18 -14 21 -14 7z"/>
<path d="M6700 5819 c0 -5 5 -7 10 -4 6 3 10 8 10 11 0 2 -4 4 -10 4 -5 0 -10
-5 -10 -11z"/>
<path d="M6542 5800 c0 -14 2 -19 5 -12 2 6 2 18 0 25 -3 6 -5 1 -5 -13z"/>
<path d="M6687 5793 c-4 -3 -7 -11 -7 -17 0 -6 5 -5 12 2 6 6 9 14 7 17 -3 3
-9 2 -12 -2z"/>
<path d="M6651 5774 c0 -11 3 -14 6 -6 3 7 2 16 -1 19 -3 4 -6 -2 -5 -13z"/>
<path d="M6522 5740 c0 -14 2 -19 5 -12 2 6 2 18 0 25 -3 6 -5 1 -5 -13z"/>
<path d="M6491 5740 c-1 -8 -4 -26 -7 -40 -5 -22 -4 -23 6 -7 6 10 9 28 7 40
-2 12 -5 15 -6 7z"/>
<path d="M6511 5694 c0 -11 3 -14 6 -6 3 7 2 16 -1 19 -3 4 -6 -2 -5 -13z"/>
<path d="M6471 5654 c0 -11 3 -14 6 -6 3 7 2 16 -1 19 -3 4 -6 -2 -5 -13z"/>
<path d="M6461 5614 c0 -11 3 -14 6 -6 3 7 2 16 -1 19 -3 4 -6 -2 -5 -13z"/>
<path d="M5530 5608 c-1 -18 21 -59 29 -54 5 3 15 -1 22 -10 10 -12 10 -22 1
-48 -16 -45 -6 -96 20 -96 18 0 20 6 16 58 -2 46 -9 63 -31 88 -15 18 -34 40
-42 50 -8 11 -15 16 -15 12z"/>
<path d="M6586 5575 c-9 -26 -7 -32 5 -12 6 10 9 21 6 23 -2 3 -7 -2 -11 -11z"/>
<path d="M6451 5564 c0 -11 3 -14 6 -6 3 7 2 16 -1 19 -3 4 -6 -2 -5 -13z"/>
<path d="M6462 5525 c0 -11 3 -29 8 -40 11 -25 11 1 0 35 -6 20 -8 21 -8 5z"/>
<path d="M6432 5465 c0 -16 2 -22 5 -12 2 9 2 23 0 30 -3 6 -5 -1 -5 -18z"/>
<path d="M6530 5475 c0 -8 2 -15 4 -15 2 0 6 7 10 15 3 8 1 15 -4 15 -6 0 -10
-7 -10 -15z"/>
<path d="M3096 5450 c-335 -53 -680 -250 -746 -426 -32 -86 -18 -176 30 -201
34 -17 49 -6 165 113 89 91 110 107 195 148 52 25 140 58 195 73 92 25 114 28
280 28 211 0 270 -12 407 -82 64 -33 102 -61 143 -105 134 -145 167 -311 97
-491 -26 -68 -113 -211 -159 -263 -52 -57 -224 -256 -259 -299 -37 -45 -134
-189 -134 -199 0 -2 26 -19 58 -36 69 -39 66 -36 57 -50 -4 -7 -25 0 -61 21
-60 34 -90 33 -79 -3 4 -13 19 -35 33 -51 19 -19 23 -30 15 -38 -8 -8 -19 -1
-39 24 -15 20 -32 33 -36 31 -5 -3 -1 -12 7 -20 26 -26 19 -69 -16 -98 -30
-26 -31 -28 -14 -46 26 -28 8 -46 -20 -20 l-23 21 -16 -72 c-23 -103 -21 -265
5 -359 39 -144 130 -279 254 -377 259 -206 641 -293 1284 -293 541 0 1133 24
1651 65 102 8 242 15 311 15 167 0 318 16 384 41 62 23 106 68 141 143 29 62
30 97 4 121 -18 17 -28 17 -212 1 -843 -70 -1128 -86 -1663 -93 -725 -9 -1185
20 -1410 88 -222 68 -381 200 -458 382 -26 62 -31 87 -34 182 -2 61 0 116 5
123 6 9 19 10 58 1 69 -16 2092 -24 2349 -9 514 29 942 105 1294 231 62 23
137 53 166 68 155 81 291 214 357 350 39 81 42 92 42 176 1 77 -3 98 -25 145
-88 187 -330 288 -809 340 -131 14 -553 15 -765 0 -536 -35 -852 -70 -1495
-165 -129 -19 -289 -39 -355 -45 -66 -6 -135 -13 -152 -16 -18 -4 -33 -4 -33
-1 0 4 12 52 26 108 35 138 36 277 4 375 -70 210 -239 344 -530 421 -77 20
-125 25 -255 28 -88 2 -186 0 -219 -5z m1301 -916 c-3 -3 -12 -4 -19 -1 -8 3
-5 6 6 6 11 1 17 -2 13 -5z m2558 -78 c137 -22 235 -50 330 -95 225 -105 244
-229 54 -342 -81 -49 -231 -111 -321 -135 -172 -44 -540 -100 -853 -129 -399
-36 -503 -40 -1215 -40 -632 0 -731 2 -850 18 -74 10 -222 21 -327 24 -106 3
-193 8 -193 10 0 8 36 59 50 70 13 11 12 12 -8 13 -29 0 -72 42 -72 70 0 28
43 70 73 70 31 0 72 -43 63 -66 -6 -16 -5 -16 14 1 11 10 18 20 15 23 -3 3 5
12 18 21 22 16 21 16 -23 21 -40 4 -45 8 -48 32 -4 31 32 58 51 39 7 -7 5 -12
-6 -17 -29 -11 -19 -24 17 -24 19 0 36 -5 38 -11 2 -6 31 28 63 75 33 48 67
95 75 106 12 16 73 29 355 74 549 90 759 120 1070 155 466 52 608 60 1100 56
339 -2 451 -6 530 -19z m-3450 -540 c15 6 17 3 12 -17 -9 -35 31 -80 63 -72
17 4 21 2 18 -8 -9 -28 -55 -22 -84 10 -15 17 -33 31 -39 31 -13 0 -27 49 -18
63 3 4 11 3 18 -3 7 -6 20 -7 30 -4z m-21 -97 c28 -22 33 -48 15 -82 -16 -29
-28 -37 -61 -37 -30 0 -68 40 -68 72 0 10 11 30 25 43 30 30 54 31 89 4z"/>
<path d="M3584 3946 c-3 -9 -3 -27 0 -41 12 -49 81 -24 74 27 -2 18 -10 24
-36 26 -22 2 -34 -2 -38 -12z"/>
<path d="M3428 3812 c-21 -4 -32 -35 -23 -63 5 -16 14 -19 38 -17 27 3 32 7
35 33 3 33 -20 54 -50 47z"/>
<path d="M6462 5430 c0 -19 2 -27 5 -17 2 9 2 25 0 35 -3 9 -5 1 -5 -18z"/>
<path d="M6500 5453 c0 -6 8 -17 18 -24 16 -13 16 -13 2 6 -8 11 -16 22 -17
24 -2 2 -3 0 -3 -6z"/>
<path d="M6427 5413 c-4 -3 -7 -11 -7 -17 0 -6 5 -5 12 2 6 6 9 14 7 17 -3 3
-9 2 -12 -2z"/>
<path d="M6451 5368 c0 -9 -4 -25 -7 -35 -5 -14 -4 -15 5 -7 7 7 11 22 8 35
-2 13 -5 16 -6 7z"/>
<path d="M6412 5345 c0 -16 2 -22 5 -12 2 9 2 23 0 30 -3 6 -5 -1 -5 -18z"/>
<path d="M6470 5325 c-6 -8 -10 -19 -8 -26 2 -6 9 0 16 15 13 29 10 33 -8 11z"/>
<path d="M6403 5276 c0 -18 3 -24 9 -18 7 7 7 16 0 28 -8 14 -9 13 -9 -10z"/>
<path d="M6447 5263 c3 -7 6 -13 8 -13 2 0 5 6 8 13 3 8 -1 14 -8 14 -7 0 -11
-6 -8 -14z"/>
<path d="M6392 5210 c0 -14 2 -19 5 -12 2 6 2 18 0 25 -3 6 -5 1 -5 -13z"/>
<path d="M6416 5205 c-9 -26 -7 -32 5 -12 6 10 9 21 6 23 -2 3 -7 -2 -11 -11z"/>
<path d="M3226 3576 c-20 -47 -20 -52 -1 -36 8 7 15 9 16 4 0 -5 4 2 10 14 5
14 5 30 0 40 -7 13 -12 9 -25 -22z"/>
<path d="M4525 2073 c-11 -2 -56 -11 -100 -19 -317 -59 -541 -235 -594 -464
-18 -76 -13 -181 13 -282 66 -261 235 -453 430 -489 220 -40 496 136 578 370
24 68 26 186 5 254 -44 140 -218 297 -329 297 -69 0 -114 -35 -150 -117 -31
-71 -17 -97 98 -181 141 -102 179 -212 103 -290 -75 -77 -217 -66 -317 23 -28
25 -68 74 -90 108 -180 285 -51 516 298 534 79 5 115 1 215 -21 160 -36 252
-43 290 -23 69 35 145 136 144 192 0 50 -53 76 -204 100 -82 14 -340 19 -390
8z"/>
<path d="M6535 2065 c-203 -33 -386 -117 -495 -229 -52 -53 -56 -70 -17 -74
28 -3 36 -17 15 -25 -21 -7 42 -68 64 -61 12 3 18 0 18 -10 0 -8 -10 -18 -22
-22 -18 -5 -29 1 -55 31 -17 20 -36 34 -42 31 -6 -4 -13 5 -17 19 -9 35 -20
31 -45 -16 -11 -23 -16 -39 -12 -36 32 20 63 14 88 -14 31 -38 31 -51 2 -85
-29 -33 -73 -36 -98 -5 -12 15 -20 18 -25 10 -6 -11 9 -28 45 -48 25 -15 3
-32 -24 -19 -14 6 -28 8 -32 5 -12 -13 17 -189 46 -273 80 -237 234 -395 412
-423 135 -22 277 22 401 123 221 180 261 475 89 654 -164 170 -297 188 -374
51 -47 -82 -35 -120 55 -185 123 -88 168 -147 168 -223 0 -61 -30 -102 -95
-127 -135 -51 -285 38 -377 223 -38 76 -43 96 -47 165 -4 100 14 152 74 207
115 106 303 137 526 85 69 -16 146 -27 196 -28 76 -1 83 1 119 30 72 58 98 99
99 157 0 52 0 52 -45 74 -98 49 -406 68 -595 38z m-297 -163 c2 -7 -3 -12 -12
-12 -9 0 -16 -7 -16 -16 0 -12 7 -14 29 -9 20 4 34 1 45 -10 21 -21 20 -31 -5
-56 -16 -16 -24 -18 -32 -9 -9 8 -8 14 6 21 28 16 20 32 -13 26 -19 -4 -34 -1
-45 9 -19 20 -19 33 2 56 18 20 34 20 41 0z m-50 -82 c28 -26 28 -69 2 -98
-24 -26 -57 -28 -88 -6 -46 32 -15 124 43 124 12 0 31 -9 43 -20z"/>
<path d="M6110 1795 c-17 -21 -5 -61 21 -68 25 -7 59 12 59 31 0 45 -53 70
-80 37z"/>
<path d="M5944 1652 c-23 -15 -25 -48 -4 -67 18 -17 21 -17 45 -1 28 18 30 28
15 57 -11 19 -36 25 -56 11z"/>
</g>
</svg>
