<?xml version="1.0" standalone="no"?>
<!DOCTYPE svg PUBLIC "-//W3C//DTD SVG 20010904//EN"
 "http://www.w3.org/TR/2001/REC-SVG-20010904/DTD/svg10.dtd">
<svg version="1.0" xmlns="http://www.w3.org/2000/svg"
 width="474.000000pt" height="474.000000pt" viewBox="0 0 474.000000 474.000000"
 preserveAspectRatio="xMidYMid meet">

<g transform="translate(0.000000,474.000000) scale(0.100000,-0.100000)"
fill="#000000" stroke="none">
<path d="M1655 3848 c-11 -28 31 -93 73 -109 12 -5 32 -5 46 1 l24 9 -21 -33
c-17 -26 -25 -31 -35 -23 -11 8 -10 3 1 -24 15 -34 18 -36 50 -24 11 5 17 2
17 -8 0 -14 -100 -57 -134 -57 -27 0 -57 -33 -45 -50 7 -10 12 -11 15 -4 4 9
13 8 33 -2 21 -11 75 -14 210 -15 224 0 324 8 317 27 -3 9 2 14 13 14 11 0 31
14 44 30 34 40 58 40 53 0 -6 -50 13 -64 90 -66 93 -2 142 5 148 23 3 8 1 11
-4 8 -22 -13 -8 7 26 39 23 22 43 32 53 29 9 -4 13 -3 9 1 -7 8 33 52 44 49 3
-1 11 12 17 29 13 38 14 51 2 43 -5 -3 -16 1 -24 9 -12 13 -16 12 -26 -8 -12
-22 -41 -32 -41 -14 0 4 7 8 16 8 9 0 12 5 8 12 -4 6 -3 8 3 5 6 -4 14 4 17
18 4 14 11 25 16 25 5 0 7 -6 4 -13 -3 -8 2 -20 11 -27 9 -7 15 -8 15 -2 0 6
13 9 31 7 21 -3 29 0 26 8 -2 7 -15 11 -28 9 -16 -2 -20 0 -11 6 11 7 11 11 0
19 -20 15 -78 33 -78 24 0 -16 -36 -6 -60 17 -18 17 -36 22 -76 22 -29 0 -56
-4 -59 -10 -3 -5 -15 -10 -26 -10 -11 0 -17 5 -14 10 4 6 -15 10 -49 10 l-55
0 11 -31 c6 -16 7 -33 3 -37 -9 -9 -35 27 -35 50 0 17 -17 18 -294 18 -166 0
-297 -4 -300 -9 -8 -13 4 -42 14 -36 10 6 25 -34 16 -43 -10 -9 -24 10 -40 53
-10 30 -16 36 -21 23z m440 -88 c21 -22 45 -39 52 -37 7 1 19 -9 26 -22 9 -18
41 -46 53 -46 1 0 4 -10 8 -21 5 -17 3 -22 -11 -20 -13 1 -17 -5 -15 -22 2
-21 1 -22 -14 -8 -8 9 -22 16 -30 16 -8 0 -14 7 -14 15 0 7 -8 19 -17 24 -10
6 -12 11 -5 11 23 0 11 25 -38 79 -28 30 -50 58 -50 63 0 17 17 7 55 -32z
m445 26 c0 -2 -7 -7 -16 -10 -8 -3 -12 -2 -9 4 6 10 25 14 25 6z m-13 -43
c-16 -16 -17 -16 -17 0 0 10 5 15 10 12 6 -3 10 -1 10 6 0 7 3 9 7 5 4 -3 -1
-14 -10 -23z m47 -34 c-12 -11 -36 -23 -55 -26 l-34 -5 45 35 c48 37 82 34 44
-4z m19 -23 c-7 -13 -40 -41 -88 -76 -19 -14 -19 -14 -6 3 7 9 9 17 3 17 -5 0
-12 6 -15 13 -3 9 6 13 30 14 22 1 44 9 56 22 25 24 31 27 20 7z"/>
<path d="M2567 3733 c-4 -3 -7 -11 -7 -17 0 -6 5 -5 12 2 6 6 9 14 7 17 -3 3
-9 2 -12 -2z"/>
<path d="M1615 3840 c3 -5 10 -10 16 -10 5 0 9 5 9 10 0 6 -7 10 -16 10 -8 0
-12 -4 -9 -10z"/>
<path d="M1308 3828 c-16 -5 -28 -14 -28 -19 0 -12 2 -12 38 7 49 24 42 32
-10 12z"/>
<path d="M1368 3833 c6 -2 18 -2 25 0 6 3 1 5 -13 5 -14 0 -19 -2 -12 -5z"/>
<path d="M3203 3726 c-24 -20 -28 -32 -27 -71 1 -54 30 -91 80 -101 24 -4 37
0 62 21 27 22 32 34 32 69 0 59 -34 107 -75 105 l-20 -1 20 -5 c28 -7 55 -33
55 -53 0 -17 -56 -77 -65 -69 -9 9 -25 111 -19 120 11 18 -15 8 -43 -15z m26
-77 c11 -67 -1 -83 -28 -38 -24 39 -25 49 -9 84 15 34 27 20 37 -46z m111 -8
c0 -33 -39 -71 -73 -71 l-31 0 44 45 c48 49 60 54 60 26z"/>
<path d="M2718 3724 c0 -10 0 -27 0 -37 1 -10 -3 -15 -8 -12 -6 3 -10 2 -10
-4 0 -17 18 -22 24 -6 3 8 15 15 26 15 12 0 28 7 36 15 14 13 14 15 0 15 -10
0 -13 6 -10 15 4 10 0 15 -10 15 -9 0 -16 -6 -14 -12 2 -7 -2 -14 -7 -15 -6
-2 -10 1 -10 6 0 19 -15 24 -17 5z"/>
<path d="M2662 3634 c-18 -19 -11 -49 11 -48 11 1 20 -8 23 -23 4 -14 12 -22
20 -19 34 13 82 17 88 7 4 -6 16 -11 27 -11 10 0 19 -5 19 -10 0 -6 11 -15 24
-20 29 -11 98 -2 90 12 -4 6 5 8 25 3 34 -7 38 0 16 29 -8 11 -15 28 -15 38 0
10 -7 18 -16 18 -8 0 -13 4 -10 8 2 4 -3 8 -12 8 -9 0 -30 3 -45 7 -21 6 -27
5 -22 -4 5 -8 1 -9 -15 -4 -34 11 -150 11 -150 1 0 -6 -7 -1 -16 10 -13 16
-15 16 -10 2 3 -10 1 -18 -4 -18 -5 0 -10 6 -12 14 -3 12 -5 12 -16 0z m123
-52 c-3 -3 -11 0 -18 7 -9 10 -8 11 6 5 10 -3 15 -9 12 -12z m-55 -12 c0 -5
-5 -10 -11 -10 -5 0 -7 5 -4 10 3 6 8 10 11 10 2 0 4 -4 4 -10z"/>
<path d="M3337 3565 c-31 -30 -57 -60 -57 -67 0 -10 2 -10 9 1 6 9 11 10 15 2
9 -14 58 8 52 25 -2 6 3 11 12 10 13 -1 16 6 14 26 -2 18 4 31 20 42 16 11 18
16 7 16 -8 0 -41 -25 -72 -55z"/>
<path d="M3034 3591 c11 -11 23 -21 28 -21 14 0 -1 19 -25 31 -22 12 -22 12
-3 -10z"/>
<path d="M3390 3569 c0 -5 5 -7 10 -4 6 3 10 8 10 11 0 2 -4 4 -10 4 -5 0 -10
-5 -10 -11z"/>
<path d="M2780 3540 c0 -5 5 -10 10 -10 6 0 10 5 10 10 0 6 -4 10 -10 10 -5 0
-10 -4 -10 -10z"/>
<path d="M1277 3523 c-4 -3 -7 -11 -7 -17 0 -6 5 -5 12 2 6 6 9 14 7 17 -3 3
-9 2 -12 -2z"/>
<path d="M1319 3523 c-16 -4 -59 -79 -59 -102 0 -24 18 -10 24 19 8 41 26 38
26 -5 0 -19 5 -35 10 -35 6 0 10 23 10 50 0 58 18 74 50 45 14 -13 20 -14 20
-5 0 28 -40 44 -81 33z"/>
<path d="M1981 3454 c-14 -6 -35 -21 -45 -33 -19 -21 -25 -22 -302 -21 -335 1
-394 -8 -394 -64 0 -12 14 -35 31 -52 36 -34 34 -66 -8 -126 -14 -21 -23 -41
-20 -44 31 -32 2201 -43 2232 -12 4 4 -7 29 -24 56 -38 59 -40 94 -6 120 17
14 25 30 25 51 0 57 -9 58 -570 65 -278 3 -565 7 -637 7 -73 1 -133 3 -133 6
0 11 28 32 34 25 4 -3 4 1 0 11 -8 22 -20 22 -34 0 -9 -16 -10 -15 -5 5 7 24
-9 29 -35 11 -13 -9 -12 -10 2 -5 12 3 15 1 12 -9 -5 -11 -10 -12 -24 -3 -10
7 -17 15 -15 19 7 10 -55 5 -84 -7z m47 -34 c11 -18 10 -19 -13 -8 -13 6 -22
15 -19 19 8 14 18 11 32 -11z m92 -10 c0 -5 -2 -10 -4 -10 -3 0 -8 5 -11 10
-3 6 -1 10 4 10 6 0 11 -4 11 -10z"/>
<path d="M1230 1958 l0 -1105 38 -26 c148 -100 583 -153 1181 -144 464 7 714
37 786 94 40 32 45 48 12 40 -25 -7 -41 1 -51 23 -3 8 -4 -1 -1 -20 5 -32 4
-33 -11 -18 -23 23 -29 140 -8 180 13 26 20 29 45 24 27 -5 29 -3 29 24 0 31
3 34 41 43 19 5 33 0 56 -22 35 -32 54 -75 29 -65 -13 5 -16 -1 -16 -30 0 -29
3 -34 17 -29 13 5 15 2 10 -11 -4 -10 -7 -20 -7 -22 0 -3 -5 -2 -11 1 -6 4
-13 -2 -16 -14 -3 -12 -11 -21 -18 -21 -15 0 -55 -51 -55 -69 0 -18 -35 -48
-51 -43 -11 3 -11 2 1 -7 8 -6 30 -11 48 -11 25 0 32 4 32 19 0 11 9 23 20 26
11 4 20 15 20 26 0 22 29 83 36 76 3 -2 0 -17 -6 -32 -6 -15 -9 -30 -6 -32 7
-7 60 24 82 49 l21 23 6 1078 6 1077 -72 1 c-99 2 -187 -1 -217 -7 -25 -4 -25
-6 -22 -92 2 -59 0 -84 -7 -77 -5 6 -11 45 -13 88 l-3 78 -185 5 c-102 2 -484
6 -850 9 -366 2 -716 7 -777 11 l-113 7 0 -1105z m188 915 c-2 -46 1 -79 7
-81 6 -2 17 32 25 75 11 57 20 79 32 81 15 3 18 -8 20 -75 l3 -78 10 75 c8 58
14 76 28 78 12 3 17 -3 18 -20 l0 -23 9 23 c15 35 30 26 32 -20 l1 -43 4 38
c4 35 6 37 39 37 44 0 48 -12 35 -97 -11 -71 -29 -96 -66 -91 -17 3 -20 10
-18 58 1 52 0 49 -13 -27 -3 -20 -11 -33 -19 -33 -10 0 -15 11 -16 33 l-1 32
-7 -30 c-5 -23 -12 -30 -31 -31 -14 -1 -31 6 -38 15 -10 12 -15 13 -18 4 -3
-7 -19 -13 -36 -13 l-31 0 6 85 c6 80 11 105 23 105 3 0 4 -35 2 -77z m352 58
c0 -5 -9 -11 -20 -14 -24 -6 -29 -57 -5 -57 8 0 15 -4 15 -10 0 -5 -9 -10 -20
-10 -16 0 -20 -7 -20 -30 0 -20 5 -30 15 -30 8 0 15 -4 15 -10 0 -5 -14 -10
-31 -10 l-31 0 7 68 c10 106 13 112 46 112 16 0 29 -4 29 -9z m86 -5 c9 -24
-10 -159 -23 -164 -9 -2 -13 8 -13 32 0 20 -4 36 -9 36 -11 0 -21 -25 -21 -51
0 -11 -7 -19 -16 -19 -12 0 -14 7 -10 28 3 15 8 47 11 72 11 74 14 80 46 80
16 0 32 -6 35 -14z m1104 -43 c0 10 6 17 13 15 11 -4 13 -14 8 -48 -1 -6 -10
-6 -27 0 -14 6 -29 8 -34 5 -4 -3 -17 -2 -29 3 -15 5 -18 11 -11 22 8 13 11
12 23 -4 13 -18 14 -18 20 5 6 23 7 23 21 4 14 -19 15 -19 16 -2z m70 5 c0 -9
3 -10 8 -2 4 6 23 11 42 10 28 -1 35 -5 35 -21 0 -18 -7 -20 -57 -21 -58 -2
-63 1 -52 30 7 19 24 21 24 4z m-173 -18 c-1 -11 -5 -20 -9 -20 -4 0 -8 9 -8
20 0 11 4 20 9 20 6 0 9 -9 8 -20z m433 -20 c0 -9 3 -11 8 -4 4 6 16 14 26 17
17 7 17 6 5 -10 -22 -28 -32 -33 -71 -33 -34 0 -38 3 -38 25 0 22 4 25 35 22
23 -1 35 -7 35 -17z m-1033 -10 c-1 -11 -5 -20 -9 -20 -4 0 -8 9 -8 20 0 11 4
20 9 20 6 0 9 -9 8 -20z m60 -12 c-3 -7 -5 -2 -5 12 0 14 2 19 5 13 2 -7 2
-19 0 -25z m131 20 c-6 -18 -28 -21 -28 -4 0 9 7 16 16 16 9 0 14 -5 12 -12z
m25 -5 c-5 -12 -2 -15 10 -10 9 3 17 2 17 -3 0 -6 -9 -10 -20 -10 -19 0 -27
20 -13 33 11 11 13 8 6 -10z m153 -3 c0 -11 -4 -20 -8 -20 -4 0 -8 9 -8 20 0
11 4 20 8 20 4 0 8 -9 8 -20z m38 4 c8 -21 8 -24 -3 -24 -5 0 -11 9 -14 20 -6
24 8 27 17 4z m-377 -16 c-3 -8 -6 -5 -6 6 -1 11 2 17 5 13 3 -3 4 -12 1 -19z
m83 -1 c11 -5 9 -6 -4 -4 -11 1 -21 9 -23 17 -3 10 -2 11 4 4 4 -6 15 -14 23
-17z m200 19 c0 -3 -4 -8 -10 -11 -5 -3 -10 -1 -10 4 0 6 5 11 10 11 6 0 10
-2 10 -4z m350 -17 c0 -8 4 -8 15 1 8 6 20 8 26 4 9 -5 7 -10 -7 -15 -18 -7
-18 -8 2 -8 12 -1 25 7 29 17 6 16 7 16 20 -1 12 -16 13 -16 19 -1 6 16 8 15
21 -2 13 -16 14 -16 9 -1 -4 11 -1 17 10 17 10 0 16 -9 16 -24 0 -24 -1 -24
-90 -23 -87 1 -90 2 -90 24 0 13 5 23 10 23 6 0 10 -5 10 -11z m430 7 c0 -3
-4 -8 -10 -11 -5 -3 -10 -1 -10 4 0 6 5 11 10 11 6 0 10 -2 10 -4z m-290 -375
c0 -3 14 -12 31 -20 16 -7 28 -16 25 -19 -4 -3 1 -13 9 -22 12 -13 16 -49 17
-171 1 -85 -2 -187 -6 -226 -8 -68 -10 -73 -32 -73 -13 0 -24 4 -24 10 0 5 6
7 14 4 8 -3 17 -1 21 5 9 15 -15 14 -65 -4 -56 -20 -76 -19 -126 5 -62 30 -69
56 -67 238 1 125 5 160 20 189 24 49 61 74 117 80 25 3 43 9 40 14 -3 5 2 6
10 3 9 -3 16 -9 16 -13z m-1320 -31 l67 0 11 -57 c6 -32 21 -132 33 -223 12
-91 26 -169 31 -174 4 -6 8 94 8 222 l0 232 84 0 84 0 10 -62 c6 -35 14 -84
18 -110 3 -27 10 -48 14 -48 4 0 11 28 14 63 4 34 12 83 18 110 l10 47 84 0
84 0 0 -250 0 -250 -59 0 -60 0 5 168 c3 103 1 161 -4 152 -5 -8 -20 -84 -33
-167 l-23 -153 -38 0 c-31 0 -38 4 -42 23 -12 56 -25 148 -31 207 -14 126 -24
96 -25 -67 l0 -163 -115 0 c-84 0 -117 3 -120 13 -2 6 -6 29 -10 50 -5 32 -10
38 -28 35 -18 -2 -23 -11 -25 -45 l-3 -43 -47 -1 c-45 -1 -75 1 -79 5 -3 3 57
469 62 485 3 7 12 10 21 7 9 -3 46 -6 84 -6z m747 -182 c-4 -99 -7 -212 -7
-250 l0 -68 -65 0 -65 0 0 183 c0 100 3 212 7 250 l6 67 65 0 65 0 -6 -182z
m183 85 c18 -54 37 -102 41 -107 5 -6 9 37 9 97 l0 107 55 0 55 0 0 -123 c0
-68 -3 -179 -7 -246 l-6 -122 -56 3 -55 3 -30 103 c-16 56 -33 102 -38 102 -4
0 -9 -48 -10 -107 l-3 -108 -54 -3 -54 -3 6 188 c4 103 7 216 7 251 l0 62 53
0 54 0 33 -97z m478 -583 c2 -109 -1 -167 -8 -174 -16 -15 -35 14 -46 67 l-8
42 -4 -58 c-2 -41 -8 -60 -19 -64 -28 -11 -33 20 -30 175 2 121 6 155 17 162
23 15 34 6 41 -31 l6 -34 2 37 c1 34 13 49 36 44 6 -2 11 -68 13 -166z m-1493
115 c20 -19 25 -34 25 -72 0 -26 -7 -56 -14 -66 -11 -15 -12 -25 -1 -60 7 -23
16 -61 19 -84 7 -39 6 -41 -13 -36 -16 4 -25 20 -37 62 -25 89 -29 91 -32 13
-2 -63 -5 -73 -20 -70 -15 3 -17 22 -20 171 l-2 167 35 0 c25 0 44 -8 60 -25z
m1340 8 c4 -10 9 -72 12 -138 5 -133 -3 -163 -49 -179 -20 -7 -33 -5 -52 8
-26 16 -26 17 -26 151 0 122 2 137 20 155 26 26 85 27 95 3z m-1194 -3 c22 0
29 -5 29 -20 0 -16 -7 -20 -31 -20 -29 0 -30 -1 -27 -42 3 -39 6 -43 31 -46
40 -5 38 -42 -2 -42 -29 0 -29 0 -28 -57 2 -58 2 -58 35 -61 24 -3 32 -8 32
-23 0 -18 -6 -20 -52 -17 l-53 3 -1 160 c-1 88 0 164 3 168 3 5 12 6 20 3 8
-3 28 -6 44 -6z m939 -9 c0 -12 -8 -21 -22 -23 -21 -3 -21 -6 -19 -150 l2
-148 -25 0 -26 0 0 150 c0 143 -1 150 -20 150 -11 0 -20 7 -20 15 0 10 16 15
63 18 34 2 63 4 65 5 1 1 2 -7 2 -17z m90 -145 c0 -155 -1 -164 -20 -169 -19
-5 -20 0 -20 164 0 162 1 169 20 169 19 0 20 -7 20 -164z m-906 139 c3 -9 9
-51 12 -95 7 -77 24 -113 24 -48 0 17 5 60 11 95 9 51 15 63 30 63 23 0 23 0
4 -131 -28 -188 -34 -209 -59 -209 -21 0 -23 7 -40 148 -10 81 -20 157 -23
170 -4 17 -1 22 15 22 11 0 22 -7 26 -15z m254 -1 c21 -14 22 -22 22 -154 0
-155 -6 -170 -65 -170 -56 0 -65 24 -65 170 0 127 6 151 40 163 27 10 45 7 68
-9z m122 -140 l0 -144 35 0 c29 0 35 -4 35 -20 0 -19 -5 -21 -57 -18 l-58 3 0
65 c2 248 4 268 25 263 19 -5 20 -14 20 -149z m160 5 c0 -150 0 -150 23 -147
21 3 22 7 27 148 5 135 6 145 25 148 19 3 20 -2 17 -150 -2 -141 -4 -154 -23
-170 -23 -19 -65 -23 -87 -9 -22 13 -27 61 -24 201 3 121 4 130 23 130 18 0
19 -8 19 -151z m565 -195 c13 -6 14 -10 3 -28 -8 -12 -13 -50 -13 -93 1 -40 0
-73 0 -73 -1 0 -51 -7 -111 -15 -214 -30 -812 -39 -1074 -17 -61 6 -75 10 -75
24 0 9 -4 20 -8 24 -4 4 -3 12 2 18 13 17 22 128 9 120 -7 -4 -8 -2 -4 4 5 8
29 10 74 6 253 -20 1140 6 1179 35 1 0 9 -2 18 -5z m-42 -251 c-7 -2 -19 -2
-25 0 -7 3 -2 5 12 5 14 0 19 -2 13 -5z m-218 -23 c-27 -5 -88 -8 -135 -7
l-85 1 90 6 c50 3 110 6 135 7 l45 0 -50 -7z m-858 -6 c-3 -3 -12 -4 -19 -1
-8 3 -5 6 6 6 11 1 17 -2 13 -5z m110 -1 c-20 -2 -52 -2 -70 0 -17 2 0 4 38 4
39 0 53 -2 32 -4z m356 -10 c-57 -2 -149 -2 -205 0 -57 1 -11 3 102 3 113 0
159 -2 103 -3z m579 -42 c2 -37 0 -47 -9 -40 -8 7 -13 4 -16 -8 -3 -10 -5 -2
-6 17 0 26 2 31 9 20 8 -13 10 -13 10 2 0 9 -5 18 -11 20 -11 4 -2 38 11 38 4
0 10 -22 12 -49z m-69 -53 c8 -5 6 -8 -5 -8 -15 0 -18 8 -16 53 l1 52 4 -45
c3 -24 10 -48 16 -52z m-1093 25 c0 -25 -4 -31 -15 -27 -8 4 -15 10 -15 16 0
5 5 6 10 3 6 -3 10 4 10 17 0 18 -2 20 -10 8 -11 -17 -13 -1 -4 25 10 24 24
-1 24 -42z m53 -3 c2 -19 2 -26 -1 -15 -5 18 -6 18 -12 -5 -5 -17 -7 -9 -7 29
-1 58 12 52 20 -9z m37 14 c0 -19 -4 -34 -10 -34 -5 0 -10 18 -10 41 0 24 4
38 10 34 6 -3 10 -22 10 -41z m840 4 c0 -10 5 -18 10 -18 6 0 10 -7 10 -16 0
-13 -3 -14 -13 -5 -8 6 -16 9 -18 6 -3 -2 -6 15 -6 38 -2 29 1 37 7 27 5 -8
10 -23 10 -32z m39 -10 c-1 -42 -3 -48 -9 -28 -12 36 -12 80 0 80 6 0 10 -24
9 -52z m38 -15 c-2 -16 -4 -5 -4 22 0 28 2 40 4 28 2 -13 2 -35 0 -50z m30 5
c-2 -13 -4 -3 -4 22 0 25 2 35 4 23 2 -13 2 -33 0 -45z m-910 -25 c-2 -16 -4
-3 -4 27 0 30 2 43 4 28 2 -16 2 -40 0 -55z m54 42 c5 4 9 -1 9 -9 0 -9 -4
-16 -9 -16 -11 0 -21 26 -20 48 1 10 4 8 6 -6 2 -12 9 -20 14 -17z m76 13 c-3
-8 -6 -5 -6 6 -1 11 2 17 5 13 3 -3 4 -12 1 -19z m72 -16 c0 -24 -1 -25 -9 -7
-12 28 -12 47 0 40 6 -3 10 -18 9 -33z m81 17 c0 -6 -4 -7 -10 -4 -5 3 -10 11
-10 16 0 6 5 7 10 4 6 -3 10 -11 10 -16z m314 -6 c-1 -16 -3 -30 -4 -33 -1 -3
-2 -9 -1 -13 1 -5 -3 -6 -9 -2 -14 9 -13 48 2 63 7 7 12 12 13 12 0 0 0 -12
-1 -27z m86 6 c0 -6 -4 -7 -10 -4 -5 3 -10 11 -10 16 0 6 5 7 10 4 6 -3 10
-11 10 -16z m-433 -56 c-2 -16 -4 -5 -4 22 0 28 2 40 4 28 2 -13 2 -35 0 -50z
m70 0 c-2 -16 -4 -5 -4 22 0 28 2 40 4 28 2 -13 2 -35 0 -50z m428 0 l5 -28
-11 28 c-6 15 -15 25 -20 21 -5 -3 -9 -1 -9 5 0 5 -3 17 -7 27 -5 14 -2 13 15
-4 12 -12 24 -34 27 -49z m-388 20 c-3 -10 -5 -4 -5 12 0 17 2 24 5 18 2 -7 2
-21 0 -30z m-180 -30 c-3 -10 -5 -2 -5 17 0 19 2 27 5 18 2 -10 2 -26 0 -35z
m217 32 c-4 -8 -8 -15 -10 -15 -2 0 -4 7 -4 15 0 8 4 15 10 15 5 0 7 -7 4 -15z
m69 -7 c6 -8 7 -23 4 -32 -7 -17 -37 -23 -37 -6 0 5 7 7 15 4 20 -8 19 15 -2
39 -13 15 -14 19 -4 15 8 -2 19 -11 24 -20z m-366 -20 c-3 -8 -6 -5 -6 6 -1
11 2 17 5 13 3 -3 4 -12 1 -19z m30 -10 c-3 -7 -5 -2 -5 12 0 14 2 19 5 13 2
-7 2 -19 0 -25z m83 1 c0 -6 -4 -7 -10 -4 -5 3 -10 11 -10 16 0 6 5 7 10 4 6
-3 10 -11 10 -16z m62 -11 c-8 -8 -9 -4 -5 13 4 13 8 18 11 10 2 -7 -1 -18 -6
-23z m92 6 c3 -8 2 -12 -4 -9 -6 3 -10 10 -10 16 0 14 7 11 14 -7z m504 -21
c-10 -2 -28 -2 -40 0 -13 2 -5 4 17 4 22 1 32 -1 23 -4z m-850 -10 c-10 -2
-26 -2 -35 0 -10 3 -2 5 17 5 19 0 27 -2 18 -5z m79 1 c-3 -3 -12 -4 -19 -1
-8 3 -5 6 6 6 11 1 17 -2 13 -5z m68 -4 c3 -6 -1 -7 -9 -4 -18 7 -21 14 -7 14
6 0 13 -4 16 -10z m502 4 c-3 -3 -12 -4 -19 -1 -8 3 -5 6 6 6 11 1 17 -2 13
-5z m46 -1 c-7 -2 -19 -2 -25 0 -7 3 -2 5 12 5 14 0 19 -2 13 -5z m-490 -10
c-7 -2 -19 -2 -25 0 -7 3 -2 5 12 5 14 0 19 -2 13 -5z m60 0 c-7 -2 -21 -2
-30 0 -10 3 -4 5 12 5 17 0 24 -2 18 -5z m190 0 c-29 -2 -78 -2 -110 0 -32 2
-8 3 52 3 61 0 87 -1 58 -3z m84 1 c-3 -3 -12 -4 -19 -1 -8 3 -5 6 6 6 11 1
17 -2 13 -5z m-417 -69 c-7 -9 -15 -13 -17 -11 -6 6 20 36 26 30 2 -2 -2 -10
-9 -19z m460 4 c0 -6 -4 -7 -10 -4 -5 3 -10 11 -10 16 0 6 5 7 10 4 6 -3 10
-11 10 -16z m590 -118 c0 -39 -4 -50 -19 -54 -16 -4 -20 2 -26 39 -7 51 -4 59
24 61 19 2 21 -4 21 -46z m-60 24 c0 -8 -4 -15 -10 -15 -5 0 -10 -12 -10 -27
0 -22 2 -25 11 -13 8 12 9 10 7 -10 -5 -41 -33 -31 -36 14 -2 21 -1 44 2 52 7
19 36 18 36 -1z m-112 -56 c-2 -36 -7 -44 -23 -44 -17 0 -20 8 -23 48 -4 56
15 65 21 10 4 -37 4 -37 5 7 2 31 5 41 13 33 5 -5 9 -30 7 -54z m61 12 c2 -46
1 -48 -24 -48 -23 0 -25 3 -25 48 0 45 2 49 23 49 21 0 24 -5 26 -49z m-135
33 c20 -8 21 -38 1 -54 -8 -7 -15 -21 -15 -31 0 -11 -4 -19 -10 -19 -11 0 -14
93 -3 103 8 8 8 8 27 1z m-121 -51 c-7 -65 -23 -79 -23 -20 0 26 -5 47 -11 47
-5 0 -7 5 -4 10 3 6 14 10 24 10 16 0 18 -6 14 -47z m-1327 27 c9 0 14 -11 14
-31 0 -24 -3 -30 -16 -25 -9 3 -22 6 -30 6 -9 0 -14 11 -14 31 0 24 3 30 16
25 9 -3 22 -6 30 -6z m1084 -1 c0 -4 -5 -11 -11 -15 -8 -5 -8 -8 0 -13 12 -8
-1 -67 -14 -64 -10 3 -18 70 -11 89 5 12 36 15 36 3z m71 -39 c7 -52 5 -58
-16 -40 -10 8 -15 9 -15 1 0 -6 -4 -11 -10 -11 -11 0 -14 83 -3 94 18 18 38
-2 44 -44z m48 33 c1 10 7 17 14 15 7 -3 12 -22 12 -49 0 -38 -3 -44 -22 -47
-23 -3 -25 2 -25 68 0 32 3 36 12 15 8 -18 9 -18 9 -2z m62 5 c7 -57 5 -88 -5
-85 -14 5 -21 97 -7 97 6 0 12 -6 12 -12z m-1229 -33 c-6 -34 -12 -32 -12 6 0
16 4 28 9 25 4 -3 6 -17 3 -31z m58 -14 c0 -25 -3 -28 -25 -23 -18 3 -25 11
-25 28 0 28 16 32 23 7 3 -13 5 -12 6 5 1 33 21 17 21 -17z m30 -1 c0 -16 -4
-30 -10 -30 -5 0 -10 14 -10 30 0 17 5 30 10 30 6 0 10 -13 10 -30z m60 -16
c0 -21 -4 -33 -10 -29 -5 3 -10 19 -10 36 0 16 5 29 10 29 6 0 10 -16 10 -36z
m70 16 c0 -4 11 -6 24 -5 20 3 25 -2 28 -26 3 -16 1 -29 -4 -29 -4 0 -8 10 -8
23 -1 22 -1 22 -15 -3 l-14 -25 -1 25 c-1 21 -2 23 -13 10 -20 -25 -52 -19
-55 12 -3 24 0 27 27 26 17 -1 31 -4 31 -8z m90 -36 c0 -21 -4 -33 -10 -29 -5
3 -10 19 -10 36 0 16 5 29 10 29 6 0 10 -16 10 -36z m50 -6 c0 -30 -26 -40
-36 -13 -9 21 1 42 20 42 11 0 16 -9 16 -29z m30 -4 c0 -21 -4 -33 -10 -29 -5
3 -10 19 -10 36 0 16 5 29 10 29 6 0 10 -16 10 -36z m1280 21 c0 -16 -1 -16
-37 -20 -17 -2 -23 3 -23 16 0 14 7 19 30 19 20 0 30 -5 30 -15z m-1237 -7 c7
-19 -6 -48 -18 -40 -14 10 -14 52 1 52 6 0 14 -6 17 -12z m34 -13 c-5 -37 -14
-40 -19 -5 -3 21 0 30 9 30 9 0 12 -9 10 -25z m1083 -15 c0 -12 -2 -13 -9 -1
-5 7 -14 10 -20 7 -6 -4 -11 -1 -11 8 0 8 6 16 13 19 14 5 27 -11 27 -33z m48
23 c-4 -24 -38 -26 -38 -2 0 13 7 19 21 19 14 0 19 -5 17 -17z m-106 -8 c14
-18 8 -25 -19 -24 -16 0 -38 -2 -50 -4 -18 -5 -23 -2 -23 15 0 17 5 20 30 16
17 -3 30 -1 30 4 0 11 23 6 32 -7z m-162 -24 c0 -24 -44 -21 -49 4 -2 13 1 16
13 12 9 -4 16 -2 16 4 0 6 5 7 10 4 6 -3 10 -14 10 -24z m60 14 c0 -8 -7 -15
-15 -15 -8 0 -15 7 -15 15 0 8 7 15 15 15 8 0 15 -7 15 -15z m-142 -34 c-15
-5 -21 7 -13 26 7 17 8 17 15 -2 4 -11 3 -22 -2 -24z m99 17 c-3 -8 -6 -5 -6
6 -1 11 2 17 5 13 3 -3 4 -12 1 -19z m-307 -3 c0 -8 -4 -15 -9 -15 -13 0 -22
16 -14 24 11 11 23 6 23 -9z m43 7 c4 8 6 7 6 -4 1 -12 -6 -18 -19 -18 -12 0
-20 7 -20 16 0 13 3 14 14 5 11 -9 15 -9 19 1z m67 -7 c0 -9 -9 -15 -25 -15
-16 0 -25 6 -25 15 0 9 9 15 25 15 16 0 25 -6 25 -15z m54 -1 c3 -7 -5 -11
-20 -11 -13 0 -24 5 -24 13 0 16 38 14 44 -2z"/>
<path d="M1639 2898 c0 -7 -4 -35 -8 -61 -8 -46 2 -76 13 -40 13 47 18 113 7
113 -6 0 -11 -6 -12 -12z"/>
<path d="M1807 2888 c-7 -25 0 -41 14 -33 12 8 12 55 0 55 -5 0 -11 -10 -14
-22z"/>
<path d="M2990 2324 c0 -21 4 -33 10 -29 6 3 10 19 10 36 0 16 -4 29 -10 29
-5 0 -10 -16 -10 -36z"/>
<path d="M2988 2177 c-3 -89 3 -158 13 -142 9 14 6 225 -2 225 -4 0 -9 -37
-11 -83z"/>
<path d="M1716 2249 c-4 -35 -10 -81 -13 -101 -5 -36 -4 -38 21 -38 l26 0 -6
88 c-8 112 -19 132 -28 51z"/>
<path d="M1608 1815 c-5 -43 7 -68 22 -45 14 22 12 56 -4 69 -11 9 -15 5 -18
-24z"/>
<path d="M2926 1841 c-3 -5 -6 -62 -5 -126 0 -101 3 -116 16 -113 14 3 17 21
17 122 1 82 -3 121 -11 123 -6 2 -14 0 -17 -6z"/>
<path d="M2122 1828 c-12 -16 -15 -238 -3 -257 5 -8 16 -11 25 -8 13 5 16 26
16 130 0 93 -3 127 -14 136 -10 8 -16 8 -24 -1z"/>
<path d="M2697 1474 c-4 -4 -40 -6 -80 -5 -68 2 -74 0 -85 -21 l-11 -23 -7 22
c-12 43 -23 12 -22 -62 1 -55 5 -75 15 -75 7 0 13 8 13 18 0 29 31 112 41 112
6 0 7 -27 3 -66 -6 -53 -4 -66 6 -62 7 2 14 13 16 24 12 85 16 104 26 110 7 4
8 -9 3 -42 -12 -88 -12 -89 10 -86 11 2 35 3 54 3 61 -1 79 38 41 86 -11 14
-17 30 -13 37 5 7 9 5 11 -6 6 -31 34 -22 30 10 -3 26 -34 43 -51 26z m-17
-43 c0 -10 7 -24 15 -31 17 -14 20 -50 5 -50 -5 0 -9 5 -7 11 4 21 -21 20 -28
-1 -6 -19 -28 -25 -26 -7 1 4 1 14 1 22 0 8 8 15 18 15 16 1 16 1 -1 14 -10 8
-15 20 -11 30 8 22 34 20 34 -3z"/>
<path d="M1966 1459 c-10 -28 -26 -132 -21 -139 6 -10 175 -10 175 1 0 5 -7 9
-15 9 -21 0 -19 37 3 50 12 8 13 13 5 16 -22 9 -15 43 7 41 18 -1 19 -6 14
-47 -10 -76 -9 -80 25 -80 30 0 41 14 41 52 0 26 -24 18 -28 -10 -2 -12 -8
-22 -13 -22 -6 0 -8 8 -6 18 3 9 8 34 12 55 3 21 10 35 15 32 5 -3 7 -12 3
-20 -3 -8 0 -15 7 -15 6 0 14 9 17 20 3 11 10 20 15 20 10 0 4 -69 -8 -112 -3
-11 0 -18 9 -18 9 0 17 14 21 38 14 77 18 92 27 92 5 0 7 -10 5 -22 -16 -77
-16 -108 -1 -108 9 0 15 9 15 24 0 14 5 28 10 31 6 4 10 -7 10 -24 0 -29 13
-41 23 -23 3 4 8 38 12 75 l7 68 -84 -2 c-46 0 -87 0 -93 1 -5 1 -14 1 -20 0
-5 -1 -24 -1 -41 0 -30 1 -31 0 -42 -61 -12 -66 -16 -74 -30 -65 -5 3 -5 27 1
61 5 31 8 58 6 60 -2 2 -21 6 -41 10 -28 5 -39 4 -42 -6z m48 -66 c-8 -68 -6
-65 -28 -57 -21 8 -21 30 2 43 14 8 15 12 5 22 -18 18 -16 37 5 42 9 3 18 5
20 6 2 0 0 -25 -4 -56z m302 10 c-11 -11 -17 4 -9 23 7 18 8 18 11 1 2 -10 1
-21 -2 -24z"/>
<path d="M2366 1452 c-3 -5 -8 -39 -12 -75 l-7 -67 31 0 c17 0 33 4 36 8 3 5
8 39 12 75 l7 67 -31 0 c-17 0 -33 -4 -36 -8z m41 -29 c-3 -10 -8 -35 -12 -55
-3 -21 -11 -38 -16 -38 -6 0 -8 8 -5 18 3 9 8 34 12 55 3 20 11 37 16 37 5 0
7 -8 5 -17z"/>
<path d="M2446 1433 c-3 -16 -8 -49 -12 -75 -6 -47 -6 -48 20 -48 16 0 26 5
26 15 0 8 -5 15 -10 15 -10 0 -4 95 7 113 2 4 -2 7 -11 7 -8 0 -17 -12 -20
-27z"/>
<path d="M1863 1415 c-17 -19 -16 -30 2 -45 11 -10 18 -9 30 4 13 13 14 19 3
36 -15 23 -19 24 -35 5z"/>
<path d="M3318 1022 c-18 -2 -28 -9 -28 -20 0 -11 -3 -13 -8 -5 -5 8 -12 8
-26 -3 -22 -15 -22 -15 16 -31 21 -10 29 -9 38 3 7 8 18 14 25 14 15 0 29 31
18 40 -4 3 -20 4 -35 2z"/>
<path d="M3265 932 c6 -4 12 -18 13 -32 2 -14 8 -29 13 -35 7 -6 8 2 4 24 -7
41 -12 51 -28 51 -8 0 -8 -3 -2 -8z"/>
<path d="M3275 840 c-3 -5 -1 -10 4 -10 6 0 11 5 11 10 0 6 -2 10 -4 10 -3 0
-8 -4 -11 -10z"/>
<path d="M1249 722 c7 -13 31 -42 53 -64 29 -29 34 -38 19 -33 -30 9 -26 -8 8
-33 67 -49 278 -98 531 -122 184 -18 645 -24 850 -11 299 18 574 64 587 98 3
7 15 13 28 13 13 0 25 7 29 15 6 18 2 19 -26 4 -11 -6 -22 -9 -24 -6 -3 3 19
18 49 35 49 28 117 94 117 114 0 5 -23 -3 -51 -18 -74 -37 -158 -62 -284 -84
-233 -41 -307 -45 -765 -44 -395 0 -464 3 -617 22 -264 33 -449 78 -497 120
-18 16 -18 16 -7 -6z"/>
<path d="M2083 648 c-7 -8 -7 -22 -2 -37 7 -18 12 -21 23 -12 10 8 16 9 21 1
13 -21 21 -9 17 25 -3 21 -9 34 -16 32 -6 -2 -10 -13 -8 -23 2 -15 0 -15 -11
4 -11 19 -16 21 -24 10z"/>
<path d="M2160 625 c0 -19 5 -35 10 -35 6 0 10 16 10 35 0 19 -4 35 -10 35 -5
0 -10 -16 -10 -35z"/>
<path d="M2340 650 c-1 -8 -2 -20 -1 -27 1 -6 -3 -14 -9 -18 -7 -4 -9 3 -6 19
4 25 3 26 -40 26 -44 0 -45 -1 -42 -27 4 -35 29 -37 45 -3 l12 25 1 -26 0 -27
89 0 89 -1 -3 27 c-2 31 -4 32 -44 32 -20 0 -31 -6 -34 -17 -4 -17 -5 -17 -6
0 -2 25 -31 21 -32 -5 -1 -19 -3 -17 -9 7 -4 17 -9 23 -10 15z m107 -42 c-3
-7 -5 -2 -5 12 0 14 2 19 5 13 2 -7 2 -19 0 -25z"/>
<path d="M2534 646 c-8 -21 -1 -49 14 -54 8 -2 12 7 12 27 0 33 -17 51 -26 27z"/>
<path d="M2577 653 c-14 -13 -7 -63 8 -63 8 0 15 5 15 12 0 9 3 9 12 0 7 -7
15 -12 19 -12 12 0 17 37 6 55 -9 18 -10 18 -23 0 -13 -17 -14 -17 -14 -2 0
17 -11 22 -23 10z"/>
<path d="M2690 630 c0 -20 5 -30 15 -30 10 0 15 10 15 30 0 20 -5 30 -15 30
-10 0 -15 -10 -15 -30z"/>
</g>
</svg>
