<?xml version="1.0" standalone="no"?>
<!DOCTYPE svg PUBLIC "-//W3C//DTD SVG 20010904//EN"
 "http://www.w3.org/TR/2001/REC-SVG-20010904/DTD/svg10.dtd">
<svg version="1.0" xmlns="http://www.w3.org/2000/svg"
 width="179.000000pt" height="300.000000pt" viewBox="0 0 179.000000 300.000000"
 preserveAspectRatio="xMidYMid meet">

<g transform="translate(0.000000,300.000000) scale(0.100000,-0.100000)"
fill="#000000" stroke="none">
<path d="M585 2990 c3 -5 12 -10 19 -10 8 0 27 -7 42 -15 16 -8 42 -15 57 -15
l28 0 -2 -210 -2 -210 -36 0 -36 0 3 201 c2 142 -1 205 -9 215 -8 9 -36 14
-88 15 -64 2 -69 3 -36 9 35 6 31 7 -31 9 -102 2 -228 -10 -212 -20 10 -7 10
-9 -2 -9 -8 0 -26 -3 -40 -6 -20 -4 -22 -3 -10 5 12 9 9 11 -14 11 -24 0 -27
-2 -16 -15 10 -12 10 -15 -1 -15 -26 0 -40 -17 -49 -53 -4 -22 -4 -35 1 -31
11 7 12 -316 0 -334 -4 -7 -14 -12 -22 -10 -11 2 -15 42 -19 203 l-6 200 -2
-207 c-1 -159 -5 -208 -14 -208 -9 0 -8 -4 2 -10 8 -5 53 -10 100 -10 98 -1
91 -14 -12 -25 -37 -3 -70 -11 -73 -16 -3 -4 -6 -112 -6 -239 -1 -167 -4 -230
-12 -230 -7 0 -5 -5 3 -10 9 -6 10 -10 3 -10 -8 0 -11 -12 -8 -32 2 -18 7
-104 10 -192 6 -117 5 -157 -4 -152 -6 4 -11 2 -11 -3 0 -6 5 -11 10 -11 15 0
12 -47 -2 -53 -10 -4 -10 -6 0 -6 14 -1 17 -51 2 -51 -6 0 -10 -112 -10 -315
l0 -314 30 -16 30 -16 0 -151 0 -150 -31 6 -32 6 6 -87 c12 -187 47 -212 357
-255 52 -7 228 -11 455 -11 337 0 383 2 515 23 94 15 161 31 192 46 51 26 84
62 69 77 -6 6 -4 15 5 25 17 17 13 39 -7 34 -8 -2 -77 -12 -154 -23 -111 -16
-220 -21 -527 -26 -214 -3 -388 -2 -388 2 0 18 166 239 192 255 23 14 65 18
246 24 307 9 495 23 585 43 77 17 77 17 77 50 0 17 -4 35 -10 38 -15 9 -13
271 2 295 9 15 9 24 -1 43 -9 17 -11 52 -7 123 11 201 15 834 6 834 -6 0 -10
7 -10 15 0 8 4 15 8 15 12 0 13 338 1 346 -5 3 -7 15 -4 26 4 12 0 27 -9 37
-15 16 -15 19 -1 31 23 19 18 30 -12 29 -16 0 -84 5 -153 11 -69 6 -262 13
-430 15 -168 2 -308 4 -312 4 -3 1 -7 92 -8 202 0 111 -3 206 -6 210 -3 5 1 9
8 10 7 0 4 5 -7 10 -13 6 27 7 110 2 72 -4 211 -7 310 -8 99 -1 189 -5 200
-10 11 -4 17 -5 13 0 -4 4 -3 14 3 22 10 11 -8 13 -100 13 -67 0 -111 4 -111
10 0 6 -107 10 -301 10 -197 0 -298 -3 -294 -10z m-175 -30 c-30 -6 -26 -8 27
-9 l62 -1 1 -215 0 -215 -84 0 c-46 0 -110 -3 -142 -6 l-59 -6 3 203 c2 143 7
206 15 211 7 4 26 8 44 8 17 0 35 4 38 10 8 13 63 28 100 28 29 -1 29 -1 -5
-8z m209 -203 c-1 -107 1 -200 6 -207 11 -17 -13 -30 -57 -30 l-38 0 0 58 c0
33 3 127 7 210 6 143 7 151 27 155 62 12 58 26 55 -186z m-91 -284 c-16 -2
-40 -2 -55 0 -16 2 -3 4 27 4 30 0 43 -2 28 -4z m938 -14 c-60 -4 -145 -4
-190 0 -66 7 -45 8 109 8 178 0 183 0 81 -8z m-1086 -155 c0 -3 -13 -23 -30
-44 -31 -39 -38 -60 -20 -60 6 0 10 3 10 8 0 4 14 24 31 44 26 33 32 36 50 25
17 -10 19 -21 17 -72 -3 -67 -24 -85 -47 -42 -11 21 -11 28 4 50 30 46 10 52
-24 8 l-34 -42 23 -30 c27 -38 18 -49 -18 -22 -23 17 -27 28 -30 77 -3 51 0
58 25 81 28 24 43 31 43 19z m1284 -40 c3 -8 2 -12 -4 -9 -6 3 -10 10 -10 16
0 14 7 11 14 -7z m-103 -4 c39 0 47 -4 57 -25 17 -37 15 -70 -5 -92 -17 -17
-29 -19 -163 -13 l-145 5 -3 54 c-5 86 -7 85 111 78 56 -4 123 -7 148 -7z
m-821 -19 c0 -2 -7 -13 -17 -23 -15 -17 -15 -18 4 -18 11 0 25 10 31 25 13 29
37 33 47 8 6 -17 7 -17 16 -1 13 23 153 22 177 -1 11 -12 16 -13 20 -3 7 21
22 13 22 -13 0 -29 -16 -32 -42 -8 -17 15 -18 15 -18 0 0 -15 -22 -17 -217
-15 -139 0 -225 5 -237 12 -14 8 -20 8 -23 -1 -8 -22 -23 -14 -20 10 2 18 10
23 42 27 50 6 215 7 215 1z m-129 -271 c26 0 29 -4 29 -30 l0 -30 -130 0
c-148 0 -150 -1 -150 -89 0 -76 9 -81 156 -81 l124 0 0 -29 c0 -16 -6 -31 -12
-34 -23 -7 -233 4 -259 14 -32 13 -47 43 -55 112 -7 59 8 128 33 148 16 14
155 29 207 23 16 -2 41 -4 57 -4z m179 -92 c0 -57 5 -110 10 -118 7 -12 37
-16 140 -18 l130 -4 0 -31 0 -32 -140 0 -140 0 -32 32 c-32 32 -33 35 -36 138
-3 57 -2 112 2 120 3 9 18 15 36 15 l30 0 0 -102z m579 85 c12 -10 41 -70 65
-133 24 -63 47 -123 51 -132 6 -15 2 -18 -19 -18 -20 0 -29 8 -41 35 l-14 36
-93 -3 -92 -3 -21 -35 c-15 -26 -27 -35 -47 -36 -16 -1 -28 2 -28 6 0 21 132
280 147 289 27 16 68 13 92 -6z m-549 -349 l30 -26 0 -114 c0 -110 -1 -116
-25 -140 l-26 -26 -182 3 -182 3 0 -25 0 -24 208 -3 207 -2 0 -69 c0 -38 -4
-71 -10 -73 -13 -4 -449 11 -475 17 -37 8 -55 55 -55 148 0 94 13 142 42 158
12 7 80 10 176 8 l157 -3 3 27 3 27 -123 0 c-68 0 -153 3 -190 7 l-68 6 0 63
0 64 240 0 239 -1 31 -25z m219 11 c9 -5 12 -34 10 -94 l-3 -86 66 -3 c76 -3
65 -11 168 117 l65 80 78 1 c50 0 77 -4 77 -11 0 -6 -36 -63 -80 -126 -44 -63
-80 -118 -80 -123 0 -5 15 -28 33 -52 77 -101 128 -181 120 -188 -4 -5 -39
-10 -78 -12 l-69 -3 -76 92 -75 91 -75 1 -76 1 4 -70 c2 -38 1 -81 -2 -95 -6
-24 -9 -25 -86 -25 l-80 0 0 253 c0 140 3 257 8 261 8 10 134 2 151 -9z m437
-544 c17 14 34 3 34 -22 0 -25 -31 -25 -53 1 -19 23 -23 40 -5 22 8 -8 15 -8
24 -1z m-1102 -16 c-4 -8 -8 -15 -10 -15 -2 0 -4 7 -4 15 0 8 4 15 10 15 5 0
7 -7 4 -15z m151 -9 c0 -11 -6 -20 -13 -22 -7 -1 -8 0 -2 3 18 8 11 35 -7 31
-10 -2 -17 -9 -16 -14 1 -6 -5 -11 -13 -11 -7 0 -14 7 -14 14 0 8 4 12 9 8 5
-3 13 -1 16 5 11 17 40 7 40 -14z m335 -11 c0 -21 -4 -23 -45 -23 -25 1 -48 5
-51 9 -2 4 -20 5 -39 2 -31 -5 -35 -3 -35 16 0 18 5 21 35 19 21 -1 35 -7 35
-15 0 -19 27 -16 50 7 24 24 50 16 50 -15z m63 17 c-28 -4 -30 -22 -3 -22 11
0 20 -4 20 -10 0 -14 -37 -13 -46 1 -4 8 -9 7 -15 -2 -6 -10 -9 -5 -9 14 0 16
4 26 8 23 4 -2 14 -1 22 4 7 4 20 5 29 2 13 -5 11 -8 -6 -10z m350 -2 c6 -25
27 -26 27 -2 0 14 8 18 38 19 20 0 27 -1 15 -4 -23 -4 -30 -17 -15 -27 5 -3
19 4 32 16 22 21 23 21 36 3 14 -18 14 -18 15 1 0 14 2 15 6 4 3 -8 11 -19 17
-23 6 -5 -6 -6 -26 -2 -21 3 -38 2 -38 -3 0 -4 -37 -8 -82 -8 -46 0 -75 1 -65
4 9 2 17 12 17 23 0 25 16 25 23 -1z m-690 -24 c18 -4 18 -4 -3 -3 -14 1 -25
8 -26 17 0 8 1 10 3 3 2 -6 14 -14 26 -17z m68 18 c12 -14 14 -14 20 3 7 16 8
15 8 -4 1 -27 -11 -30 -29 -8 -11 13 -15 13 -21 3 -7 -10 -9 -9 -9 5 0 21 13
22 31 1z m315 -4 c0 -11 -4 -20 -8 -20 -4 0 -8 9 -8 20 0 11 4 20 8 20 4 0 8
-9 8 -20z m38 -10 c-6 -6 -10 -3 -10 10 0 13 4 16 10 10 7 -7 7 -13 0 -20z
m46 20 c-13 -9 -13 -11 0 -20 9 -6 10 -10 3 -10 -6 0 -15 5 -18 10 -8 13 3 30
18 30 7 0 6 -4 -3 -10z m100 -4 c0 -8 -4 -17 -8 -20 -4 -2 -8 4 -8 15 0 10 4
19 8 19 4 0 8 -6 8 -14z m44 -1 c11 -8 17 -17 14 -20 -3 -3 -12 1 -21 9 -8 8
-17 12 -21 9 -3 -4 -6 -1 -6 5 0 16 11 15 34 -3z m214 -198 c4 6 28 13 55 16
40 5 47 3 47 -11 1 -15 2 -15 13 -2 19 23 49 25 45 3 -3 -15 -14 -18 -70 -19
-36 -1 -70 -4 -75 -7 -4 -2 -24 -4 -43 -3 -24 1 -36 6 -38 19 -4 20 23 24 31
5 4 -8 9 -3 14 12 l8 25 3 -24 c2 -13 7 -20 10 -14z m-1078 -53 c0 -36 -4 -64
-10 -64 -6 0 -10 30 -10 71 0 44 4 68 10 64 6 -3 10 -35 10 -71z m40 51 c0 -8
-4 -15 -10 -15 -5 0 -10 7 -10 15 0 8 5 15 10 15 6 0 10 -7 10 -15z m26 -4 c0
-11 -4 -17 -8 -15 -4 3 -8 12 -8 20 0 8 4 14 8 14 4 0 8 -9 8 -19z m34 5 c0
18 64 11 68 -8 2 -12 -7 -16 -43 -16 -40 -1 -45 1 -45 21 0 18 2 19 10 7 5 -8
10 -10 10 -4z m800 -14 c0 -15 -11 -17 -77 -17 -66 0 -78 3 -81 18 -2 9 2 17
9 17 6 0 18 -8 25 -17 13 -17 13 -17 14 0 0 19 20 24 20 5 0 -9 3 -9 9 1 5 8
18 12 30 8 12 -3 24 -1 27 4 8 13 24 1 24 -19z m100 7 c0 -10 -6 -20 -12 -20
-55 -5 -63 -3 -66 17 -3 19 2 22 37 22 34 1 41 -3 41 -19z m-782 -1 c12 18
122 14 122 -5 0 -7 5 -13 10 -13 6 0 10 6 10 14 0 11 13 15 52 14 33 0 46 -3
37 -9 -8 -5 -11 -9 -6 -9 4 0 16 6 27 12 21 13 48 -1 36 -20 -8 -13 -176 -14
-176 -1 0 8 -4 8 -12 2 -7 -5 -39 -7 -70 -5 -46 3 -58 7 -58 20 0 15 2 15 10
2 8 -12 12 -12 18 -2z m445 -3 c9 -4 17 -3 17 2 0 17 30 10 31 -6 0 -12 3 -11
9 4 8 19 9 19 9 -2 1 -25 -9 -29 -27 -11 -8 8 -12 8 -12 1 0 -7 -28 -11 -80
-10 -69 1 -80 3 -80 18 0 15 9 17 58 15 31 -2 65 -6 75 -11z m-581 -97 c-5
-21 -6 -21 -13 -2 -4 10 -8 14 -8 9 -1 -17 -41 -16 -41 1 0 9 11 14 34 14 30
0 33 -3 28 -22z m37 0 c1 17 41 15 41 -3 0 -10 -11 -15 -35 -15 -22 0 -35 5
-35 13 0 23 14 29 21 10 4 -10 8 -12 8 -5z m103 -8 c5 -12 7 -12 7 3 1 14 21
27 21 13 0 -2 2 -11 6 -19 5 -14 -1 -15 -68 -9 -10 1 -18 9 -18 18 0 20 42 15
52 -6z m88 0 c0 -11 -7 -20 -15 -20 -8 0 -15 9 -15 20 0 11 7 20 15 20 8 0 15
-9 15 -20z m997 -81 c-5 -29 -57 -37 -57 -10 0 24 9 31 37 31 18 0 22 -5 20
-21z m-94 -9 c3 -11 1 -20 -4 -20 -5 0 -9 9 -9 20 0 11 2 20 4 20 2 0 6 -9 9
-20z m-268 -20 c-2 -11 0 -20 6 -20 5 0 9 9 9 21 0 15 5 19 15 15 8 -3 15 -1
15 4 0 6 16 10 35 10 19 0 35 -5 35 -11 0 -5 -4 -7 -10 -4 -5 3 -10 0 -10 -9
0 -8 6 -17 13 -19 7 -3 5 -6 -5 -6 -11 -1 -18 6 -19 17 0 14 -2 14 -9 -3 l-9
-20 -1 20 c-2 17 -3 17 -7 3 -5 -21 -23 -24 -23 -5 0 6 -5 4 -11 -5 -10 -18
-39 -25 -39 -9 0 4 -11 6 -25 3 -21 -4 -25 0 -25 19 0 22 0 22 15 3 12 -16 14
-17 15 -2 0 16 19 29 32 21 4 -2 5 -12 3 -23z m166 -1 c10 -6 6 -8 -12 -7 -20
2 -25 6 -21 21 3 13 7 15 12 7 4 -7 14 -16 21 -21z m49 -3 c0 -5 -7 -3 -15 4
-8 7 -12 17 -9 22 7 10 24 -9 24 -26z m20 12 c0 -19 -2 -20 -10 -8 -13 19 -13
30 0 30 6 0 10 -10 10 -22z m-318 3 c-8 -4 -13 -11 -12 -15 1 -4 -1 -12 -3
-19 -3 -6 -6 -3 -6 9 -1 23 7 34 23 34 6 0 5 -4 -2 -9z m-125 -23 c-3 -8 -6
-5 -6 6 -1 11 2 17 5 13 3 -3 4 -12 1 -19z m43 1 c0 -6 -4 -7 -10 -4 -5 3 -10
11 -10 16 0 6 5 7 10 4 6 -3 10 -11 10 -16z"/>
<path d="M272 2870 c0 -14 2 -19 5 -12 2 6 2 18 0 25 -3 6 -5 1 -5 -13z"/>
<path d="M276 2683 c4 -87 8 -160 10 -162 2 -2 4 68 4 157 0 103 -4 162 -10
162 -7 0 -8 -54 -4 -157z"/>
<path d="M1358 2243 c6 -2 18 -2 25 0 6 3 1 5 -13 5 -14 0 -19 -2 -12 -5z"/>
<path d="M1410 2240 c11 -7 2 -10 -30 -11 -28 -1 -36 -3 -20 -6 14 -3 28 -10
32 -17 5 -6 8 -7 8 -1 0 6 9 11 19 11 11 0 18 -3 16 -7 -3 -3 31 -7 75 -7 77
-1 108 10 79 29 -20 12 -29 11 -29 -4 0 -8 -7 -14 -15 -14 -18 0 -20 14 -3 19
8 3 6 7 -5 11 -9 3 -23 0 -31 -9 -13 -13 -16 -12 -25 3 -9 16 -10 16 -11 -4 0
-13 -5 -23 -11 -23 -6 0 -9 8 -6 19 3 14 -2 18 -26 19 -23 1 -27 -2 -17 -8z"/>
<path d="M1540 2170 c-8 -5 -12 -11 -9 -14 2 -3 11 -1 19 4 8 5 12 11 9 14 -2
3 -11 1 -19 -4z"/>
<path d="M1350 2160 c0 -5 5 -10 10 -10 6 0 10 5 10 10 0 6 -4 10 -10 10 -5 0
-10 -4 -10 -10z"/>
<path d="M1450 2160 c0 -5 7 -7 15 -4 8 4 15 8 15 10 0 2 -7 4 -15 4 -8 0 -15
-4 -15 -10z"/>
<path d="M555 2221 c-3 -5 -1 -12 5 -16 12 -7 30 2 30 16 0 12 -27 12 -35 0z"/>
<path d="M670 2220 c0 -5 4 -10 9 -10 6 0 13 5 16 10 3 6 -1 10 -9 10 -9 0
-16 -4 -16 -10z"/>
<path d="M840 2219 c0 -5 5 -7 10 -4 6 3 10 8 10 11 0 2 -4 4 -10 4 -5 0 -10
-5 -10 -11z"/>
<path d="M1302 1908 c-9 -12 -42 -85 -42 -94 0 -2 27 -4 60 -4 33 0 60 4 60 9
0 5 -9 29 -20 55 -21 46 -39 57 -58 34z"/>
<path d="M1480 1065 c0 -8 5 -15 10 -15 6 0 10 7 10 15 0 8 -4 15 -10 15 -5 0
-10 -7 -10 -15z"/>
<path d="M700 1050 c0 -5 9 -10 21 -10 11 0 17 5 14 10 -3 6 -13 10 -21 10 -8
0 -14 -4 -14 -10z"/>
<path d="M625 840 c3 -5 8 -10 11 -10 2 0 4 5 4 10 0 6 -5 10 -11 10 -5 0 -7
-4 -4 -10z"/>
<path d="M870 839 c0 -5 5 -7 10 -4 6 3 10 8 10 11 0 2 -4 4 -10 4 -5 0 -10
-5 -10 -11z"/>
<path d="M1591 654 c0 -11 3 -14 6 -6 3 7 2 16 -1 19 -3 4 -6 -2 -5 -13z"/>
<path d="M1428 2963 c12 -2 30 -2 40 0 9 3 -1 5 -23 4 -22 0 -30 -2 -17 -4z"/>
<path d="M1500 2950 c14 -9 119 -15 109 -6 -2 2 -31 6 -64 9 -39 4 -54 3 -45
-3z"/>
<path d="M138 2943 c-10 -2 -18 -9 -18 -14 0 -12 3 -12 36 6 28 14 19 18 -18
8z"/>
<path d="M1620 2936 c0 -2 9 -6 20 -9 11 -3 18 -1 14 4 -5 9 -34 13 -34 5z"/>
<path d="M1631 2885 c0 -17 7 -61 15 -100 l14 -70 -5 89 c-2 49 -9 94 -15 100
-7 7 -10 1 -9 -19z"/>
<path d="M704 2705 c0 -77 2 -107 3 -67 2 40 2 103 0 140 -2 37 -3 4 -3 -73z"/>
<path d="M951 2694 c0 -11 3 -14 6 -6 3 7 2 16 -1 19 -3 4 -6 -2 -5 -13z"/>
<path d="M82 2010 c0 -14 2 -19 5 -12 2 6 2 18 0 25 -3 6 -5 1 -5 -13z"/>
<path d="M1381 547 c2 -1 12 -9 22 -16 15 -12 17 -12 11 3 -3 9 -13 16 -22 16
-8 0 -13 -1 -11 -3z"/>
<path d="M1022 515 c0 -16 2 -22 5 -12 2 9 2 23 0 30 -3 6 -5 -1 -5 -18z"/>
<path d="M1051 508 c0 -18 3 -26 6 -18 3 8 9 17 13 20 4 3 2 11 -6 18 -12 11
-14 8 -13 -20z"/>
<path d="M1100 525 c0 -10 3 -15 7 -12 3 4 12 -1 19 -11 7 -9 14 -12 14 -6 0
6 -9 19 -20 29 -19 17 -20 17 -20 0z"/>
<path d="M1147 527 c-3 -8 -1 -20 4 -28 6 -10 9 -7 9 14 0 29 -5 35 -13 14z"/>
<path d="M946 522 c-2 -4 0 -14 6 -22 8 -12 9 -11 4 4 -5 14 -2 17 9 12 9 -3
13 -2 10 4 -7 12 -22 13 -29 2z"/>
<path d="M987 510 c-3 -11 -1 -20 4 -20 5 0 9 9 9 20 0 11 -2 20 -4 20 -2 0
-6 -9 -9 -20z"/>
<path d="M1367 523 c-4 -3 -7 -23 -7 -43 0 -36 14 -60 36 -60 13 0 35 52 33
79 0 9 -6 -2 -13 -24 -17 -58 -41 -53 -41 8 0 26 0 47 -1 47 0 0 -4 -3 -7 -7z"/>
<path d="M1283 480 c0 -25 2 -35 4 -22 2 12 2 32 0 45 -2 12 -4 2 -4 -23z"/>
<path d="M1338 463 c5 -21 7 -23 10 -9 2 10 0 22 -6 28 -6 6 -7 0 -4 -19z"/>
<path d="M1172 445 c-16 -35 -15 -44 3 -21 10 13 15 15 15 6 0 -7 2 -11 5 -8
3 3 2 15 -3 27 -8 23 -8 23 -20 -4z"/>
<path d="M1010 445 c0 -8 7 -15 15 -15 8 0 15 -5 15 -12 0 -6 3 -8 7 -5 3 4
-3 16 -15 27 -18 17 -22 18 -22 5z"/>
<path d="M1062 440 c0 -14 2 -19 5 -12 2 6 2 18 0 25 -3 6 -5 1 -5 -13z"/>
<path d="M1101 434 c0 -11 3 -14 6 -6 3 7 2 16 -1 19 -3 4 -6 -2 -5 -13z"/>
<path d="M1015 349 c-4 -6 -5 -12 -2 -15 2 -3 7 2 10 11 7 17 1 20 -8 4z"/>
<path d="M1131 334 c0 -11 3 -14 6 -6 3 7 2 16 -1 19 -3 4 -6 -2 -5 -13z"/>
<path d="M1030 330 c0 -5 5 -10 10 -10 6 0 10 5 10 10 0 6 -4 10 -10 10 -5 0
-10 -4 -10 -10z"/>
</g>
</svg>
