<?xml version="1.0" standalone="no"?>
<!DOCTYPE svg PUBLIC "-//W3C//DTD SVG 20010904//EN"
 "http://www.w3.org/TR/2001/REC-SVG-20010904/DTD/svg10.dtd">
<svg version="1.0" xmlns="http://www.w3.org/2000/svg"
 width="474.000000pt" height="474.000000pt" viewBox="0 0 474.000000 474.000000"
 preserveAspectRatio="xMidYMid meet">

<g transform="translate(0.000000,474.000000) scale(0.100000,-0.100000)"
fill="#000000" stroke="none">
<path d="M1975 4458 c-125 -10 -289 -41 -311 -59 -11 -9 -14 -46 -14 -179 0
-91 3 -170 8 -174 4 -4 7 -12 7 -18 0 -11 17 -23 48 -32 14 -4 17 -19 18 -86
1 -44 2 -86 3 -92 1 -9 23 -14 66 -16 36 -1 81 -5 100 -8 29 -5 31 -7 17 -15
-9 -6 -23 -7 -30 -2 -22 13 -153 -10 -143 -26 3 -4 -39 -18 -92 -30 -53 -13
-126 -34 -162 -47 -42 -15 -68 -20 -76 -13 -12 10 -38 -13 -40 -35 0 -6 -2
-17 -2 -24 -1 -7 -6 -11 -11 -8 -9 6 -22 -17 -20 -37 0 -7 4 -3 9 8 5 11 9 14
9 7 1 -7 -6 -23 -14 -36 -20 -30 -32 -151 -16 -160 14 -9 15 -46 1 -46 -14 0
-12 -27 3 -33 10 -3 10 -9 0 -26 -16 -25 -16 -34 -3 -26 14 9 12 -39 -2 -53
-9 -9 -9 -12 0 -12 16 0 15 -47 0 -54 -10 -5 -10 -7 0 -12 6 -3 12 -16 12 -29
0 -13 -6 -25 -12 -28 -10 -3 -10 -10 2 -32 12 -22 12 -29 3 -32 -7 -3 -13 -9
-13 -14 0 -6 5 -7 10 -4 6 4 10 -6 10 -22 0 -22 -2 -25 -10 -13 -7 11 -10 7
-10 -17 0 -18 5 -33 10 -33 6 0 10 -7 10 -15 0 -8 -4 -15 -10 -15 -6 0 -10
-27 -10 -61 0 -37 4 -58 10 -54 6 3 10 -1 10 -9 0 -9 -4 -16 -10 -16 -5 0 -10
-9 -10 -20 0 -11 5 -20 10 -20 6 0 10 -7 10 -15 0 -8 -4 -15 -10 -15 -5 0 -10
-9 -10 -21 0 -11 5 -17 10 -14 6 3 10 -3 10 -14 0 -12 -4 -21 -10 -21 -5 0
-10 -9 -10 -20 0 -11 4 -20 10 -20 6 0 5 -11 -3 -27 -9 -21 -9 -27 1 -31 14
-4 16 -32 2 -32 -5 0 -10 -9 -10 -20 0 -11 5 -20 10 -20 14 0 12 -37 -2 -43
-10 -4 -10 -6 0 -6 15 -1 16 -43 1 -58 -8 -8 -7 -17 3 -32 11 -18 11 -23 -2
-31 -12 -8 -13 -13 -2 -30 10 -16 10 -20 0 -20 -9 0 -8 -3 2 -10 10 -6 11 -10
3 -10 -7 0 -13 -9 -13 -21 0 -11 5 -17 10 -14 6 3 10 -3 10 -14 0 -12 -4 -21
-10 -21 -5 0 -10 -10 -10 -22 0 -19 2 -20 10 -8 8 12 10 9 10 -13 0 -16 -4
-26 -10 -22 -5 3 -10 -3 -10 -14 0 -12 5 -21 10 -21 6 0 10 -9 10 -20 0 -11
-4 -20 -10 -20 -5 0 -10 -7 -10 -15 0 -8 5 -15 10 -15 6 0 10 -7 10 -15 0 -8
-4 -15 -10 -15 -5 0 -10 -9 -10 -20 0 -11 5 -20 10 -20 6 0 10 -9 10 -21 0
-11 -4 -17 -10 -14 -6 3 -10 -4 -10 -17 0 -18 2 -20 10 -8 7 11 10 7 10 -18 0
-20 -4 -31 -10 -27 -14 9 -13 -11 3 -36 10 -17 10 -23 0 -26 -15 -6 -17 -33
-3 -33 13 0 13 -37 1 -42 -11 -4 -18 -1034 -7 -1058 5 -13 -1 -16 -29 -18 -19
-2 -45 -6 -57 -11 -21 -7 -20 -9 12 -19 46 -15 301 -39 515 -48 94 -4 368 -8
610 -7 558 0 877 17 1134 59 48 8 21 24 -41 24 -46 0 -61 11 -37 26 8 4 9 50
4 153 -12 263 -13 505 -2 519 7 9 7 23 -2 47 -9 25 -9 40 -2 54 8 13 10 262 6
788 -2 422 -4 900 -5 1061 0 245 -2 292 -14 292 -8 0 -16 4 -18 9 -2 7 -71 18
-135 20 -20 1 -70 105 -67 140 3 39 -15 51 -106 76 -36 9 -68 21 -71 26 -3 5
-45 17 -95 26 l-89 18 92 5 c90 5 122 14 86 23 -10 3 -40 10 -66 17 -27 7 -46
18 -44 24 2 6 11 10 19 10 12 -1 16 13 17 72 1 60 -1 74 -16 83 -10 6 -13 10
-8 11 27 0 34 -19 36 -98 2 -82 14 -100 22 -32 l4 35 2 -35 c1 -24 9 -40 26
-53 l25 -18 0 74 c0 73 0 73 33 88 17 8 32 19 32 26 0 6 3 15 8 19 9 10 9 326
-1 341 -19 30 -147 57 -347 73 -145 12 -628 11 -780 -2z m155 -12 c0 -9 -50
-12 -62 -5 -8 6 1 9 25 9 20 0 37 -2 37 -4z m27 -228 c-1 -46 -3 -11 -3 77 0
88 2 125 3 83 2 -42 2 -114 0 -160z m453 222 c0 -5 -2 -10 -4 -10 -3 0 -8 5
-11 10 -3 6 -1 10 4 10 6 0 11 -4 11 -10z m88 3 c-10 -2 -28 -2 -40 0 -13 2
-5 4 17 4 22 1 32 -1 23 -4z m-749 -7 c-2 -2 -17 -6 -34 -10 -22 -5 -26 -4
-15 4 14 9 59 15 49 6z m48 -2 c-3 -3 -12 -4 -19 -1 -8 3 -5 6 6 6 11 1 17 -2
13 -5z m818 -4 c-27 -12 -43 -12 -25 0 8 5 22 9 30 9 10 0 8 -3 -5 -9z m-938
-6 c-3 -3 -12 -4 -19 -1 -8 3 -5 6 6 6 11 1 17 -2 13 -5z m725 -190 c-7 -61
-8 -55 -8 61 0 110 2 120 8 69 5 -34 5 -93 0 -130z m308 21 c0 -122 -2 -135
-17 -134 -11 0 -13 3 -5 6 9 3 12 40 12 134 0 71 2 129 5 129 3 0 5 -61 5
-135z m97 63 c-2 -13 -4 -3 -4 22 0 25 2 35 4 23 2 -13 2 -33 0 -45z m-1143
-15 c-9 -52 -14 -54 -14 -5 0 23 5 42 10 42 7 0 8 -14 4 -37z m753 -115 c-3
-7 -5 -2 -5 12 0 14 2 19 5 13 2 -7 2 -19 0 -25z m204 -36 c-7 -2 -18 1 -23 6
-8 8 -4 9 13 5 13 -4 18 -8 10 -11z m-701 -18 c0 -2 -28 -3 -62 -3 -56 2 -58
3 -23 8 38 6 85 3 85 -5z m610 6 c-8 -5 -26 -9 -40 -9 -23 1 -23 2 5 9 43 11
52 11 35 0z m-770 -16 c0 -2 -14 -4 -31 -4 -16 0 -28 4 -25 9 5 8 56 3 56 -5z
m880 6 c0 -5 -9 -10 -20 -10 -11 0 -20 5 -20 10 0 6 9 10 20 10 11 0 20 -4 20
-10z m-950 -4 c0 -2 -9 -6 -20 -9 -11 -3 -18 -1 -14 4 5 9 34 13 34 5z m148
-73 c-10 -2 -26 -2 -35 0 -10 3 -2 5 17 5 19 0 27 -2 18 -5z m745 0 c-18 -2
-48 -2 -65 0 -18 2 -4 4 32 4 36 0 50 -2 33 -4z m-867 -33 c-2 -16 0 -27 4
-25 13 8 39 -29 36 -50 -2 -11 -11 -21 -22 -23 -14 -2 -16 -1 -6 6 11 8 11 10
-1 15 -10 4 -14 0 -13 -11 2 -13 15 -17 59 -17 31 -1 60 -5 64 -9 5 -5 -9 -6
-30 -2 -27 5 -37 4 -32 -3 3 -6 23 -12 43 -13 23 0 13 -3 -28 -8 -36 -3 -71
-4 -77 -2 -16 5 -18 172 -3 172 5 0 8 -13 6 -30z m934 -54 c0 -47 -3 -86 -7
-88 -5 -2 -57 1 -118 8 -85 9 -97 12 -50 12 90 1 105 3 70 12 l-30 8 31 1 c17
0 37 -6 44 -14 7 -8 20 -14 29 -14 14 1 14 2 -1 6 -9 2 -20 13 -23 24 -5 16
-13 19 -33 15 -18 -4 -13 1 16 15 39 20 42 24 42 60 0 28 4 39 15 39 12 0 15
-16 15 -84z m130 24 c0 -22 -2 -40 -4 -40 -2 0 -6 18 -8 40 -2 22 0 40 4 40 5
0 8 -18 8 -40z m-800 -65 c0 -14 -4 -25 -9 -25 -4 0 -6 11 -3 25 2 14 6 25 8
25 2 0 4 -11 4 -25z m-173 9 c-3 -3 -12 -4 -19 -1 -8 3 -5 6 6 6 11 1 17 -2
13 -5z m578 -4 c3 -5 1 -10 -4 -10 -6 0 -11 5 -11 10 0 6 2 10 4 10 3 0 8 -4
11 -10z m-522 -7 c-7 -2 -19 -2 -25 0 -7 3 -2 5 12 5 14 0 19 -2 13 -5z m597
3 c0 -2 -7 -7 -16 -10 -8 -3 -12 -2 -9 4 6 10 25 14 25 6z m-565 -16 c-16 -7
-12 -9 20 -11 39 -2 39 -2 7 -6 -19 -3 -41 -2 -50 2 -14 5 -14 7 -2 15 8 6 22
9 30 9 10 0 8 -3 -5 -9z m508 -7 c-7 -2 -19 -2 -25 0 -7 3 -2 5 12 5 14 0 19
-2 13 -5z m-610 -120 c-7 -2 -19 -2 -25 0 -7 3 -2 5 12 5 14 0 19 -2 13 -5z
m914 -19 c-3 -3 -12 -4 -19 -1 -8 3 -5 6 6 6 11 1 17 -2 13 -5z m-1497 -108
c0 -2 -8 -10 -17 -17 -16 -13 -17 -12 -4 4 13 16 21 21 21 13z m24 -38 c-11
-13 -29 -50 -40 -82 -15 -47 -20 -54 -22 -34 -3 29 40 123 60 131 22 9 22 8 2
-15z m551 -28 c3 -5 -13 -7 -44 -3 -27 3 -62 2 -78 -2 l-28 -8 29 -6 c28 -6
29 -7 13 -23 -16 -15 -16 -17 1 -22 9 -3 2 -4 -15 -2 -18 1 -33 -1 -33 -4 0
-4 -42 -10 -92 -14 -51 -4 -103 -10 -115 -13 -26 -6 -28 3 -13 59 6 20 18 39
28 41 34 9 341 7 347 -3z m800 0 c-3 -5 -21 -10 -38 -10 -28 0 -33 -4 -35 -27
-4 -45 -22 -52 -19 -7 2 35 5 40 32 45 48 10 67 10 60 -1z m50 0 c-3 -5 -14
-10 -23 -10 -15 0 -15 2 -2 10 20 13 33 13 25 0z m82 4 c-3 -3 -12 -4 -19 -1
-8 3 -5 6 6 6 11 1 17 -2 13 -5z m217 -16 c9 -12 16 -38 16 -56 0 -33 -1 -34
-31 -28 -17 3 -42 6 -56 6 -13 0 -22 4 -19 8 3 5 -9 6 -26 4 -21 -3 -29 -1
-24 7 5 7 -3 11 -21 12 -17 1 -21 3 -11 6 16 4 16 6 2 20 -11 11 -27 14 -61
10 -35 -4 -42 -2 -29 5 11 6 45 7 85 3 44 -4 63 -3 56 3 -5 6 -23 12 -40 15
-16 2 9 5 57 6 79 1 88 -1 102 -21z m-1072 -30 c-4 -40 -22 -53 -22 -17 0 20
19 64 24 57 2 -1 1 -20 -2 -40z m-94 15 c-10 -2 -26 -2 -35 0 -10 3 -2 5 17 5
19 0 27 -2 18 -5z m866 -33 c5 -5 21 -10 35 -10 13 0 22 -2 19 -5 -3 -3 -42
-3 -87 1 -67 6 -81 10 -81 24 0 15 6 16 52 9 28 -5 56 -13 62 -19z m78 8 c-7
-7 -12 -8 -12 -2 0 6 3 14 7 17 3 4 9 5 12 2 2 -3 -1 -11 -7 -17z m-939 5 c-7
-2 -19 -2 -25 0 -7 3 -2 5 12 5 14 0 19 -2 13 -5z m4 -19 c-3 -3 -12 -4 -19
-1 -8 3 -5 6 6 6 11 1 17 -2 13 -5z m537 -148 c68 -1 81 -4 84 -18 3 -14 -3
-18 -28 -18 -37 0 -37 -21 1 -30 20 -5 25 -13 27 -46 4 -50 -13 -66 -65 -62
-27 2 -39 8 -41 21 -3 13 3 17 27 17 34 0 44 24 14 33 -10 2 -26 8 -36 12 -10
4 -17 4 -16 -1 1 -5 1 -26 0 -46 l-1 -38 -85 0 c-74 0 -85 2 -85 18 -1 16 -1
16 -11 0 -12 -21 -78 -25 -97 -6 -9 9 -12 9 -12 0 0 -7 -11 -12 -25 -12 -22 0
-25 4 -25 37 0 44 -8 40 -12 -5 -2 -27 -6 -32 -29 -32 -26 0 -27 2 -23 47 4
38 2 45 -8 35 -6 -6 -20 -12 -30 -12 -10 0 -18 -6 -19 -12 -1 -18 -9 -61 -12
-64 -1 -1 -12 2 -25 7 -21 8 -22 13 -17 76 9 108 2 102 116 102 83 0 101 -3
106 -16 6 -14 7 -14 19 1 9 13 24 16 56 14 l43 -3 6 -65 c3 -36 6 -58 7 -49 1
8 13 26 27 39 14 13 25 27 25 32 0 4 -11 8 -25 8 -18 0 -25 5 -25 19 0 16 8
20 43 23 23 2 48 1 56 -1 8 -2 50 -5 95 -5z m266 -11 c18 -21 5 -146 -16 -162
-9 -7 -35 -10 -62 -7 -82 8 -82 8 -82 80 0 95 7 104 84 104 45 0 67 -5 76 -15z
m543 -51 c30 -5 37 -11 37 -29 0 -19 -4 -22 -27 -18 -61 9 -69 13 -70 33 -2
22 3 23 60 14z m55 -66 c6 -1 12 -12 12 -25 0 -21 -4 -24 -27 -19 -16 2 -54 8
-85 11 -47 5 -58 10 -58 24 0 16 8 18 73 14 39 -2 78 -4 85 -5z m-30 -362 c7
-8 -12 -36 -24 -36 -12 0 -34 29 -34 45 0 6 51 -2 58 -9z m-37 -56 c11 0 19
-7 20 -17 1 -17 2 -17 6 0 2 9 11 17 19 17 9 0 14 -7 12 -17 -2 -14 -15 -19
-55 -20 -29 -2 -55 2 -58 8 -11 17 4 42 21 35 9 -3 24 -6 35 -6z m-1974 -32
c-3 -8 -6 -5 -6 6 -1 11 2 17 5 13 3 -3 4 -12 1 -19z m266 -366 c9 -10 20 -32
23 -49 5 -25 2 -31 -16 -36 -17 -4 -24 -1 -27 14 -3 12 -12 19 -22 17 -14 -3
-16 -21 -16 -128 0 -107 2 -125 16 -128 10 -2 19 5 22 18 7 27 47 28 47 0 0
-59 -54 -102 -96 -75 -33 21 -45 79 -43 198 1 100 16 162 42 179 21 13 53 9
70 -10z m182 -4 c7 -34 65 -354 65 -362 0 -4 -15 -6 -32 -4 -28 2 -34 8 -36
31 -3 21 -9 27 -28 27 -19 0 -26 -6 -30 -30 -6 -25 -11 -30 -36 -30 -20 0 -29
4 -25 13 2 6 17 94 33 195 l28 182 28 0 c20 0 29 -6 33 -22z m295 -8 l0 -30
-60 0 -60 0 0 -50 0 -50 50 0 50 0 0 -35 0 -35 -50 0 -50 0 0 -80 0 -80 -35 0
-35 0 0 195 0 195 95 0 95 0 0 -30z m260 0 l0 -30 -60 0 -60 0 0 -50 0 -50 50
0 c49 0 50 -1 50 -30 0 -29 -1 -30 -50 -30 l-50 0 0 -86 0 -85 -37 3 -38 3 -3
193 -2 192 100 0 100 0 0 -30z m270 0 l0 -30 -65 0 -65 0 0 -50 0 -50 50 0
c49 0 50 -1 50 -29 0 -28 -2 -30 -47 -33 l-48 -3 -3 -47 -3 -48 65 0 66 0 0
-35 0 -35 -100 0 -100 0 0 195 0 195 100 0 100 0 0 -30z m240 -5 c0 -31 -3
-35 -25 -35 l-25 0 0 -124 0 -125 28 -3 c18 -2 27 -8 26 -20 -1 -10 -2 -25 -3
-33 -1 -12 -18 -15 -87 -15 l-85 0 3 33 c2 26 7 32 27 32 24 0 24 1 25 128 1
95 -2 127 -11 128 -7 1 -19 2 -25 3 -7 0 -14 16 -16 34 l-3 32 85 0 86 0 0
-35z m155 -65 c16 -55 30 -100 32 -100 3 0 3 30 2 68 -4 121 -2 134 24 130 22
-3 22 -4 25 -195 l2 -193 -28 0 c-28 0 -31 4 -63 103 l-34 102 -3 -102 c-3
-102 -3 -103 -27 -103 l-25 0 0 195 0 195 33 0 34 0 28 -100z m243 90 c1 0 2
-13 2 -30 0 -28 -3 -30 -35 -30 -35 0 -35 0 -35 -44 0 -41 2 -45 28 -48 22 -2
28 -8 30 -35 3 -31 1 -33 -27 -33 -30 0 -31 -1 -31 -45 0 -45 0 -45 35 -45 33
0 35 -2 35 -35 l0 -35 -64 0 -64 0 0 187 c0 103 2 191 5 196 4 7 63 6 121 -3z
m-1021 -556 c3 -8 -4 -25 -17 -39 l-22 -23 24 -5 c21 -4 20 -4 -4 -6 -33 -1
-36 11 -8 39 22 22 18 45 -7 36 -8 -3 -11 -1 -8 4 9 15 35 12 42 -6z m57 10
c21 -8 22 -72 1 -80 -35 -14 -61 46 -33 74 14 14 12 14 32 6z m81 -39 c0 -31
-4 -41 -19 -43 -32 -7 -50 50 -24 76 24 24 43 9 43 -33z m137 -10 c3 -14 1
-25 -3 -25 -5 0 -9 9 -9 20 0 11 -4 20 -10 20 -5 0 -10 -9 -10 -20 0 -11 -4
-20 -10 -20 -5 0 -10 9 -10 20 0 11 -4 20 -10 20 -5 0 -10 -11 -10 -25 0 -14
-4 -25 -10 -25 -5 0 -10 14 -10 30 0 29 2 30 44 30 39 0 44 -3 48 -25z m76 2
c7 -34 -7 -67 -28 -67 -10 0 -21 4 -24 9 -4 5 3 7 14 4 11 -3 20 -1 20 5 0 5
-9 12 -20 15 -19 5 -27 36 -13 51 13 13 48 1 51 -17z m-1025 -595 c62 -42 117
-157 117 -248 0 -46 -25 -121 -56 -166 -87 -125 -204 -69 -221 105 -5 57 -5
61 11 48 9 -7 16 -19 16 -25 0 -6 -5 -4 -10 4 -8 12 -10 9 -10 -12 0 -22 4
-26 18 -22 16 5 16 5 1 -8 -15 -12 -15 -18 -3 -53 15 -44 64 -95 93 -95 34 0
85 45 113 99 24 45 28 65 28 130 0 63 -5 86 -29 137 -54 115 -138 139 -195 54
-9 -13 -16 -18 -16 -11 0 22 66 81 92 81 12 0 35 -8 51 -18z m1736 8 c10 -5
25 -20 34 -33 17 -26 52 -137 39 -122 -5 6 -15 31 -22 57 -12 45 -39 79 -71
90 -19 7 -87 -21 -73 -30 14 -10 25 -42 14 -42 -5 0 -12 9 -15 20 -9 29 -17
25 -47 -23 -73 -116 -60 -275 31 -361 40 -38 94 -41 122 -7 19 23 26 46 11 37
-4 -2 -14 0 -22 5 -11 8 -8 9 13 6 24 -4 28 0 39 35 10 33 9 41 -2 48 -8 5
-11 12 -8 15 12 12 28 -5 28 -29 0 -35 -28 -97 -58 -128 -36 -39 -80 -38 -127
4 -54 47 -78 101 -83 188 -5 90 8 143 48 199 49 67 106 94 149 71z m-32 -36
c4 -14 -15 -39 -24 -31 -4 5 -1 12 7 17 10 7 11 10 3 10 -7 0 -13 5 -13 11 0
13 22 7 27 -7z m26 -14 c-7 -28 -13 -25 -13 6 0 14 4 23 9 20 5 -3 7 -15 4
-26z m-1760 3 c-6 -16 -52 -37 -61 -28 -3 3 0 5 7 5 7 0 9 5 6 10 -4 6 -12 7
-19 3 -7 -4 -5 -1 4 7 22 20 70 23 63 3z m27 -13 c-7 -14 -7 -20 0 -20 5 0 10
5 10 10 0 6 10 2 22 -10 31 -29 10 -48 -22 -20 -13 11 -27 20 -32 20 -4 0 -3
9 4 20 7 11 16 20 21 20 4 0 3 -9 -3 -20z m370 -30 c5 0 11 11 14 25 6 23 6
23 4 -2 -4 -36 -33 -38 -34 -3 -1 22 0 22 3 3 2 -13 8 -23 13 -23z m142 20
c-4 -29 -25 -40 -37 -20 -3 6 -11 10 -16 10 -6 0 -8 -4 -5 -8 3 -5 -7 -9 -22
-9 -20 0 -28 6 -29 19 -1 10 2 18 8 18 5 0 9 -5 9 -11 0 -8 5 -8 15 1 8 7 22
10 30 6 8 -3 21 1 27 9 20 22 25 18 20 -15z m54 10 c8 0 14 -9 14 -20 0 -13
-7 -20 -20 -20 -16 0 -20 6 -19 33 0 17 3 26 6 20 2 -7 11 -13 19 -13z m201
-27 c-3 -10 -5 -2 -5 17 0 19 2 27 5 18 2 -10 2 -26 0 -35z m320 15 c1 -27 -1
-29 -7 -13 l-9 20 -1 -20 c-2 -17 -3 -17 -7 -3 -3 13 11 43 23 48 1 0 1 -15 1
-32z m53 2 c0 -19 -5 -30 -14 -30 -25 0 -29 20 -10 40 25 24 24 25 24 -10z
m120 0 c0 -19 -5 -30 -14 -30 -25 0 -29 20 -10 40 25 24 24 25 24 -10z m-557
-5 c-3 -8 0 -15 6 -15 6 0 10 3 10 8 -1 4 -1 13 0 21 2 20 31 -7 30 -28 0 -12
-2 -11 -9 4 -7 17 -9 17 -9 3 -1 -11 -9 -18 -21 -18 -15 0 -20 7 -20 26 0 14
4 23 10 19 5 -3 7 -12 3 -20z m137 12 c0 -7 -10 -13 -22 -14 -11 -1 -25 -8
-30 -15 -7 -9 -8 -7 -6 7 2 11 11 20 20 20 9 0 20 4 24 8 11 10 14 9 14 -6z
m913 -2 c-3 -9 -8 -14 -10 -11 -3 3 -2 9 2 15 9 16 15 13 8 -4z m-1073 -17 c0
-12 -1 -19 -3 -17 -1 2 -9 12 -16 22 -12 14 -11 17 3 17 10 0 16 -8 16 -22z
m237 0 c1 -10 -3 -18 -8 -18 -6 0 -8 4 -5 9 3 5 -5 11 -19 13 -26 5 -35 -6
-12 -15 7 -3 5 -6 -5 -6 -10 -1 -18 5 -18 12 0 20 7 24 38 24 20 0 28 -6 29
-19z m74 8 c5 3 9 1 9 -5 0 -15 -20 -24 -21 -9 0 10 -2 10 -6 0 -5 -13 -23 -7
-23 9 0 6 5 7 10 4 6 -3 10 0 11 7 0 10 2 10 6 0 2 -6 9 -10 14 -6z m54 4 c10
-16 -16 -43 -28 -31 -11 11 -2 41 12 41 5 0 13 -5 16 -10z m125 -23 c0 -5 -4
-5 -10 -2 -5 3 -10 14 -10 23 0 15 2 15 10 2 5 -8 10 -19 10 -23z m21 24 c4 7
11 10 15 7 3 -4 -1 -14 -10 -23 -9 -9 -16 -14 -16 -12 0 3 -2 11 -3 19 -2 7
-2 9 1 4 2 -4 8 -2 13 5z m113 1 c2 -4 1 -14 -4 -22 -7 -11 -12 -12 -21 -3 -6
6 -8 16 -5 22 8 13 23 14 30 3z m-684 -12 c0 -3 -6 -14 -12 -23 -12 -16 -13
-15 -13 6 0 13 6 24 13 24 6 0 12 -3 12 -7z m1010 -17 c-1 -24 -2 -26 -11 -10
-5 9 -7 22 -4 27 10 17 15 11 15 -17z m140 6 c0 -11 -4 -18 -10 -14 -5 3 -7
12 -3 20 7 21 13 19 13 -6z m-1766 -29 c14 -17 31 -48 37 -69 30 -100 -40
-233 -104 -199 -28 15 -57 70 -57 109 0 20 -7 50 -16 65 l-16 29 5 -28 c2 -15
1 -29 -2 -32 -4 -2 -8 14 -9 35 -2 32 0 38 12 34 8 -3 17 -15 19 -27 3 -15 5
-11 6 11 0 20 -3 31 -9 27 -6 -3 -7 1 -3 10 5 13 7 14 14 3 7 -10 9 -9 9 4 0
9 -4 20 -10 23 -5 3 -10 11 -10 18 0 6 6 3 13 -7 12 -16 14 -16 31 3 27 30 60
26 90 -9z m1746 -2 c10 -17 22 -49 25 -70 8 -47 32 -51 38 -5 2 17 4 1 4 -38
0 -38 -2 -55 -4 -37 -3 18 -10 32 -18 32 -18 0 -31 -78 -16 -93 6 -6 11 -16
11 -22 0 -5 -7 -2 -14 7 -12 16 -14 16 -24 -7 -40 -87 -142 -14 -142 102 0
131 89 215 140 131z m-1689 -21 c-13 -13 -26 -3 -16 12 3 6 11 8 17 5 6 -4 6
-10 -1 -17z m-214 -9 c-3 -8 -6 -5 -6 6 -1 11 2 17 5 13 3 -3 4 -12 1 -19z
m226 -14 c7 -7 -2 -34 -12 -34 -4 0 -7 9 -8 20 -2 19 8 26 20 14z m17 -44 c0
-5 -8 -10 -17 -10 -15 0 -16 2 -3 10 19 12 20 12 20 0z m0 -42 c0 -13 -23 -5
-28 10 -2 7 2 10 12 6 9 -3 16 -11 16 -16z m1503 5 c-7 -2 -19 -2 -25 0 -7 3
-2 5 12 5 14 0 19 -2 13 -5z m-1503 -43 c0 -4 -6 -13 -14 -19 -10 -9 -15 -8
-19 3 -4 11 -1 13 11 9 15 -6 15 -5 3 10 -12 15 -12 17 3 11 9 -3 16 -10 16
-14z m1510 -63 c-8 -9 -10 -8 -5 6 4 10 2 17 -5 17 -6 0 -8 5 -4 11 5 8 10 6
16 -6 7 -11 6 -21 -2 -28z m-1535 12 c11 -16 1 -19 -13 -3 -7 8 -8 14 -3 14 5
0 13 -5 16 -11z m-174 -21 c1 -7 1 -16 0 -20 0 -5 4 -8 9 -8 6 0 10 -9 10 -21
0 -11 -5 -17 -10 -14 -6 4 -8 10 -5 15 3 4 1 10 -4 12 -13 5 -24 48 -12 48 6
0 12 -6 12 -12z m163 -29 c-3 -5 -12 -9 -20 -9 -8 0 -13 -3 -11 -7 3 -5 -1
-14 -9 -20 -9 -9 -15 -9 -20 -2 -8 14 28 47 46 41 13 -5 13 -3 0 14 -14 18
-14 18 2 5 10 -7 15 -17 12 -22z m1581 10 c4 -5 -2 -6 -11 -2 -13 5 -16 3 -11
-10 8 -23 0 -22 -12 1 -7 14 -6 18 10 19 10 1 21 -2 24 -8z m-1064 -15 c11
-14 13 -14 21 0 23 41 71 -11 49 -52 -12 -23 -37 -20 -58 7 -10 14 -12 14 -18
-1 -7 -17 -37 -26 -33 -10 0 4 -2 15 -6 25 -18 38 18 64 45 31z m163 10 c9 -3
14 -10 11 -15 -3 -4 -12 -6 -19 -3 -17 7 -28 -9 -21 -29 7 -18 55 -10 55 9 0
21 17 25 34 8 10 -10 16 -11 16 -3 0 8 13 10 40 6 22 -3 42 -2 45 2 8 14 65
-1 66 -18 1 -14 2 -13 6 2 7 25 23 21 23 -7 0 -24 -34 -43 -46 -25 -3 5 -14 4
-26 -2 -14 -8 -23 -8 -31 0 -8 8 -8 11 2 11 7 0 9 5 6 11 -5 6 -13 3 -22 -10
-8 -12 -21 -21 -29 -21 -8 0 -12 -4 -9 -10 3 -5 -1 -10 -9 -10 -9 0 -16 7 -16
15 0 11 -11 14 -47 11 -59 -4 -83 7 -83 39 0 13 8 29 18 34 21 13 17 12 36 5z
m286 -25 l0 -31 19 23 c16 19 21 21 34 11 10 -9 17 -10 22 -2 3 5 12 10 19 10
17 0 27 -45 13 -59 -14 -14 -37 -2 -31 17 5 16 5 16 -8 0 -9 -10 -28 -16 -51
-15 -36 1 -37 2 -37 39 0 21 5 38 10 38 6 0 10 -14 10 -31z m648 -7 c2 -7 8
-10 13 -6 5 3 9 -2 9 -10 0 -22 18 -20 22 2 3 14 5 13 10 -4 5 -18 2 -22 -18
-19 -13 1 -30 7 -37 14 -8 6 -18 7 -23 3 -4 -4 -2 1 5 11 12 15 12 17 -3 11
-9 -3 -16 -2 -16 4 0 14 33 8 38 -6z m-1683 -13 c5 -6 5 -13 -2 -20 -14 -14
-36 -2 -27 13 4 7 2 8 -5 4 -6 -4 -8 -12 -5 -18 4 -6 1 -9 -6 -6 -7 2 -15 14
-17 26 -3 20 0 22 25 16 15 -4 31 -11 37 -15z m364 -151 c105 -2 155 -6 158
-14 2 -6 3 -31 1 -55 l-3 -44 -12 35 c-11 33 -11 33 -12 8 -1 -16 -9 -32 -21
-38 -15 -8 -18 -7 -15 2 4 10 -22 13 -117 13 -79 0 -127 4 -133 11 -14 16 -65
27 -65 15 0 -6 -7 -8 -15 -5 -10 4 -15 0 -15 -12 0 -14 -3 -15 -12 -6 -8 8
-15 9 -25 1 -10 -9 -13 -1 -13 46 l0 57 73 -6 c39 -3 141 -7 226 -8z m1261
-30 c-1 -44 -21 -85 -38 -74 -6 3 -50 8 -99 10 -95 4 -143 13 -143 27 0 9 28
14 63 11 9 -1 17 3 17 9 0 12 -46 9 -159 -11 -47 -8 -66 -8 -77 1 -11 9 -14 8
-13 -7 4 -34 -1 -55 -10 -50 -5 3 -9 28 -9 56 l0 50 47 0 c94 1 346 12 350 16
2 2 19 4 38 4 32 0 33 -1 33 -42z m-1277 -85 c-24 -2 -62 -2 -85 0 -24 2 -5 4
42 4 47 0 66 -2 43 -4z m1135 0 c-42 -2 -114 -2 -160 0 -46 1 -11 3 77 3 88 0
125 -2 83 -3z"/>
<path d="M1938 3893 c7 -3 16 -2 19 1 4 3 -2 6 -13 5 -11 0 -14 -3 -6 -6z"/>
<path d="M2833 3975 c0 -33 2 -45 4 -27 2 18 2 45 0 60 -2 15 -4 0 -4 -33z"/>
<path d="M1650 3565 c0 -8 2 -15 4 -15 2 0 6 7 10 15 3 8 1 15 -4 15 -6 0 -10
-7 -10 -15z"/>
<path d="M1670 3522 c0 -5 14 -7 30 -4 17 2 30 6 30 8 0 2 -13 4 -30 4 -16 0
-30 -4 -30 -8z"/>
<path d="M2131 3324 c0 -11 3 -14 6 -6 3 7 2 16 -1 19 -3 4 -6 -2 -5 -13z"/>
<path d="M2253 3295 c0 -27 2 -38 4 -22 2 15 2 37 0 50 -2 12 -4 0 -4 -28z"/>
<path d="M2398 3285 c-35 -41 -35 -45 2 -45 28 0 30 2 30 40 0 22 -1 40 -2 39
-2 0 -15 -15 -30 -34z"/>
<path d="M2700 3322 c0 -4 5 -13 11 -19 8 -8 6 -18 -6 -37 -21 -32 -6 -34 23
-3 20 21 20 23 2 45 -19 23 -30 28 -30 14z"/>
<path d="M2660 3285 c0 -8 4 -15 9 -15 5 0 11 7 15 15 3 9 0 15 -9 15 -8 0
-15 -7 -15 -15z"/>
<path d="M1740 2220 c0 -22 5 -40 10 -40 6 0 10 18 10 40 0 22 -4 40 -10 40
-5 0 -10 -18 -10 -40z"/>
<path d="M2260 1855 c0 -25 4 -35 13 -32 6 2 12 16 12 32 0 16 -6 30 -12 33
-9 2 -13 -8 -13 -33z"/>
<path d="M2333 1875 c-11 -19 -6 -55 7 -55 14 0 22 38 12 56 -9 16 -10 15 -19
-1z"/>
<path d="M2534 1849 c-10 -17 13 -36 27 -22 12 12 4 33 -11 33 -5 0 -12 -5
-16 -11z"/>
<path d="M2030 1180 c0 -5 5 -10 10 -10 6 0 10 5 10 10 0 6 -4 10 -10 10 -5 0
-10 -4 -10 -10z"/>
<path d="M2100 1180 c0 -5 5 -10 10 -10 6 0 10 5 10 10 0 6 -4 10 -10 10 -5 0
-10 -4 -10 -10z"/>
<path d="M2660 1180 c0 -5 5 -10 10 -10 6 0 10 5 10 10 0 6 -4 10 -10 10 -5 0
-10 -4 -10 -10z"/>
<path d="M2780 1180 c0 -5 5 -10 10 -10 6 0 10 5 10 10 0 6 -4 10 -10 10 -5 0
-10 -4 -10 -10z"/>
<path d="M2570 1174 c0 -8 5 -12 10 -9 6 3 10 10 10 16 0 5 -4 9 -10 9 -5 0
-10 -7 -10 -16z"/>
<path d="M1460 1118 c-39 -65 -19 -208 32 -227 54 -20 92 40 86 135 -5 74 -30
117 -71 122 -21 3 -31 -4 -47 -30z m50 -39 c0 -4 9 -5 20 -2 17 5 20 0 20 -29
0 -41 -8 -52 -27 -37 -10 9 -13 8 -13 -2 0 -18 -17 1 -23 26 -4 18 -5 18 -6
-2 0 -13 -5 -23 -9 -23 -7 0 -9 73 -3 75 10 4 41 -1 41 -6z m16 -104 c4 -8 3
-23 -1 -32 -5 -12 -9 -14 -12 -5 -3 6 -11 12 -19 12 -8 0 -14 9 -14 20 0 24
38 28 46 5z"/>
<path d="M1532 1040 c0 -14 2 -19 5 -12 2 6 2 18 0 25 -3 6 -5 1 -5 -13z"/>
<path d="M3217 1138 c-23 -18 -47 -80 -47 -123 0 -72 53 -145 94 -129 29 11
49 64 49 134 1 106 -42 158 -96 118z m17 -79 c-1 -24 1 -36 3 -26 6 22 27 17
31 -7 5 -26 -16 -45 -28 -26 -7 11 -10 11 -10 2 0 -19 31 -27 41 -11 14 23 33
-5 25 -36 -6 -23 -9 -25 -22 -14 -12 10 -20 10 -35 1 -11 -7 -23 -10 -28 -8
-6 4 -8 159 -2 174 0 2 7 2 14 -1 7 -2 12 -21 11 -48z"/>
<path d="M2160 841 c0 -25 6 -27 13 -6 4 8 2 17 -3 20 -6 4 -10 -3 -10 -14z"/>
<path d="M2385 831 c-3 -5 -1 -12 5 -16 5 -3 10 1 10 9 0 18 -6 21 -15 7z"/>
<path d="M1925 620 c-3 -5 1 -10 10 -10 9 0 13 5 10 10 -3 6 -8 10 -10 10 -2
0 -7 -4 -10 -10z"/>
<path d="M1965 620 c-3 -5 -3 -11 2 -11 40 -7 53 -5 53 7 0 16 -46 19 -55 4z"/>
<path d="M1858 613 c7 -3 16 -2 19 1 4 3 -2 6 -13 5 -11 0 -14 -3 -6 -6z"/>
<path d="M1436 3689 c2 -4 -2 -9 -8 -12 -7 -2 -10 -7 -7 -11 3 -3 13 2 22 12
14 15 15 19 2 19 -8 0 -12 -4 -9 -8z"/>
</g>
</svg>
