<?xml version="1.0" standalone="no"?>
<!DOCTYPE svg PUBLIC "-//W3C//DTD SVG 20010904//EN"
 "http://www.w3.org/TR/2001/REC-SVG-20010904/DTD/svg10.dtd">
<svg version="1.0" xmlns="http://www.w3.org/2000/svg"
 width="1024.000000pt" height="325.000000pt" viewBox="0 0 1024.000000 325.000000"
 preserveAspectRatio="xMidYMid meet">

<g transform="translate(0.000000,325.000000) scale(0.100000,-0.100000)"
fill="#000000" stroke="none">
<path d="M23 3183 c-23 -9 -14 -20 62 -72 41 -29 75 -56 75 -61 0 -5 -34 -32
-75 -60 -42 -28 -73 -55 -70 -60 3 -5 40 -33 81 -61 l75 -52 -44 -31 c-24 -17
-60 -43 -80 -56 -20 -14 -37 -27 -37 -30 0 -3 17 -16 37 -30 20 -13 56 -39 80
-56 l44 -31 -80 -57 c-45 -31 -81 -58 -81 -61 0 -2 34 -27 75 -55 41 -28 75
-55 75 -60 0 -5 -34 -33 -75 -61 -41 -29 -75 -55 -75 -58 1 -3 37 -31 81 -60
l80 -55 -23 -18 c-13 -10 -49 -35 -80 -56 -32 -20 -57 -40 -55 -44 1 -4 37
-31 80 -61 88 -61 89 -52 -20 -126 -35 -23 -63 -45 -63 -49 0 -4 24 -22 52
-39 29 -18 65 -42 81 -55 l27 -23 -80 -55 c-43 -30 -79 -57 -79 -60 0 -3 35
-29 79 -59 44 -30 78 -57 75 -60 -2 -4 -36 -29 -77 -56 -40 -27 -75 -51 -78
-53 -3 -2 2 -9 11 -15 9 -7 47 -34 84 -60 l67 -49 -81 -56 c-56 -38 -78 -59
-71 -67 5 -6 39 -31 75 -56 36 -24 65 -48 65 -54 0 -6 -29 -30 -65 -54 -36
-25 -70 -50 -75 -56 -5 -7 19 -29 70 -65 44 -30 79 -57 79 -60 1 -3 -35 -29
-79 -58 -44 -29 -78 -57 -75 -61 2 -5 36 -30 75 -56 39 -26 72 -51 75 -55 2
-4 -31 -31 -75 -61 -44 -30 -80 -56 -80 -59 0 -3 36 -29 80 -59 49 -34 77 -58
71 -64 -5 -5 -39 -30 -76 -56 -37 -25 -66 -50 -66 -56 1 -6 147 -11 411 -13
l410 -2 0 865 c0 570 3 865 10 865 6 0 10 5 10 11 0 16 26 39 45 39 8 0 18 -8
21 -17 11 -38 40 -89 56 -101 10 -7 18 -19 18 -26 0 -31 99 -78 123 -58 7 5
28 13 47 17 45 10 68 24 99 59 48 55 101 137 96 147 -4 5 0 9 7 9 10 0 10 2
-1 9 -11 7 -9 10 10 13 59 10 -125 19 -324 16 l-217 -3 0 28 0 27 1178 0
c1377 0 1620 8 2125 71 809 100 1622 334 2182 628 127 67 385 221 385 229 0 9
-485 6 -1440 -9 -512 -8 -1250 -10 -2174 -6 l-1399 6 -66 31 c-201 95 -436
166 -697 210 -106 18 -162 20 -509 19 -215 0 -396 -3 -402 -6z m5910 -321
c120 -2 195 -7 192 -13 -4 -5 -18 -9 -33 -9 -15 0 -45 -7 -67 -14 -31 -11
-152 -15 -535 -20 -272 -4 -619 -9 -770 -11 -412 -7 -806 9 -1205 49 -119 12
-125 13 -70 17 70 6 2196 7 2488 1z m-3868 -297 c4 -52 10 -95 14 -95 4 0 39
43 76 95 l69 95 44 0 c41 0 44 -2 39 -22 -3 -13 -16 -92 -28 -175 l-22 -153
-39 0 c-45 0 -46 6 -23 114 8 38 14 71 12 72 -1 2 -34 -38 -72 -89 -77 -101
-107 -119 -125 -72 -5 14 -11 45 -11 68 -1 23 -4 56 -8 72 -6 29 -9 25 -57
-65 l-50 -95 -42 -3 c-27 -2 -42 1 -42 9 0 6 24 57 54 113 29 55 68 129 85
164 31 62 31 62 75 62 l44 0 7 -95z m361 3 c-20 -164 -20 -175 4 -188 29 -16
67 1 75 32 3 13 11 64 18 113 l13 90 37 3 c43 4 42 10 23 -116 -19 -124 -31
-155 -65 -175 -36 -21 -112 -22 -150 -2 -48 24 -55 58 -37 179 9 59 16 109 16
111 0 3 16 5 36 5 l37 0 -7 -52z m299 25 c-3 -16 -11 -70 -19 -120 l-13 -93
59 0 58 0 0 -35 0 -36 -91 3 c-81 3 -93 5 -99 23 -3 11 2 80 13 153 l20 132
38 0 c37 0 38 -1 34 -27z m321 5 c-3 -13 -6 -28 -6 -35 0 -7 -18 -13 -42 -15
l-43 -3 -15 -115 -15 -115 -38 -3 c-43 -4 -42 -11 -22 118 20 127 21 120 -25
120 -41 0 -45 5 -34 48 6 21 10 22 126 22 120 0 120 0 114 -22z m104 5 c0 -10
-9 -76 -20 -148 -11 -71 -20 -133 -20 -137 0 -5 -16 -8 -35 -8 -42 0 -42 2
-20 153 24 164 22 157 61 157 26 0 34 -4 34 -17z m211 -6 c23 -15 37 -35 43
-60 19 -75 -39 -137 -128 -137 -35 0 -46 -15 -46 -67 0 -20 -5 -23 -36 -23
l-37 0 7 71 c12 120 33 221 47 230 29 18 115 10 150 -14z m287 3 c46 -28 72
-76 72 -133 0 -93 -58 -157 -142 -157 -92 0 -148 58 -148 155 0 65 39 129 90
148 34 12 96 6 128 -13z m162 3 c0 -38 23 -144 30 -136 4 4 20 39 36 76 28 67
51 86 86 75 7 -3 19 -40 28 -89 l15 -84 35 84 c19 46 40 85 46 88 7 2 26 3 42
1 l30 -3 -63 -137 c-70 -156 -78 -168 -111 -168 -30 0 -36 11 -49 95 l-12 70
-22 -50 c-12 -27 -29 -65 -36 -82 -11 -27 -20 -33 -44 -33 -16 0 -33 5 -37 12
-7 11 -54 260 -54 286 0 7 15 12 40 12 31 0 40 -4 40 -17z m580 8 c0 -5 -4
-21 -10 -35 -9 -24 -14 -26 -74 -26 -49 0 -65 -4 -70 -16 -12 -30 -5 -34 60
-34 l65 0 -3 -32 -3 -33 -66 -3 c-62 -3 -67 -5 -71 -27 -3 -14 -3 -27 0 -30 3
-3 34 -5 69 -5 l63 0 0 -30 0 -30 -89 0 c-109 0 -121 4 -121 41 0 72 32 245
48 257 19 14 202 17 202 3z m209 -5 c55 -29 68 -110 25 -153 -23 -23 -25 -29
-14 -52 7 -14 19 -41 26 -58 l14 -33 -44 0 c-43 0 -43 0 -62 53 -15 41 -24 52
-41 53 -22 1 -26 -8 -36 -86 -1 -10 -16 -16 -41 -18 -37 -3 -38 -2 -32 25 3
15 12 80 21 143 11 80 21 119 33 128 22 16 117 15 151 -2z m166 -31 c0 -23 -5
-31 -21 -33 -27 -4 -47 21 -39 48 5 16 14 20 33 18 23 -2 27 -8 27 -33z"/>
<path d="M3272 2551 c-6 -3 -13 -23 -17 -44 l-7 -37 36 0 c41 0 63 27 47 59
-11 20 -43 32 -59 22z"/>
<path d="M3531 2535 c-26 -22 -31 -34 -31 -68 1 -68 44 -105 99 -86 38 13 51
35 51 86 0 37 -27 83 -50 83 -4 0 -15 2 -23 6 -8 3 -28 -7 -46 -21z"/>
<path d="M4505 2544 c-8 -9 -15 -26 -15 -40 0 -21 5 -24 34 -24 40 0 65 24 50
47 -16 26 -51 34 -69 17z"/>
<path d="M4734 2589 c-4 -7 -3 -9 4 -5 6 3 13 -2 15 -11 4 -16 5 -16 6 -1 1
21 -15 32 -25 17z"/>
<path d="M4711 2574 c0 -11 3 -14 6 -6 3 7 2 16 -1 19 -3 4 -6 -2 -5 -13z"/>
<path d="M9228 3175 c-215 -30 -491 -123 -608 -205 -14 -10 -52 -26 -85 -35
-55 -17 -93 -17 -535 -6 -261 6 -582 11 -712 11 l-238 0 -72 -48 c-184 -123
-295 -185 -546 -304 -574 -274 -1314 -475 -2092 -567 -451 -54 -639 -61 -1688
-61 -588 -1 -953 -4 -962 -10 -12 -8 -13 -11 -1 -19 11 -7 11 -9 0 -14 -8 -3
2 -6 21 -8 l35 -2 -35 -7 c-21 -4 -27 -8 -15 -10 41 -4 141 -10 168 -10 17 0
26 -4 22 -10 -3 -6 -10 -8 -15 -5 -11 7 -33 -22 -27 -37 4 -9 6 -8 6 3 1 16
37 33 52 24 3 -3 10 -24 13 -47 10 -63 18 -73 41 -48 16 18 17 20 2 14 -18 -7
-24 11 -7 21 6 3 10 12 9 18 0 9 -2 9 -6 0 -8 -22 -21 -14 -28 17 -4 16 -11
30 -16 30 -5 0 -9 7 -9 15 0 25 18 17 29 -12 l11 -28 -5 28 c-5 27 9 38 18 15
3 -8 6 -6 6 5 1 17 21 25 21 7 0 -5 7 -6 17 -3 12 5 14 3 8 -7 -6 -9 -4 -11 6
-5 23 15 119 13 119 -1 0 -7 -9 -12 -20 -11 -11 1 -20 4 -20 7 0 4 -13 7 -29
7 -22 0 -26 -3 -17 -13 6 -6 14 -10 19 -7 11 6 47 -7 47 -18 0 -5 -6 -9 -12
-9 -7 0 -26 -34 -42 -75 -19 -50 -35 -76 -48 -81 -16 -5 -18 -8 -7 -15 26 -16
46 -9 57 19 43 112 63 161 76 187 15 29 16 29 16 6 0 -13 3 -21 7 -18 3 4 12
2 20 -4 9 -9 13 -8 13 0 0 6 -7 14 -15 17 -8 4 -12 10 -9 16 3 5 12 4 22 -4
12 -10 14 -10 8 0 -5 8 1 12 18 12 14 0 26 -6 26 -12 0 -9 3 -9 8 -3 10 15
125 12 130 -3 2 -6 8 -12 13 -12 4 0 6 7 2 15 -3 10 0 15 8 13 8 -2 17 -12 21
-23 5 -18 6 -17 8 5 2 25 2 25 16 -5 11 -22 14 -24 10 -8 -5 29 10 40 17 13 4
-16 14 -20 46 -20 23 0 41 4 41 10 0 5 -17 7 -40 4 -32 -5 -40 -3 -40 10 0 13
8 15 43 10 31 -4 38 -3 27 5 -11 8 -11 11 -2 11 7 0 15 -7 18 -15 4 -8 16 -15
28 -16 19 -1 19 -2 -4 -9 -23 -7 -22 -8 10 -9 19 0 42 4 50 10 13 9 12 10 -2
5 -11 -3 -18 0 -18 7 0 16 33 17 47 1 18 -19 -31 -68 -70 -68 -29 -1 -33 -5
-57 -63 -15 -38 -32 -64 -44 -67 -25 -6 -10 -27 17 -22 16 2 28 18 47 64 23
57 27 61 60 64 30 3 37 8 46 38 9 28 17 35 38 36 32 1 43 -13 23 -29 -8 -7
-25 -40 -38 -75 -12 -35 -30 -67 -41 -73 -23 -12 -14 -30 14 -26 15 3 28 24
54 91 19 48 34 94 34 101 0 16 19 30 28 20 3 -3 0 -11 -8 -16 -12 -8 -11 -9 5
-5 11 3 44 6 73 7 44 2 51 5 47 19 -4 13 0 17 17 16 13 -1 29 -5 36 -9 7 -5
12 -3 12 3 0 6 5 8 10 5 6 -4 9 -16 6 -28 -4 -15 -2 -14 6 4 9 23 17 26 54 25
25 0 46 -6 49 -13 2 -7 10 -13 17 -13 10 0 10 2 -1 9 -33 21 29 23 67 2 24
-13 24 -13 4 -34 -14 -16 -17 -28 -12 -42 8 -18 9 -18 9 5 1 14 10 32 21 40
14 10 16 16 7 22 -8 5 -3 8 13 9 23 0 23 1 5 9 -15 6 -8 9 28 9 26 1 47 -3 47
-9 0 -5 8 -10 18 -10 14 0 15 2 2 10 -11 7 -11 10 -2 10 24 0 52 -20 53 -38 0
-14 2 -14 6 -2 3 8 11 18 17 22 7 5 3 8 -8 8 -11 0 -17 3 -13 6 10 10 66 -7
63 -19 -1 -7 -1 -9 1 -4 3 4 9 7 14 7 6 0 7 -5 4 -10 -7 -11 44 -14 70 -3 15
5 14 8 -6 19 l-24 13 23 -2 c12 -1 22 -5 22 -9 0 -18 38 -27 56 -13 18 13 18
14 -2 9 -12 -3 -24 -2 -27 3 -3 5 14 9 38 9 24 0 42 -3 40 -6 -2 -3 5 -11 16
-18 11 -7 19 -8 19 -2 0 5 5 10 11 10 5 0 7 -5 4 -10 -4 -6 9 -9 32 -9 23 1
29 3 15 6 -12 2 -22 9 -22 15 0 6 -12 8 -30 4 -19 -3 -29 -2 -25 4 3 6 27 10
53 10 34 0 43 -3 32 -10 -12 -8 -9 -10 13 -10 32 0 57 -20 57 -45 0 -25 -41
-118 -58 -132 -10 -8 -45 -13 -89 -13 -71 0 -96 -12 -51 -24 29 -7 106 -6 138
3 14 4 32 21 41 39 9 17 19 29 22 26 3 -3 4 1 4 8 -1 7 5 33 12 57 11 40 11
46 -3 57 -10 7 -14 19 -10 30 3 11 2 15 -3 8 -4 -6 -19 -8 -33 -4 -24 6 -24 7
9 13 40 8 52 2 44 -21 -6 -14 -4 -15 8 -5 12 10 60 17 97 14 6 -1 12 -8 12
-16 0 -14 3 -14 23 -1 19 13 100 16 492 21 779 10 2832 14 2949 7 103 -7 109
-6 117 13 6 17 8 17 8 3 1 -10 7 -18 14 -19 6 0 3 -4 -8 -9 -16 -7 -17 -9 -3
-9 9 -1 18 -6 20 -13 3 -8 39 -11 123 -9 89 2 120 -1 127 -11 8 -10 11 -11 15
0 4 10 8 10 21 0 12 -10 14 -10 8 0 -14 23 65 15 92 -10 16 -16 23 -18 20 -8
-2 8 3 14 10 12 8 -1 11 2 6 9 -12 20 78 3 94 -18 13 -17 14 -16 7 6 -5 16 -4
21 4 17 7 -5 11 2 12 16 0 22 1 22 9 3 8 -18 9 -18 10 5 2 18 4 20 7 7 2 -9 9
-15 14 -11 5 3 7 10 4 15 -4 5 14 9 39 9 34 0 46 -4 49 -17 3 -11 5 -6 6 12
l2 30 11 -25 c10 -24 10 -24 18 -5 6 16 9 12 12 -20 3 -22 6 26 8 108 1 81 4
152 5 157 1 6 3 116 4 245 l1 234 243 5 c133 2 249 4 257 5 8 0 43 -2 78 -5
l62 -6 0 -289 c0 -273 11 -429 31 -429 4 0 13 8 18 18 10 16 10 16 11 0 0 -10
4 -18 9 -18 5 0 12 8 14 18 4 16 5 16 6 0 1 -13 13 -20 41 -24 45 -7 51 -18
18 -29 l-23 -8 25 -4 24 -5 -24 -14 -25 -13 25 0 c14 0 97 6 185 13 88 7 164
10 168 6 5 -4 7 -29 5 -56 l-3 -49 -95 -8 c-188 -15 -352 -36 -365 -47 -9 -8
-14 -7 -17 1 -3 8 -11 10 -22 6 -9 -4 -14 -11 -11 -17 4 -6 12 -7 18 -3 7 4 4
-4 -5 -19 -14 -21 -17 -48 -15 -159 2 -123 3 -134 20 -131 17 3 17 2 -1 -16
-16 -16 -20 -33 -18 -88 1 -64 3 -68 26 -75 l25 -6 -25 -4 c-23 -4 -25 -9 -28
-61 -1 -31 1 -59 5 -61 5 -3 30 14 56 38 26 25 47 42 47 38 0 -4 -23 -27 -51
-52 l-51 -46 -5 -87 c-4 -60 -2 -92 6 -102 8 -10 9 -16 1 -21 -11 -7 -9 -73 3
-93 10 -15 22 -14 -153 -12 -135 1 -148 0 -173 -20 -15 -12 -27 -25 -27 -30 0
-5 46 -11 103 -13 l102 -3 -109 -2 c-97 -2 -112 -4 -133 -24 -13 -12 -23 -16
-23 -10 0 7 5 12 11 12 6 0 9 7 5 15 -3 9 0 15 8 15 7 0 23 11 36 25 32 34 19
37 -145 33 -135 -3 -136 -3 -142 20 -3 13 -3 26 1 29 3 3 1 12 -6 20 -14 18
-7 24 39 34 l38 8 -37 -2 -38 -3 3 51 c2 27 0 59 -4 71 -10 28 0 41 36 47 l30
4 -34 2 c-25 1 -32 5 -27 16 3 8 1 15 -5 15 -15 0 -1 40 25 70 11 13 14 19 5
12 -13 -10 -19 -9 -29 3 -10 12 -8 16 11 24 20 8 20 10 5 10 -15 1 -16 4 -6
16 10 12 10 18 0 30 -17 21 -4 33 40 38 32 3 31 4 -10 5 -49 2 -45 14 10 31
l35 11 -36 -5 c-20 -3 -43 -3 -52 1 -14 5 -14 8 1 25 9 10 23 19 32 18 10 0 9
-3 -5 -9 -15 -7 -16 -9 -4 -9 9 -1 22 6 29 14 11 13 8 15 -18 15 -24 0 -30 4
-29 18 1 12 8 18 21 16 12 -1 28 -3 36 -4 8 -1 4 -5 -10 -9 -20 -6 -14 -9 33
-17 32 -6 60 -7 63 -2 3 4 -6 8 -19 8 -27 0 -51 22 -39 35 4 5 1 5 -5 1 -7 -4
-20 -3 -30 2 -13 8 -7 11 27 17 28 5 38 10 29 15 -18 11 -72 0 -82 -17 -9 -14
-37 -18 -37 -5 0 4 7 18 16 30 8 12 12 21 7 20 -4 -2 -10 1 -13 6 -3 5 7 13
22 17 41 11 70 44 73 83 3 26 0 33 -11 29 -8 -3 -14 0 -14 6 0 16 25 13 40 -4
10 -12 16 -13 29 -3 14 12 14 11 2 -4 -23 -30 -4 -20 33 17 20 19 31 35 26 35
-5 0 -12 -5 -16 -11 -4 -8 -9 -8 -13 -1 -4 7 -30 6 -80 -3 -41 -8 -83 -14 -95
-13 -12 1 -52 -4 -91 -12 -56 -10 -76 -19 -100 -45 -16 -17 -22 -22 -12 -10
37 45 43 46 -198 -14 -286 -71 -539 -143 -580 -165 -11 -5 -23 -9 -27 -8 -31
8 -714 -264 -749 -299 -9 -9 -20 -15 -23 -12 -5 6 -159 -67 -189 -89 -17 -13
-17 -15 2 -58 13 -27 21 -67 21 -100 0 -30 4 -61 9 -69 11 -16 -33 -148 -67
-202 -12 -20 -22 -41 -22 -48 0 -6 -5 -11 -11 -11 -6 0 -31 -18 -56 -40 -25
-21 -62 -47 -84 -57 -21 -10 -39 -21 -39 -25 0 -3 80 -5 178 -2 583 12 883 22
967 30 28 3 280 8 560 11 560 6 605 3 726 -48 171 -71 339 -120 574 -166 l140
-28 465 0 c428 0 501 3 500 23 0 4 -34 29 -75 57 -41 27 -74 54 -72 60 2 5 35
32 73 58 38 26 69 52 69 57 0 5 -35 34 -78 64 l-77 54 79 53 c44 30 80 57 81
61 0 4 -34 31 -75 59 -41 29 -75 56 -75 61 0 4 34 30 75 58 41 28 75 54 75 58
0 4 -17 18 -37 32 -20 13 -56 39 -80 56 l-43 31 80 54 c44 29 80 56 80 60 0 3
-34 30 -75 59 -41 29 -75 56 -75 60 0 3 34 29 75 58 41 29 75 56 75 60 0 4
-36 32 -80 61 l-79 54 77 54 c42 29 78 57 80 61 1 5 -31 33 -73 62 -41 29 -75
56 -75 59 0 3 36 30 80 60 l81 53 -33 25 c-18 13 -54 38 -80 55 -27 16 -48 34
-48 38 0 4 34 31 76 60 41 28 74 56 72 61 -2 4 -34 30 -72 56 -39 26 -70 53
-70 58 0 6 35 34 77 64 l78 53 -78 55 c-43 29 -79 57 -80 61 -2 6 33 32 143
107 13 9 1 21 -65 65 -44 30 -80 58 -81 62 0 4 34 30 75 59 41 28 75 55 75 59
0 4 -34 31 -75 59 -41 29 -75 55 -75 59 0 4 26 24 58 44 31 21 67 46 80 56
l23 18 -81 54 c-44 30 -79 58 -78 62 2 4 38 32 81 62 71 50 77 56 58 65 -30
17 -839 13 -963 -4z m-431 -517 c-3 -8 -6 -5 -6 6 -1 11 2 17 5 13 3 -3 4 -12
1 -19z m-707 -423 l0 -375 -250 0 -250 0 0 375 0 375 250 0 250 0 0 -375z
m-5067 -322 c-13 -2 -33 -2 -45 0 -13 2 -3 4 22 4 25 0 35 -2 23 -4z m-1195
-10 c-10 -2 -28 -2 -40 0 -13 2 -5 4 17 4 22 1 32 -1 23 -4z m992 -13 l25 -8
-25 -2 -25 -2 25 -8 c20 -6 21 -8 6 -9 -11 -1 -28 6 -38 15 -16 16 -18 16 -24
0 -3 -9 -10 -16 -15 -16 -5 0 -4 9 3 20 13 21 27 23 68 10z m665 0 c3 -5 -3
-10 -14 -10 -11 0 -23 5 -26 10 -3 6 3 10 14 10 11 0 23 -4 26 -10z m490 0 c3
-6 -1 -7 -9 -4 -18 7 -21 14 -7 14 6 0 13 -4 16 -10z m-1242 -17 c-3 -6 -11
-9 -19 -6 -20 7 -17 19 5 19 11 0 17 -6 14 -13z m157 7 c0 -5 -7 -7 -15 -4 -8
4 -15 8 -15 10 0 2 7 4 15 4 8 0 15 -4 15 -10z m5090 -34 c0 -3 -4 -8 -10 -11
-5 -3 -10 -1 -10 4 0 6 5 11 10 11 6 0 10 -2 10 -4z m496 -273 c-10 -10 -46
-11 -52 -1 -3 4 9 8 27 8 18 0 29 -3 25 -7z m567 -60 c-7 -2 -21 -2 -30 0 -10
3 -4 5 12 5 17 0 24 -2 18 -5z m-973 -46 c0 -2 -10 -12 -22 -23 l-23 -19 19
23 c18 21 26 27 26 19z m287 -3 c-3 -3 -12 -4 -19 -1 -8 3 -5 6 6 6 11 1 17
-2 13 -5z m713 -34 c0 -5 -5 -10 -11 -10 -5 0 -7 5 -4 10 3 6 8 10 11 10 2 0
4 -4 4 -10z m-1360 -4 c0 -2 -8 -10 -17 -17 -16 -13 -17 -12 -4 4 13 16 21 21
21 13z m557 -12 c-3 -3 -12 -4 -19 -1 -8 3 -5 6 6 6 11 1 17 -2 13 -5z m-54
-11 c-7 -2 -19 -2 -25 0 -7 3 -2 5 12 5 14 0 19 -2 13 -5z m-60 -10 c-7 -2
-19 -2 -25 0 -7 3 -2 5 12 5 14 0 19 -2 13 -5z m-46 -9 c-3 -3 -12 -4 -19 -1
-8 3 -5 6 6 6 11 1 17 -2 13 -5z m-50 -10 c-3 -3 -12 -4 -19 -1 -8 3 -5 6 6 6
11 1 17 -2 13 -5z m-62 -11 c-11 -3 -26 -10 -32 -15 -9 -7 -13 -7 -13 0 0 13
18 21 45 20 l20 0 -20 -5z m-70 -13 c-3 -5 -12 -10 -18 -10 -7 0 -6 4 3 10 19
12 23 12 15 0z m365 -4 c0 -2 -8 -10 -17 -17 -16 -13 -17 -12 -4 4 13 16 21
21 21 13z m-413 -12 c-3 -3 -12 -4 -19 -1 -8 3 -5 6 6 6 11 1 17 -2 13 -5z
m-44 -11 c-7 -2 -19 -2 -25 0 -7 3 -2 5 12 5 14 0 19 -2 13 -5z m-46 -9 c-3
-3 -12 -4 -19 -1 -8 3 -5 6 6 6 11 1 17 -2 13 -5z m-188 -27 c-14 -31 -42 -48
-60 -36 -11 7 -9 9 8 9 13 0 30 11 39 25 20 31 27 32 13 2z m148 17 c-3 -3
-12 -4 -19 -1 -8 3 -5 6 6 6 11 1 17 -2 13 -5z m-40 -10 c-3 -3 -12 -4 -19 -1
-8 3 -5 6 6 6 11 1 17 -2 13 -5z m517 -18 c-4 -10 3 -16 18 -19 16 -3 14 -4
-5 -2 -20 1 -38 -7 -58 -27 -16 -16 -26 -23 -23 -15 3 10 -1 17 -13 20 -14 3
-14 4 2 2 11 -1 34 11 50 27 34 32 36 33 29 14z m-976 -50 c-13 -19 -24 -33
-26 -31 -5 4 37 65 44 65 2 0 -6 -15 -18 -34z m252 14 c-8 -5 -22 -9 -30 -9
-10 0 -8 3 5 9 27 12 43 12 25 0z m351 -23 l-24 -22 19 27 c10 14 21 24 23 22
3 -3 -6 -15 -18 -27z m242 6 c-7 -2 -21 -2 -30 0 -10 3 -4 5 12 5 17 0 24 -2
18 -5z m-66 -9 c-3 -3 -12 -4 -19 -1 -8 3 -5 6 6 6 11 1 17 -2 13 -5z m-97
-20 c-30 -7 -59 -12 -65 -10 -12 4 71 24 100 24 11 0 -5 -6 -35 -14z m-400 2
c0 -2 -8 -10 -17 -17 -16 -13 -17 -12 -4 4 13 16 21 21 21 13z m300 -24 c-8
-3 -20 -8 -25 -13 -6 -4 -17 -3 -25 2 -13 9 -13 10 0 6 8 -2 21 2 28 10 8 7
19 10 25 6 7 -4 6 -8 -3 -11z m310 14 c0 -2 -8 -10 -17 -17 -16 -13 -17 -12
-4 4 13 16 21 21 21 13z m-949 -47 c-17 -16 -21 -17 -21 -4 0 8 7 15 15 15 8
0 15 8 16 18 0 11 2 13 6 4 3 -8 -4 -22 -16 -33z m89 37 c0 -2 -7 -7 -16 -10
-8 -3 -12 -2 -9 4 6 10 25 14 25 6z m1753 -13 c-7 -2 -19 -2 -25 0 -7 3 -2 5
12 5 14 0 19 -2 13 -5z m77 3 c0 -3 -4 -8 -10 -11 -5 -3 -10 -1 -10 4 0 6 5
11 10 11 6 0 10 -2 10 -4z m-2216 -31 c-9 -14 -18 -25 -21 -25 -5 0 5 18 20
38 17 22 18 13 1 -13z m873 -23 c-17 -18 -25 -35 -22 -44 8 -21 -21 -78 -40
-78 -10 0 -15 -11 -15 -35 0 -28 -4 -35 -20 -35 -19 0 -25 15 -21 48 1 8 -9
12 -30 10 -24 -2 -37 -10 -48 -30 -14 -25 -52 -40 -51 -20 1 4 18 39 39 77
l38 70 65 3 c57 2 69 6 93 32 16 17 31 30 34 30 2 0 -7 -13 -22 -28z m-305 -4
c-13 -13 -16 -29 -4 -27 4 1 28 1 55 0 35 -1 47 -5 47 -16 0 -12 -14 -15 -65
-15 -51 0 -65 -3 -65 -15 0 -11 12 -15 50 -15 40 0 48 -3 44 -15 -5 -11 -22
-15 -65 -15 -32 0 -59 -2 -59 -4 0 -2 -3 -12 -7 -22 -6 -15 0 -16 59 -12 63 5
65 5 50 -13 -12 -14 -30 -19 -64 -19 -25 0 -58 -4 -71 -9 -38 -15 -42 12 -11
61 15 23 33 57 40 75 8 18 20 33 27 33 7 0 18 9 25 20 7 11 15 20 19 20 4 0 2
-5 -5 -12z m-599 -23 c-3 -9 -8 -14 -10 -11 -3 3 -2 9 2 15 9 16 15 13 8 -4z
m1197 5 c-13 -9 -13 -11 0 -20 13 -8 12 -10 -2 -10 -10 0 -18 6 -18 13 0 17
10 27 24 27 6 0 4 -5 -4 -10z m203 3 c-7 -2 -21 -2 -30 0 -10 3 -4 5 12 5 17
0 24 -2 18 -5z m-1111 -24 c-5 -19 -36 -39 -43 -27 -8 13 -82 6 -87 -9 -2 -9
11 -13 48 -13 41 0 51 -3 47 -14 -3 -8 -1 -17 6 -19 7 -2 -3 -6 -20 -9 -18 -2
-33 -1 -33 4 0 4 -16 8 -35 8 -24 0 -37 -6 -45 -20 -10 -18 -8 -20 22 -18 18
2 35 6 38 10 3 3 13 0 24 -7 21 -16 13 -35 -14 -35 -10 0 -21 -8 -24 -17 -4
-10 -16 -29 -27 -43 l-21 -25 21 36 c12 20 21 40 21 44 0 4 -27 5 -60 3 -34
-2 -55 -1 -47 3 7 5 30 43 50 86 l37 78 72 -2 c53 -1 72 -5 70 -14z m983 -33
c-44 -30 -88 -68 -97 -85 -9 -17 -24 -31 -33 -31 -18 0 -18 7 -1 40 10 17 11
30 5 42 -9 17 -12 16 -35 -9 l-26 -28 21 28 c14 20 18 37 14 58 -5 25 -2 29
16 29 15 0 25 -9 32 -30 6 -16 15 -30 21 -30 10 0 64 35 86 57 7 7 28 13 45
13 30 0 27 -4 -48 -54z m-879 -11 l38 -56 17 33 c10 18 13 35 8 36 -11 4 34
42 50 42 16 0 15 -1 -26 -85 -23 -45 -43 -75 -53 -75 -8 1 -30 21 -48 45 -37
51 -52 50 -77 -6 -11 -24 -25 -39 -36 -39 -17 0 -17 2 -1 38 39 83 63 122 76
122 7 0 31 -25 52 -55z m694 35 c0 -12 -7 -20 -17 -21 -10 0 -26 -2 -36 -4 -9
-2 -15 1 -11 6 3 5 -13 9 -34 9 -36 0 -42 -4 -61 -40 -12 -22 -21 -45 -21 -50
0 -6 20 -10 45 -10 39 0 46 3 60 30 9 17 22 30 30 30 21 0 19 -11 -8 -51 -22
-33 -25 -34 -96 -37 l-73 -3 5 31 c9 47 12 53 32 83 24 37 46 46 123 46 56 1
62 -1 62 -19z m-990 6 c0 -2 -7 -7 -16 -10 -8 -3 -12 -2 -9 4 6 10 25 14 25 6z
m-122 -28 c-5 -22 -33 -43 -58 -44 -23 -1 -22 0 6 12 17 7 34 20 37 29 7 18
18 20 15 3z m52 2 c-8 -5 -19 -10 -25 -10 -5 0 -3 5 5 10 8 5 20 10 25 10 6 0
3 -5 -5 -10z m2183 -47 c-7 -2 -19 -2 -25 0 -7 3 -2 5 12 5 14 0 19 -2 13 -5z
m-793 -7 c0 -2 -8 -10 -17 -17 -16 -13 -17 -12 -4 4 13 16 21 21 21 13z
m-1767 -31 c-3 -9 -8 -14 -10 -11 -3 3 -2 9 2 15 9 16 15 13 8 -4z m187 5 c-8
-5 -19 -10 -25 -10 -5 0 -3 5 5 10 8 5 20 10 25 10 6 0 3 -5 -5 -10z m-70 -30
c-19 -11 -39 -19 -45 -19 -5 0 6 8 25 19 19 11 40 19 45 19 6 0 -6 -8 -25 -19z
m1648 5 c-2 -1 -18 -5 -36 -8 -26 -5 -30 -4 -20 6 6 8 22 11 35 9 13 -2 23 -6
21 -7z m-100 -12 c-10 -2 -26 -2 -35 0 -10 3 -2 5 17 5 19 0 27 -2 18 -5z
m-1427 -31 c-18 -34 -13 -52 14 -52 14 0 25 -3 25 -7 -1 -25 -23 -33 -108 -37
-63 -4 -98 -10 -108 -20 -21 -21 -5 -26 76 -25 95 2 110 -11 81 -70 -21 -40
-63 -71 -99 -71 -10 0 -24 -6 -31 -13 -11 -9 -13 -9 -7 1 12 21 -89 15 -135
-9 -23 -11 -43 -18 -45 -16 -3 2 9 10 26 17 18 8 27 16 20 20 -6 4 -8 14 -4
23 5 13 19 17 60 17 63 0 124 22 124 44 0 13 -12 16 -53 16 -39 0 -58 5 -70
18 -14 16 -13 20 11 57 31 44 52 53 135 54 l57 1 16 40 c9 23 19 39 21 36 3
-2 0 -13 -6 -24z m569 9 c-5 -11 -15 -23 -22 -27 -7 -4 -8 -3 -4 4 4 7 1 12
-6 12 -10 0 21 22 40 29 1 1 -2 -8 -8 -18z m280 -11 c-12 -16 -24 -30 -26 -30
-3 0 4 14 16 30 12 17 24 30 26 30 3 0 -4 -13 -16 -30z m503 23 c-7 -2 -19 -2
-25 0 -7 3 -2 5 12 5 14 0 19 -2 13 -5z m107 -6 c0 -2 -10 -12 -22 -23 l-23
-19 19 23 c18 21 26 27 26 19z m-1360 -22 c-14 -8 -32 -14 -40 -14 -8 0 -1 6
15 14 40 18 57 18 25 0z m1060 -3 c-14 -2 -31 -9 -37 -14 -7 -6 -13 -7 -13 -3
0 16 34 32 54 26 19 -5 19 -6 -4 -9z m83 11 c-7 -2 -21 -2 -30 0 -10 3 -4 5
12 5 17 0 24 -2 18 -5z m-726 -9 c-3 -3 -12 -4 -19 -1 -8 3 -5 6 6 6 11 1 17
-2 13 -5z m-801 -30 c-21 -20 -28 -17 -14 5 7 11 16 17 20 15 5 -3 2 -12 -6
-20z m1381 20 c-3 -3 -12 -4 -19 -1 -8 3 -5 6 6 6 11 1 17 -2 13 -5z m-40 -10
c-3 -3 -12 -4 -19 -1 -8 3 -5 6 6 6 11 1 17 -2 13 -5z m363 -8 c0 -2 -8 -10
-17 -17 -16 -13 -17 -12 -4 4 13 16 21 21 21 13z m-1091 -78 c-21 -40 -39 -79
-39 -85 -1 -39 -70 -83 -129 -83 -40 0 -41 -1 -75 -69 -19 -38 -34 -70 -32
-72 1 -2 -6 -12 -17 -23 -23 -22 -24 -24 27 76 22 43 37 80 35 83 -3 2 -27 -4
-55 -14 -66 -25 -100 -35 -93 -27 3 4 30 15 59 25 43 15 49 20 32 25 -28 9
-34 32 -17 66 8 16 15 36 15 45 0 8 4 15 8 15 5 0 19 23 32 50 18 39 29 50 47
50 27 0 27 0 8 -36 -11 -22 -12 -30 -2 -36 9 -6 9 -8 0 -8 -18 0 -66 -79 -59
-97 9 -22 59 -12 71 15 5 12 13 22 18 22 4 0 3 -9 -3 -21 -15 -28 -7 -34 32
-23 27 8 39 21 68 77 30 58 33 69 20 78 -13 9 -13 10 2 6 9 -3 19 0 22 8 2 7
17 15 33 18 15 2 29 5 29 6 1 0 -16 -32 -37 -71z m269 56 c16 -3 22 -11 22
-29 0 -35 26 -32 45 5 l16 30 100 0 c79 0 101 -3 105 -15 10 -24 -4 -63 -35
-97 -23 -26 -36 -32 -85 -36 -42 -3 -59 -9 -67 -23 -8 -15 -6 -19 8 -20 13 -1
11 -3 -6 -8 -14 -4 -39 -32 -67 -76 -49 -81 -50 -82 -26 -88 10 -3 7 -5 -10
-6 -15 0 -32 -9 -37 -18 -6 -10 -11 -15 -11 -11 0 4 25 46 55 94 30 48 53 89
52 91 -2 1 -17 -1 -33 -6 -16 -5 -83 -22 -148 -38 l-119 -29 -44 -84 c-25 -47
-47 -87 -50 -90 -8 -8 15 47 42 99 14 28 25 53 25 56 0 9 -49 -3 -142 -33 -49
-16 -88 -26 -88 -22 0 7 49 24 192 65 50 14 60 21 83 61 15 25 29 44 31 41 3
-2 -5 -21 -17 -41 -24 -41 -25 -41 44 -22 29 8 71 20 95 26 39 10 45 16 77 80
40 79 40 80 21 80 -8 0 -23 -13 -33 -30 -21 -37 -59 -50 -146 -51 l-68 -1 -16
-39 c-12 -30 -21 -39 -39 -39 -13 0 -24 3 -24 8 0 4 25 54 54 112 l54 105 58
5 c57 5 85 4 132 -6z m327 6 c-3 -5 -12 -10 -18 -10 -7 0 -6 4 3 10 19 12 23
12 15 0z m46 2 c14 -6 10 -19 -27 -96 -24 -49 -44 -91 -44 -92 0 -8 42 -3 61
6 13 7 19 7 19 0 0 -5 16 -10 35 -10 38 0 38 0 29 -24 -5 -13 -25 -16 -111
-16 -90 0 -104 2 -99 15 3 8 9 22 13 32 5 13 2 15 -17 10 -13 -3 -19 -2 -14 3
5 4 18 10 29 12 14 2 32 29 60 85 22 45 42 82 45 82 3 0 12 -3 21 -7z m180
-52 l24 -50 72 51 c53 37 80 49 100 47 27 -3 25 -5 -29 -42 -57 -38 -73 -54
-42 -42 9 3 12 2 9 -5 -4 -5 -12 -8 -18 -6 -27 10 -85 -36 -108 -84 -17 -38
-28 -49 -46 -49 -28 0 -28 1 -3 50 26 50 25 60 -2 61 -17 1 -18 3 -6 6 16 4
16 7 1 39 -9 19 -19 34 -22 34 -3 0 -15 -14 -26 -30 -11 -16 -24 -30 -28 -30
-5 0 3 14 17 31 14 17 26 39 26 49 0 18 24 30 46 23 5 -2 21 -26 35 -53z
m1193 49 c-3 -6 0 -16 7 -21 11 -7 9 -8 -5 -4 -10 4 -24 3 -30 -2 -6 -5 -24
-5 -41 -1 l-30 7 36 1 c20 0 42 8 49 16 14 17 24 20 14 4z m-2109 -18 c-3 -5
3 -12 12 -14 14 -4 13 -5 -4 -6 -12 0 -27 -9 -32 -18 -6 -10 -11 -14 -11 -10
0 9 30 57 37 57 2 0 2 -4 -2 -9z m2055 -34 c0 -2 -17 -19 -37 -38 l-38 -34 34
38 c33 34 41 42 41 34z m-767 -14 c-7 -2 -19 -2 -25 0 -7 3 -2 5 12 5 14 0 19
-2 13 -5z m-173 -13 c0 -5 -4 -10 -9 -10 -6 0 -31 -28 -58 -62 -72 -93 -72
-93 -73 -87 0 3 22 34 50 70 27 35 50 70 50 77 0 7 5 10 10 7 6 -3 10 -1 10 4
0 6 5 11 10 11 6 0 10 -4 10 -10z m78 3 c-10 -2 -26 -2 -35 0 -10 3 -2 5 17 5
19 0 27 -2 18 -5z m-1773 -32 c-4 -14 0 -21 12 -24 16 -4 16 -5 1 -6 -21 -1
-30 12 -22 33 9 23 17 20 9 -3z m1420 -17 c-5 -1 -27 -5 -48 -9 -24 -4 -35
-10 -31 -17 5 -8 1 -9 -10 -5 -10 4 -27 7 -39 8 -12 1 -3 5 21 11 23 5 42 13
42 17 0 4 17 5 38 2 20 -2 33 -5 27 -7z m1094 -51 c-8 -10 -16 -20 -19 -23 -3
-3 -39 -41 -80 -85 l-75 -80 90 -6 90 -5 -102 -2 c-57 -1 -103 -6 -103 -10 0
-4 -28 -37 -61 -72 -61 -65 -61 -65 -18 -10 25 30 51 63 58 73 14 17 9 18
-111 15 -70 -2 -124 0 -121 5 2 4 61 7 131 7 l127 0 72 77 c51 54 69 79 60 85
-8 5 -5 8 9 8 11 0 29 9 39 20 22 25 33 26 14 3z m-1384 -3 c-11 -5 -27 -9
-35 -9 -9 0 -8 4 5 9 11 5 27 9 35 9 9 0 8 -4 -5 -9z m756 -18 c-5 -10 -26
-36 -47 -57 -20 -22 -30 -29 -21 -15 10 13 17 27 17 30 0 4 -28 5 -62 4 l-63
-3 75 9 c57 7 78 14 89 30 17 25 25 26 12 2z m234 -12 c-3 -5 -10 -10 -16 -10
-5 0 -9 5 -9 10 0 6 7 10 16 10 8 0 12 -4 9 -10z m312 4 c-3 -3 -12 -4 -19 -1
-8 3 -5 6 6 6 11 1 17 -2 13 -5z m246 -1 c-7 -2 -21 -2 -30 0 -10 3 -4 5 12 5
17 0 24 -2 18 -5z m-640 -10 c-18 -2 -48 -2 -65 0 -18 2 -4 4 32 4 36 0 50 -2
33 -4z m-120 -10 c-7 -2 -19 -2 -25 0 -7 3 -2 5 12 5 14 0 19 -2 13 -5z m-656
-37 c-20 -30 -14 -35 31 -31 23 3 17 0 -14 -7 -39 -8 -55 -16 -63 -34 -6 -13
-16 -24 -22 -24 -8 0 -8 5 1 15 7 9 10 18 7 22 -4 3 -54 -4 -112 -17 -59 -12
-109 -20 -111 -17 -3 3 21 10 53 16 32 7 77 16 100 21 23 6 53 10 66 10 18 0
31 10 46 35 11 19 23 35 27 35 3 0 -1 -11 -9 -24z m426 17 c-13 -2 -33 -2 -45
0 -13 2 -3 4 22 4 25 0 35 -2 23 -4z m-113 -14 c-25 -4 -56 -7 -70 -7 -38 1
37 15 80 15 32 0 31 0 -10 -8z m-1400 -29 c-6 -12 -10 -24 -7 -26 2 -3 28 5
57 16 29 11 55 19 57 16 2 -2 -27 -16 -64 -31 -63 -24 -70 -30 -87 -71 -10
-25 -20 -43 -23 -40 -2 2 2 17 11 34 17 32 13 43 -12 35 -10 -3 -3 4 14 15 17
11 36 34 44 51 7 17 15 30 17 27 3 -2 -1 -14 -7 -26z m1300 20 c0 -5 -5 -10
-11 -10 -5 0 -7 5 -4 10 3 6 8 10 11 10 2 0 4 -4 4 -10z m630 -20 c-11 -16
-26 -33 -33 -37 -12 -7 0 11 32 50 23 28 24 20 1 -13z m-2111 17 c-28 -21 -59
-36 -59 -29 0 9 37 30 54 31 5 1 7 0 5 -2z m1444 -4 c-7 -2 -19 -2 -25 0 -7 3
-2 5 12 5 14 0 19 -2 13 -5z m-60 -10 c-7 -2 -21 -2 -30 0 -10 3 -4 5 12 5 17
0 24 -2 18 -5z m121 -42 c-15 -22 -29 -39 -32 -37 -2 3 9 23 24 45 37 51 43
46 8 -8z m280 -6 c-29 -39 -44 -47 -22 -12 8 12 18 28 22 35 4 6 12 12 17 12
6 0 -2 -16 -17 -35z m877 -19 c-21 -23 -22 -25 -4 -29 14 -4 13 -5 -4 -4 -12
1 -36 -11 -55 -28 -18 -16 -25 -21 -15 -9 9 11 17 26 17 32 0 7 6 12 13 12 7
0 23 13 37 30 13 16 26 27 29 25 2 -3 -6 -16 -18 -29z m-611 -15 c-6 -12 -18
-20 -28 -20 -16 1 -16 2 0 6 9 2 20 13 23 24 4 11 9 18 12 16 2 -3 0 -15 -7
-26z m-1980 -5 c0 -2 -7 -7 -16 -10 -8 -3 -12 -2 -9 4 6 10 25 14 25 6z m1101
-37 c-12 -19 -21 -30 -21 -26 0 12 33 67 38 63 1 -2 -6 -19 -17 -37z m-294 25
c-3 -3 -12 -4 -19 -1 -8 3 -5 6 6 6 11 1 17 -2 13 -5z m568 -28 c-10 -14 -21
-26 -27 -26 -5 0 0 10 12 22 11 12 20 26 20 32 0 5 3 7 6 4 3 -4 -2 -18 -11
-32z m345 16 c-30 -2 -60 -8 -67 -14 -9 -7 -13 -7 -13 0 0 20 28 27 82 22 l53
-5 -55 -3z m133 11 c-7 -2 -19 -2 -25 0 -7 3 -2 5 12 5 14 0 19 -2 13 -5z m65
0 c-10 -2 -26 -2 -35 0 -10 3 -2 5 17 5 19 0 27 -2 18 -5z m-1968 -13 c-8 -5
-19 -10 -25 -10 -5 0 -3 5 5 10 8 5 20 10 25 10 6 0 3 -5 -5 -10z m330 0 c-8
-5 -22 -9 -30 -9 -10 0 -8 3 5 9 27 12 43 12 25 0z m487 4 c-3 -3 -12 -4 -19
-1 -8 3 -5 6 6 6 11 1 17 -2 13 -5z m-40 -10 c-3 -3 -12 -4 -19 -1 -8 3 -5 6
6 6 11 1 17 -2 13 -5z m-827 -9 c0 -2 -10 -9 -22 -15 -22 -11 -22 -10 -4 4 21
17 26 19 26 11z m920 -15 c-6 -11 -13 -20 -16 -20 -2 0 0 9 6 20 6 11 13 20
16 20 2 0 0 -9 -6 -20z m693 13 c-7 -2 -19 -2 -25 0 -7 3 -2 5 12 5 14 0 19
-2 13 -5z m-1227 -40 c-8 -15 -15 -25 -16 -21 0 12 23 58 27 54 3 -2 -2 -17
-11 -33z m-186 -7 c0 -2 -7 -7 -16 -10 -8 -3 -12 -2 -9 4 6 10 25 14 25 6z
m2341 -48 l-31 -33 43 -6 42 -6 -49 -1 c-31 -1 -57 -9 -70 -19 -16 -14 -18
-14 -8 -2 6 9 9 19 5 22 -3 4 1 7 9 7 8 0 30 18 48 40 18 22 35 38 38 36 2 -3
-10 -20 -27 -38z m-296 -36 c-3 -3 -11 0 -18 7 -9 10 -8 11 6 5 10 -3 15 -9
12 -12z m212 -8 c-3 -3 -12 -4 -19 -1 -8 3 -5 6 6 6 11 1 17 -2 13 -5z m231
-11 c-16 -2 -40 -2 -55 0 -16 2 -3 4 27 4 30 0 43 -2 28 -4z m30 -73 c-7 -10
-14 -17 -17 -15 -4 4 18 35 25 35 2 0 -1 -9 -8 -20z"/>
<path d="M7718 2583 c68 -2 176 -2 240 0 64 1 9 3 -123 3 -132 0 -185 -2 -117
-3z"/>
<path d="M7945 2530 c-33 -11 -84 -38 -113 -60 -29 -22 -56 -40 -60 -40 -4 0
-20 19 -37 41 l-30 41 -3 -97 c-3 -103 1 -116 62 -188 l23 -29 27 46 c35 60
90 105 162 132 33 13 50 23 39 23 -34 1 -121 -45 -169 -89 -45 -41 -45 -41
-57 -19 -6 13 -20 32 -30 42 -18 19 -17 21 13 60 18 22 49 52 71 68 42 31 135
69 167 69 11 0 20 5 20 10 0 14 -16 12 -85 -10z"/>
<path d="M7660 2480 c-9 -6 -10 -10 -3 -10 6 0 15 5 18 10 8 12 4 12 -15 0z"/>
<path d="M7650 2440 c0 -5 5 -10 10 -10 6 0 10 5 10 10 0 6 -4 10 -10 10 -5 0
-10 -4 -10 -10z"/>
<path d="M7660 2410 c-13 -8 -12 -10 3 -10 9 0 17 5 17 10 0 12 -1 12 -20 0z"/>
<path d="M7663 2344 c-7 -7 -13 -32 -13 -56 0 -42 1 -42 14 -18 8 16 9 29 3
38 -6 8 -5 17 3 27 16 20 9 28 -7 9z"/>
<path d="M7650 2236 c0 -2 7 -7 16 -10 8 -3 12 -2 9 4 -6 10 -25 14 -25 6z"/>
<path d="M7886 2089 c7 -11 64 -12 64 -1 0 4 -16 8 -35 9 -19 1 -32 -3 -29 -8z"/>
<path d="M7970 2088 c0 -4 14 -8 30 -8 17 0 30 4 30 9 0 5 -13 9 -30 9 -16 -1
-30 -5 -30 -10z"/>
<path d="M7718 2043 c68 -2 176 -2 240 0 64 1 9 3 -123 3 -132 0 -185 -2 -117
-3z"/>
<path d="M7695 2000 c-10 -17 5 -31 22 -21 9 4 24 6 33 4 10 -3 21 1 25 8 5 8
4 10 -3 5 -7 -4 -12 -2 -12 3 0 14 -57 14 -65 1z m25 -4 c0 -3 -4 -8 -10 -11
-5 -3 -10 -1 -10 4 0 6 5 11 10 11 6 0 10 -2 10 -4z"/>
<path d="M7850 1994 c0 -8 5 -12 10 -9 6 3 10 10 10 16 0 5 -4 9 -10 9 -5 0
-10 -7 -10 -16z"/>
<path d="M7903 2002 c-13 -2 -23 -10 -23 -19 0 -13 2 -13 17 -2 10 9 18 10 20
4 4 -12 73 -7 73 5 0 9 -55 16 -87 12z"/>
<path d="M7802 1991 c-11 -7 -11 -9 1 -14 16 -6 27 0 27 15 0 10 -11 10 -28
-1z"/>
<path d="M7668 1953 c6 -3 12 -9 12 -14 0 -6 -4 -7 -10 -4 -5 3 -10 2 -10 -4
0 -5 9 -9 20 -8 28 2 26 32 -2 34 -13 0 -17 -1 -10 -4z"/>
<path d="M7710 1949 c0 -14 20 -21 20 -7 0 8 5 6 11 -4 12 -21 45 -24 52 -5 4
10 7 10 18 0 18 -18 25 -16 25 6 0 17 -8 19 -63 18 -35 0 -63 -4 -63 -8z"/>
<path d="M7865 1950 c-8 -13 3 -30 18 -30 7 0 6 4 -3 10 -13 9 -13 11 0 20 9
6 10 10 3 10 -6 0 -15 -4 -18 -10z"/>
<path d="M7901 1944 c0 -11 3 -14 6 -6 3 7 2 16 -1 19 -3 4 -6 -2 -5 -13z"/>
<path d="M7920 1943 c0 -8 4 -12 9 -9 5 4 12 0 14 -6 3 -8 6 -6 6 5 1 21 20
22 35 1 10 -13 12 -13 13 5 2 18 -4 21 -38 19 -26 -1 -39 -6 -39 -15z"/>
<path d="M8010 1945 c0 -8 5 -15 10 -15 6 0 10 7 10 15 0 8 -4 15 -10 15 -5 0
-10 -7 -10 -15z"/>
<path d="M7900 1898 c0 -4 -9 -5 -20 -3 -11 2 -20 0 -20 -5 0 -11 108 -11 115
0 3 4 -13 10 -35 12 -22 2 -40 0 -40 -4z"/>
<path d="M7700 1890 c20 -13 47 -13 55 0 4 6 -9 10 -32 10 -28 0 -34 -3 -23
-10z"/>
<path d="M7780 1888 c0 -11 32 -10 50 2 11 7 6 9 -17 7 -18 -1 -33 -5 -33 -9z"/>
<path d="M7609 1034 c-11 -13 -7 -15 36 -12 27 2 50 8 53 16 6 18 -72 16 -89
-4z"/>
<path d="M6650 696 c0 -9 7 -12 20 -9 11 3 20 9 20 14 0 5 -9 9 -20 9 -11 0
-20 -6 -20 -14z"/>
<path d="M6650 670 c-8 -5 -11 -12 -7 -16 4 -4 15 0 24 9 18 18 8 23 -17 7z"/>
<path d="M7174 776 c-8 -11 -14 -26 -14 -33 0 -21 36 -15 54 10 10 14 14 16
10 5 -10 -28 60 -25 80 4 8 12 13 25 11 29 -3 4 -32 7 -66 6 -49 0 -63 -4 -75
-21z"/>
<path d="M7480 792 c-26 -4 -50 -27 -50 -49 0 -16 42 -17 58 -1 9 9 12 9 12 0
0 -17 46 -15 64 4 9 8 16 20 16 25 0 5 0 12 0 17 0 7 -55 10 -100 4z"/>
<path d="M7390 671 c-5 -11 -10 -24 -10 -29 0 -18 39 -1 55 24 15 23 15 24 -9
24 -15 0 -30 -8 -36 -19z"/>
<path d="M2202 1855 c-6 -14 -16 -25 -22 -25 -10 0 -50 -81 -50 -101 0 -5 6
-9 14 -9 12 0 45 61 52 98 1 7 10 24 18 38 9 13 13 24 8 24 -5 0 -14 -11 -20
-25z"/>
<path d="M2270 1866 c0 -9 -4 -14 -10 -11 -5 3 -10 1 -10 -4 0 -6 5 -11 10
-11 13 0 25 28 16 37 -3 4 -6 -1 -6 -11z"/>
<path d="M2355 1871 c-3 -6 -11 -9 -16 -6 -5 4 -9 1 -9 -4 0 -13 10 -14 30 -1
8 5 12 12 8 15 -3 4 -9 1 -13 -4z"/>
<path d="M3052 1873 c-6 -2 -10 -9 -7 -13 3 -5 1 -11 -5 -15 -5 -3 -10 1 -10
10 0 9 -5 13 -10 10 -8 -5 -7 -11 1 -21 10 -12 14 -13 28 -1 9 8 23 12 31 9
13 -4 13 -3 1 11 -7 10 -14 17 -15 16 0 0 -7 -3 -14 -6z"/>
<path d="M2295 1860 c4 -6 11 -8 16 -5 14 9 11 15 -7 15 -8 0 -12 -5 -9 -10z"/>
<path d="M2940 1860 c0 -5 5 -10 11 -10 5 0 7 5 4 10 -3 6 -8 10 -11 10 -2 0
-4 -4 -4 -10z"/>
<path d="M3402 1854 c-7 -8 -20 -30 -27 -49 -8 -18 -24 -40 -36 -48 -16 -12
-20 -22 -14 -45 5 -25 2 -30 -15 -35 -28 -7 -17 -27 14 -27 19 0 25 7 28 30 3
17 0 30 -6 30 -6 1 -1 9 12 20 19 15 68 128 60 136 -2 1 -9 -4 -16 -12z"/>
<path d="M3150 1850 c0 -5 5 -10 11 -10 5 0 7 5 4 10 -3 6 -8 10 -11 10 -2 0
-4 -4 -4 -10z"/>
<path d="M3268 1853 c17 -2 47 -2 65 0 17 2 3 4 -33 4 -36 0 -50 -2 -32 -4z"/>
<path d="M3622 1844 c-7 -8 -17 -12 -23 -9 -5 4 -9 0 -9 -7 0 -7 -6 -25 -14
-39 -7 -14 -16 -37 -19 -51 -12 -46 -33 -58 -100 -58 -63 0 -99 -11 -78 -24
16 -10 161 2 177 15 7 6 18 25 23 43 22 71 40 110 55 121 9 7 16 15 16 19 0
11 -14 6 -28 -10z"/>
<path d="M1990 1836 c0 -8 4 -17 9 -20 5 -4 7 3 4 14 -6 23 -13 26 -13 6z"/>
<path d="M2020 1839 c0 -5 5 -7 10 -4 6 3 10 8 10 11 0 2 -4 4 -10 4 -5 0 -10
-5 -10 -11z"/>
<path d="M2224 1842 c4 -7 2 -21 -5 -30 -12 -15 -11 -15 6 0 16 15 17 20 6 30
-11 11 -13 10 -7 0z"/>
<path d="M3114 1842 c3 -5 1 -12 -5 -14 -8 -3 -7 -24 3 -75 15 -70 15 -72 -6
-77 -25 -6 -15 -18 19 -21 24 -3 25 -1 19 33 -3 21 -10 52 -14 69 -5 18 -7 44
-5 58 1 14 -2 28 -8 32 -6 3 -7 1 -3 -5z"/>
<path d="M3983 1835 c-3 -9 -3 -18 -1 -21 3 -3 8 4 11 16 6 23 -1 27 -10 5z"/>
<path d="M2300 1796 c-11 -26 -20 -51 -20 -55 0 -5 -9 -20 -21 -35 -19 -24
-27 -26 -90 -26 -38 0 -69 -4 -69 -9 0 -23 134 -27 164 -6 25 19 79 156 67
168 -7 7 -17 -6 -31 -37z"/>
<path d="M2374 1785 c-28 -65 -28 -65 -9 -65 14 0 39 47 51 97 12 45 -17 23
-42 -32z"/>
<path d="M2941 1823 c-15 -10 -43 -16 -78 -15 -57 0 -71 -11 -88 -65 -10 -36
20 -29 35 8 13 30 13 31 81 27 37 -2 65 0 63 4 -2 3 2 13 10 21 23 23 4 40
-23 20z"/>
<path d="M2246 1815 c-9 -26 -7 -32 5 -12 6 10 9 21 6 23 -2 3 -7 -2 -11 -11z"/>
<path d="M2426 1813 c-6 -14 -5 -15 5 -6 7 7 10 15 7 18 -3 3 -9 -2 -12 -12z"/>
<path d="M3004 1822 c3 -6 -2 -15 -11 -21 -10 -6 -13 -11 -7 -11 20 0 37 27
23 36 -7 4 -9 3 -5 -4z"/>
<path d="M2482 1802 c-18 -6 -4 -22 19 -22 10 0 19 6 19 13 0 14 -14 17 -38 9z"/>
<path d="M3249 1799 c-10 -6 -1 -9 29 -9 23 0 42 4 42 8 0 12 -53 13 -71 1z"/>
<path d="M3455 1802 c-13 -13 -2 -17 35 -14 22 2 40 8 40 13 0 9 -66 10 -75 1z"/>
<path d="M3660 1790 c-5 -10 -14 -30 -20 -44 -8 -23 -7 -26 10 -26 15 0 22 9
27 30 4 25 10 30 34 30 16 0 29 -5 29 -12 0 -11 29 21 30 32 0 3 -22 6 -50 7
-40 2 -52 -1 -60 -17z"/>
<path d="M3878 1803 c6 -2 18 -2 25 0 6 3 1 5 -13 5 -14 0 -19 -2 -12 -5z"/>
<path d="M9008 1803 c7 -3 16 -2 19 1 4 3 -2 6 -13 5 -11 0 -14 -3 -6 -6z"/>
<path d="M3037 1773 c-12 -11 -8 -23 8 -23 8 0 15 7 15 15 0 16 -12 20 -23 8z"/>
<path d="M1861 1722 c-7 -18 -22 -37 -32 -43 -24 -12 -16 -28 12 -26 27 2 41
30 36 70 l-3 32 -13 -33z"/>
<path d="M3151 1734 c0 -11 3 -14 6 -6 3 7 2 16 -1 19 -3 4 -6 -2 -5 -13z"/>
<path d="M3228 1743 c-9 -2 -19 -15 -22 -28 -4 -14 -15 -29 -26 -35 -25 -13
-17 -30 14 -30 18 0 25 7 30 31 4 19 13 33 26 36 36 10 16 34 -22 26z"/>
<path d="M1974 1719 c-10 -12 -32 -28 -49 -36 l-30 -16 25 -9 c21 -8 29 -5 53
22 15 16 27 37 27 45 0 20 -3 19 -26 -6z"/>
<path d="M3425 1730 c-4 -6 10 -10 34 -10 22 0 43 5 46 10 4 6 -10 10 -34 10
-22 0 -43 -4 -46 -10z"/>
<path d="M2894 1721 c16 -26 -15 -41 -85 -41 -39 0 -69 -4 -69 -10 0 -12 7
-13 134 -14 85 -2 100 1 110 16 7 12 23 18 48 18 27 0 38 4 38 15 0 29 -75 21
-113 -11 -38 -32 -59 -32 -51 0 3 14 1 27 -7 31 -8 5 -10 4 -5 -4z"/>
<path d="M2450 1690 c0 -6 -30 -10 -71 -10 -52 0 -70 -3 -66 -12 4 -14 157
-21 157 -7 0 4 3 14 6 23 4 11 1 16 -10 16 -9 0 -16 -4 -16 -10z"/>
<path d="M2155 1530 c-6 -18 -15 -20 -110 -20 -87 0 -104 -3 -109 -17 -9 -23
8 -37 24 -18 10 12 34 15 111 15 98 0 100 0 109 26 13 33 13 34 -4 34 -8 0
-18 -9 -21 -20z"/>
<path d="M2504 1423 c-41 -107 -53 -129 -72 -131 -30 -5 -18 -22 16 -22 25 0
30 8 74 123 65 165 62 157 46 157 -8 0 -33 -49 -64 -127z"/>
<path d="M2873 1530 c-5 -18 -14 -20 -109 -20 -57 0 -104 -2 -104 -4 0 -2 -3
-11 -6 -20 -4 -11 -1 -16 10 -16 9 0 16 5 16 10 0 6 41 10 103 10 101 0 104 1
115 25 15 33 15 35 -4 35 -9 0 -18 -9 -21 -20z"/>
<path d="M3563 1530 c-5 -19 -14 -20 -120 -20 l-114 0 -24 -55 c-34 -76 -40
-105 -24 -105 8 0 25 30 39 68 l25 67 117 3 116 3 11 29 c8 25 7 30 -5 30 -9
0 -18 -9 -21 -20z"/>
<path d="M3714 1523 c18 -35 45 -70 46 -60 0 8 -51 87 -57 87 -2 0 3 -12 11
-27z"/>
<path d="M3874 1478 c-112 -81 -108 -77 -131 -140 -14 -38 -22 -48 -40 -48
-13 0 -23 -4 -23 -10 0 -5 15 -10 34 -10 32 0 35 3 51 49 15 46 34 70 81 102
64 42 174 122 174 125 0 2 -11 4 -24 4 -13 0 -66 -31 -122 -72z"/>
<path d="M4485 1530 c-6 -18 -15 -20 -110 -20 -103 0 -103 0 -109 -26 -4 -15
-5 -29 -2 -31 8 -8 26 7 26 23 0 11 20 14 105 14 104 0 106 0 115 26 13 33 13
34 -4 34 -8 0 -18 -9 -21 -20z"/>
<path d="M4930 1528 c-33 -79 -60 -153 -60 -166 0 -33 24 -1 50 68 16 41 34
82 39 91 10 17 5 29 -11 29 -5 0 -13 -10 -18 -22z"/>
<path d="M5150 1446 c-59 -147 -63 -150 -212 -154 -151 -5 -139 -22 15 -22
157 0 157 -1 231 184 42 104 40 96 22 96 -8 0 -31 -42 -56 -104z"/>
<path d="M5264 1423 c-41 -106 -53 -129 -72 -131 -34 -5 -26 -22 11 -22 32 0
32 1 85 133 28 74 52 137 52 140 0 4 -6 7 -13 7 -7 0 -35 -56 -63 -127z"/>
<path d="M5665 1530 c-5 -17 -15 -20 -69 -20 l-62 0 -43 -110 c-33 -86 -46
-110 -61 -110 -10 0 -22 -5 -25 -11 -5 -7 6 -9 29 -7 39 3 39 3 116 196 8 19
17 22 70 22 56 0 61 2 70 26 13 33 13 34 -4 34 -8 0 -18 -9 -21 -20z"/>
<path d="M8504 1536 c-10 -8 -16 -17 -13 -20 3 -3 14 3 24 14 21 23 17 26 -11
6z"/>
<path d="M3201 1486 c-16 -40 -30 -57 -52 -67 -30 -12 -31 -12 -24 -71 7 -58
7 -58 -19 -58 -14 0 -26 -4 -26 -10 0 -5 16 -10 36 -10 l36 0 -7 58 -6 57 37
20 c28 15 41 31 52 62 8 26 10 48 5 58 -7 12 -14 3 -32 -39z"/>
<path d="M4806 1507 c-8 -43 -32 -76 -63 -88 -24 -9 -25 -13 -21 -69 l4 -60
-28 0 c-15 0 -28 -4 -28 -10 0 -5 17 -10 38 -10 l38 0 -4 58 c-4 57 -4 59 26
71 33 14 62 63 62 104 0 39 -17 41 -24 4z"/>
<path d="M8412 1529 c2 -7 10 -15 17 -17 8 -3 12 1 9 9 -2 7 -10 15 -17 17 -8
3 -12 -1 -9 -9z"/>
<path d="M2975 1489 c-9 -28 1 -35 23 -16 13 12 37 17 80 17 35 0 62 4 62 10
0 6 -33 10 -79 10 -72 0 -80 -2 -86 -21z"/>
<path d="M4572 1485 c-10 -21 -9 -25 4 -25 8 0 17 7 20 15 5 11 23 15 75 15
39 0 69 4 69 10 0 6 -33 10 -78 10 -74 0 -79 -1 -90 -25z"/>
<path d="M5365 1500 c3 -5 28 -10 56 -10 27 0 49 5 49 10 0 6 -25 10 -56 10
-34 0 -53 -4 -49 -10z"/>
<path d="M8447 1492 c-21 -23 -21 -32 0 -32 9 0 13 3 10 6 -3 4 -2 15 4 25 12
24 7 24 -14 1z"/>
<path d="M8505 1490 c-3 -5 1 -10 10 -10 9 0 13 5 10 10 -3 6 -8 10 -10 10 -2
0 -7 -4 -10 -10z"/>
<path d="M4065 1469 c-4 -6 -4 -13 -1 -16 8 -8 36 5 36 17 0 13 -27 13 -35 -1z"/>
<path d="M2241 1449 c-51 -135 -64 -159 -82 -159 -10 0 -19 -4 -19 -10 0 -5
13 -10 29 -10 27 0 31 6 66 91 24 62 33 95 26 102 -7 7 -13 2 -20 -14z"/>
<path d="M2108 1430 c-11 -18 -24 -20 -105 -20 l-92 0 -16 -30 c-15 -28 -14
-30 4 -30 10 0 21 9 24 20 4 18 13 19 97 17 91 -2 92 -2 106 25 17 32 17 38 4
38 -5 0 -15 -9 -22 -20z"/>
<path d="M2823 1430 c-5 -18 -14 -20 -103 -20 l-98 0 -11 -30 c-8 -25 -7 -30
5 -30 9 0 18 9 21 20 5 18 13 19 98 17 52 -1 96 0 98 3 13 13 18 60 7 60 -6 0
-14 -9 -17 -20z"/>
<path d="M4430 1420 c-10 -18 -21 -20 -105 -20 l-94 0 -19 -52 c-13 -34 -26
-54 -38 -56 -38 -7 -38 -22 -1 -22 33 0 38 4 52 38 27 68 25 67 119 68 91 1
99 4 111 42 8 28 -10 30 -25 2z"/>
<path d="M8438 1433 c-16 -2 -28 -9 -28 -15 0 -6 9 -8 23 -3 12 4 38 10 57 15
34 7 34 8 5 7 -16 0 -42 -2 -57 -4z"/>
<path d="M3505 1378 c-28 -74 -59 -88 -190 -88 -68 0 -95 -3 -85 -10 8 -5 60
-10 115 -10 127 0 154 14 184 95 25 66 25 65 8 65 -6 0 -21 -24 -32 -52z"/>
<path d="M4087 1409 c-3 -11 -11 -19 -19 -18 -26 3 -36 -1 -41 -21 -3 -11 -12
-20 -21 -20 -9 0 -16 -4 -16 -10 0 -5 12 -10 26 -10 17 0 28 6 31 20 4 13 14
20 29 20 21 0 44 29 44 56 0 14 -29 0 -33 -17z"/>
<path d="M8376 1415 c-11 -8 -15 -15 -9 -15 6 0 16 7 23 15 16 19 11 19 -14 0z"/>
<path d="M2947 1396 c-7 -8 -21 -35 -31 -60 -13 -33 -23 -46 -37 -46 -10 0
-19 -5 -19 -11 0 -6 14 -9 31 -7 28 3 34 9 52 56 20 52 20 52 63 52 32 0 44 4
44 15 0 20 -83 21 -103 1z"/>
<path d="M4519 1350 c-20 -49 -28 -60 -46 -60 -13 0 -23 -4 -23 -10 0 -5 15
-10 34 -10 33 0 36 3 54 53 19 50 21 52 63 57 60 7 55 24 -7 28 l-52 3 -23
-61z"/>
<path d="M3960 1379 c0 -5 5 -7 10 -4 6 3 10 8 10 11 0 2 -4 4 -10 4 -5 0 -10
-5 -10 -11z"/>
<path d="M2067 1310 c-5 -19 -14 -20 -125 -20 -70 0 -123 -4 -127 -10 -4 -6
42 -10 130 -10 l135 0 10 26 c13 33 13 34 -4 34 -7 0 -16 -9 -19 -20z"/>
<path d="M2785 1310 c-6 -19 -15 -20 -125 -20 -68 0 -121 -4 -125 -10 -4 -6
42 -10 130 -10 l135 0 10 26 c13 33 13 34 -4 34 -8 0 -18 -9 -21 -20z"/>
<path d="M8460 1256 c0 -2 7 -7 16 -10 8 -3 12 -2 9 4 -6 10 -25 14 -25 6z"/>
<path d="M8440 1205 c-7 -9 -8 -15 -2 -15 5 0 12 7 16 15 3 8 4 15 2 15 -2 0
-9 -7 -16 -15z"/>
<path d="M6024 1186 c-7 -7 -10 -24 -8 -37 6 -30 -27 -95 -45 -91 -17 3 -51
-7 -51 -16 0 -15 71 -52 97 -52 23 1 25 2 11 10 -15 9 -14 14 4 62 31 81 37
112 22 126 -16 15 -16 15 -30 -2z"/>
<path d="M8400 1191 c0 -10 19 -25 25 -20 1 2 -3 10 -11 17 -8 7 -14 8 -14 3z"/>
<path d="M1804 1158 c-8 -12 -10 -32 -5 -75 2 -21 21 -15 21 6 0 10 10 22 23
26 l22 8 -22 4 c-28 5 -30 23 -3 23 11 0 20 5 20 10 0 14 -46 12 -56 -2z"/>
<path d="M1876 1124 c-9 -26 -13 -50 -10 -53 4 -3 9 0 11 7 5 14 43 16 43 2 0
-5 7 -10 15 -10 13 0 12 7 -3 47 -9 25 -22 48 -28 50 -7 2 -19 -17 -28 -43z
m34 -4 c0 -5 -5 -10 -11 -10 -5 0 -7 5 -4 10 3 6 8 10 11 10 2 0 4 -4 4 -10z"/>
<path d="M1960 1155 c-15 -18 -6 -33 27 -46 13 -5 21 -13 18 -19 -4 -7 -13 -6
-26 1 -23 12 -38 4 -22 -12 6 -6 23 -9 39 -7 40 4 47 44 10 54 -38 9 -31 19
14 20 l40 1 0 -39 c0 -27 4 -38 13 -35 7 2 11 17 9 36 -1 21 3 34 13 37 8 4
15 10 15 15 0 13 -64 11 -77 -2 -8 -8 -13 -8 -17 0 -10 16 -41 14 -56 -4z"/>
<path d="M2160 1120 c0 -27 5 -50 10 -50 6 0 10 9 10 20 0 12 7 20 16 20 9 0
18 -9 21 -20 9 -34 21 -22 19 18 -2 50 -12 62 -47 62 -28 0 -29 -1 -29 -50z
m53 15 c1 -5 -6 -11 -15 -13 -11 -2 -18 3 -18 13 0 17 30 18 33 0z"/>
<path d="M2256 1161 c-3 -5 -5 -27 -4 -50 1 -41 2 -41 40 -41 21 0 38 5 38 10
0 6 -11 10 -25 10 -14 0 -25 5 -25 10 0 6 9 10 20 10 11 0 20 5 20 10 0 6 -9
10 -20 10 -11 0 -20 5 -20 10 0 6 12 10 26 10 14 0 23 4 19 10 -8 12 -62 13
-69 1z"/>
<path d="M2340 1120 l0 -50 35 0 c19 0 35 5 35 10 0 6 -11 10 -25 10 -22 0
-25 4 -25 40 0 22 -4 40 -10 40 -5 0 -10 -22 -10 -50z"/>
<path d="M2420 1120 l0 -50 50 0 c28 0 50 5 50 10 0 14 38 12 43 -2 2 -7 8
-10 12 -6 11 10 -20 93 -35 93 -7 0 -20 -18 -29 -40 -14 -35 -20 -40 -43 -37
-35 4 -37 22 -3 22 14 0 25 5 25 10 0 6 -11 10 -25 10 -14 0 -25 5 -25 10 0 6
11 10 25 10 14 0 25 5 25 10 0 6 -16 10 -35 10 l-35 0 0 -50z m130 0 c0 -5 -4
-10 -10 -10 -5 0 -10 5 -10 10 0 6 5 10 10 10 6 0 10 -4 10 -10z"/>
<path d="M2597 1163 c-17 -17 -5 -42 26 -52 25 -9 29 -14 17 -21 -9 -5 -19 -5
-27 2 -15 13 -28 4 -18 -11 3 -6 19 -11 35 -11 34 0 50 30 25 45 -9 6 -24 16
-33 23 -15 11 -12 12 18 6 31 -6 33 -5 21 10 -13 16 -52 22 -64 9z"/>
<path d="M2687 1163 c-4 -3 -7 -26 -7 -50 0 -43 0 -43 35 -43 19 0 35 5 35 10
0 6 -11 10 -25 10 -14 0 -25 5 -25 10 0 6 11 10 25 10 14 0 25 5 25 10 0 6
-11 10 -25 10 -14 0 -25 5 -25 10 0 6 11 10 25 10 14 0 25 5 25 10 0 11 -53
14 -63 3z"/>
<path d="M2812 1158 c-17 -17 -15 -63 2 -78 22 -17 60 -8 64 15 3 16 1 18 -9
8 -23 -23 -49 -16 -49 12 0 30 24 43 45 25 12 -10 15 -10 15 3 0 26 -47 36
-68 15z"/>
<path d="M2923 1158 c-12 -19 -33 -82 -29 -86 2 -2 13 2 24 9 17 10 23 10 36
-1 25 -20 28 -7 9 43 -18 49 -26 56 -40 35z m17 -38 c0 -5 -5 -10 -11 -10 -5
0 -7 5 -4 10 3 6 8 10 11 10 2 0 4 -4 4 -10z"/>
<path d="M2990 1120 c0 -27 5 -50 10 -50 6 0 10 9 10 20 0 12 7 20 16 20 9 0
18 -9 21 -20 9 -34 21 -22 19 18 -2 50 -12 62 -47 62 -28 0 -29 -1 -29 -50z
m51 15 c-1 -15 -24 -12 -29 3 -3 9 2 13 12 10 10 -1 17 -7 17 -13z"/>
<path d="M3087 1163 c-2 -4 -4 -26 -3 -48 1 -39 2 -40 36 -40 35 0 35 0 35 45
0 43 -1 45 -32 48 -17 2 -33 -1 -36 -5z m53 -23 c0 -5 -7 -10 -15 -10 -8 0
-15 5 -15 10 0 6 7 10 15 10 8 0 15 -4 15 -10z m0 -40 c0 -5 -7 -10 -15 -10
-8 0 -15 5 -15 10 0 6 7 10 15 10 8 0 15 -4 15 -10z"/>
<path d="M3217 1163 c-11 -10 -8 -93 3 -93 6 0 10 12 11 28 l1 27 11 -27 c13
-34 25 -35 37 -5 l9 22 7 -22 c11 -39 22 -25 20 24 -1 35 -5 49 -17 51 -11 2
-19 -7 -24 -30 l-7 -33 -14 33 c-14 31 -24 39 -37 25z"/>
<path d="M3336 1163 c-10 -10 -7 -93 4 -93 10 0 12 9 14 63 2 29 -6 42 -18 30z"/>
<path d="M3370 1162 c0 -4 5 -13 12 -20 9 -9 9 -18 -1 -38 -15 -33 -6 -45 13
-18 14 18 15 18 21 2 4 -10 13 -18 21 -18 18 0 18 9 -3 32 -13 14 -14 21 -5
30 7 7 12 19 12 27 0 11 -3 11 -19 -3 -16 -15 -19 -15 -24 -1 -7 15 -27 21
-27 7z"/>
<path d="M8358 1163 c7 -3 16 -2 19 1 4 3 -2 6 -13 5 -11 0 -14 -3 -6 -6z"/>
<path d="M8370 1139 c0 -5 5 -7 10 -4 6 3 10 8 10 11 0 2 -4 4 -10 4 -5 0 -10
-5 -10 -11z"/>
<path d="M8385 1086 c-22 -23 -26 -36 -11 -30 8 3 17 13 20 21 8 20 4 24 -9 9z"/>
<path d="M4880 1061 c0 -16 13 -54 29 -85 17 -31 26 -56 20 -56 -5 0 -9 -5 -9
-11 0 -18 43 1 75 32 18 18 23 27 13 23 -11 -4 -18 -1 -18 6 0 7 -7 10 -15 6
-21 -8 -55 32 -55 64 0 25 -16 50 -32 50 -4 0 -8 -13 -8 -29z"/>
<path d="M1792 928 l3 -83 247 -3 246 -2 22 30 c12 16 25 30 29 30 3 0 15 -13
24 -30 l18 -30 249 0 249 0 22 31 22 32 26 -32 26 -31 288 0 287 0 0 85 0 85
-880 0 -881 0 3 -82z m1748 -3 l0 -75 -280 0 -280 0 0 75 0 75 280 0 280 0 0
-75z m-1587 8 c6 -34 1 -43 -24 -43 -15 0 -19 7 -19 35 0 28 4 35 19 35 12 0
20 -9 24 -27z m45 20 c-10 -2 -18 -9 -18 -14 0 -5 8 -10 18 -10 16 -1 16 -2 0
-6 -10 -2 -18 -8 -18 -13 0 -5 8 -11 18 -13 13 -4 11 -5 -5 -6 -20 -1 -23 4
-23 34 0 30 3 35 23 34 16 -1 18 -2 5 -6z m52 -3 c-13 -9 -13 -11 0 -20 10 -6
11 -10 3 -10 -7 0 -13 -7 -13 -16 0 -8 -4 -12 -10 -9 -11 7 -14 48 -3 58 3 4
13 7 22 7 14 0 14 -2 1 -10z m89 -9 c13 -24 -8 -55 -34 -50 -28 6 -42 34 -26
53 18 22 48 20 60 -3z m64 4 c4 -8 2 -17 -3 -20 -5 -3 -6 -13 -3 -23 6 -14 4
-15 -9 -4 -13 10 -17 10 -21 0 -3 -7 -6 4 -6 25 -1 30 3 37 18 37 10 0 21 -7
24 -15z m40 8 c-19 -7 -16 -23 5 -24 16 -1 16 -2 0 -6 -21 -5 -23 -19 -5 -26
7 -3 5 -6 -5 -6 -14 -1 -18 7 -18 34 0 27 4 35 18 34 10 0 12 -3 5 -6z m276
-10 c12 -23 -4 -53 -29 -53 -21 0 -37 40 -25 59 10 17 43 13 54 -6z m42 -43
c5 0 9 14 9 30 0 17 5 30 11 30 6 0 9 -14 7 -32 -2 -25 -8 -34 -25 -36 -21 -3
-23 1 -21 35 1 37 1 37 5 6 2 -18 8 -33 14 -33z m84 50 c3 -5 3 -21 -1 -35 -5
-20 -9 -23 -15 -13 -7 11 -11 10 -19 -2 -7 -11 -10 -6 -10 23 0 30 4 37 19 37
11 0 22 -4 26 -10z m35 -19 c0 -17 -4 -33 -10 -36 -6 -4 -10 8 -10 29 0 20 5
36 10 36 6 0 10 -13 10 -29z m39 7 l15 -23 7 25 c6 22 7 20 8 -12 1 -44 -3
-46 -31 -15 -14 16 -18 17 -14 5 3 -10 1 -20 -4 -23 -6 -4 -10 9 -10 29 0 41
9 45 29 14z m107 11 c4 -7 0 -9 -13 -5 -28 9 -49 -17 -28 -34 13 -11 18 -11
28 0 9 9 9 11 0 6 -6 -3 -14 -2 -18 4 -3 6 3 10 15 10 27 0 23 -33 -4 -38 -27
-6 -48 25 -35 49 11 21 44 25 55 8z"/>
<path d="M3141 929 c-14 -41 -14 -44 4 -29 12 10 18 10 32 -1 15 -12 16 -12 9
6 -5 11 -11 28 -13 38 -8 26 -20 21 -32 -14z"/>
<path d="M3201 923 c1 -21 3 -30 6 -21 2 9 12 19 21 21 15 4 15 5 0 6 -21 1
-24 17 -5 24 7 3 5 6 -5 6 -14 1 -18 -7 -17 -36z"/>
<path d="M3258 925 c2 -19 5 -35 7 -35 2 0 5 16 7 35 2 21 0 35 -7 35 -7 0 -9
-14 -7 -35z"/>
<path d="M3292 928 c2 -24 9 -34 23 -36 17 -3 17 -1 5 7 -13 10 -13 12 0 21
12 8 12 10 -5 10 -20 1 -20 1 -1 15 19 15 19 15 -3 15 -19 0 -22 -5 -19 -32z"/>
<path d="M3351 923 c0 -21 3 -32 6 -25 3 9 9 10 17 3 9 -7 12 -2 11 22 0 22
-5 33 -17 35 -15 3 -18 -4 -17 -35z m29 17 c0 -5 -4 -10 -10 -10 -5 0 -10 5
-10 10 0 6 5 10 10 10 6 0 10 -4 10 -10z"/>
<path d="M1925 940 c3 -5 8 -10 11 -10 2 0 4 5 4 10 0 6 -5 10 -11 10 -5 0 -7
-4 -4 -10z"/>
<path d="M1925 910 c3 -5 8 -10 11 -10 2 0 4 5 4 10 0 6 -5 10 -11 10 -5 0 -7
-4 -4 -10z"/>
<path d="M2087 937 c-3 -8 -2 -20 3 -27 11 -18 42 -4 38 17 -4 22 -34 29 -41
10z"/>
<path d="M2170 940 c0 -5 5 -10 10 -10 6 0 10 5 10 10 0 6 -4 10 -10 10 -5 0
-10 -4 -10 -10z"/>
<path d="M2480 925 c0 -17 5 -25 13 -22 6 2 12 12 12 22 0 10 -6 20 -12 23 -8
2 -13 -6 -13 -23z"/>
<path d="M2612 941 c2 -7 7 -12 11 -12 12 1 9 15 -3 20 -7 2 -11 -2 -8 -8z"/>
<path d="M8435 860 c-16 -17 -16 -20 -3 -15 9 4 19 13 22 21 7 19 2 18 -19 -6z"/>
<path d="M8326 734 c-9 -24 -2 -26 12 -4 7 11 8 20 3 20 -5 0 -12 -7 -15 -16z"/>
<path d="M1843 538 c-6 -7 -18 -34 -28 -61 -19 -49 -13 -75 9 -44 7 9 21 17
31 17 10 0 24 -8 31 -17 22 -32 27 -5 8 47 -21 59 -37 76 -51 58z m21 -53 c3
-9 0 -15 -9 -15 -9 0 -12 6 -9 15 4 8 7 15 9 15 2 0 5 -7 9 -15z"/>
<path d="M1937 543 c-4 -3 -7 -33 -7 -65 0 -44 4 -58 14 -58 8 0 16 10 18 22
2 15 13 24 36 30 59 16 35 78 -31 78 -13 0 -27 -3 -30 -7z m63 -39 c0 -8 -9
-14 -20 -14 -19 0 -27 19 -14 33 10 9 34 -4 34 -19z"/>
<path d="M2060 491 c0 -59 15 -93 22 -49 2 17 11 24 33 28 22 4 31 11 33 30 5
29 -20 50 -60 50 -28 0 -28 -1 -28 -59z m65 14 c0 -5 -10 -11 -22 -13 -16 -2
-23 2 -23 13 0 11 7 15 23 13 12 -2 22 -7 22 -13z"/>
<path d="M2182 489 l3 -64 38 -3 c27 -2 37 1 37 11 0 10 -8 13 -24 10 -24 -5
-25 -2 -28 48 -2 32 -8 54 -16 57 -10 3 -12 -11 -10 -59z"/>
<path d="M2294 537 c-3 -8 -4 -36 -2 -63 l3 -49 43 -3 c25 -2 42 1 42 7 0 11
-21 15 -48 12 -8 -2 -12 5 -10 16 2 10 10 18 18 19 35 2 41 5 35 14 -3 6 -17
10 -31 10 -13 0 -24 5 -24 10 0 6 14 10 31 10 44 0 32 24 -14 28 -25 2 -39 -1
-43 -11z"/>
<path d="M5396 355 c-10 -8 -23 -12 -29 -8 -6 3 -7 1 -3 -5 5 -8 -6 -12 -36
-13 -81 -2 -99 -17 -22 -18 71 -1 84 5 108 47 9 15 6 15 -18 -3z"/>
<path d="M5522 362 c-15 -5 -62 -47 -62 -55 0 -6 292 3 299 9 2 2 -30 4 -72 4
-50 0 -77 4 -77 11 0 6 -9 9 -19 6 -11 -2 -28 3 -38 12 -10 10 -24 16 -31 13z"/>
<path d="M1018 133 c7 -3 16 -2 19 1 4 3 -2 6 -13 5 -11 0 -14 -3 -6 -6z"/>
</g>
</svg>
